<?xml version="1.0" encoding="utf-8"?>
<!-- Generator: Adobe Illustrator 18.0.0, SVG Export Plug-In . SVG Version: 6.00 Build 0)  -->
<!DOCTYPE svg PUBLIC "-//W3C//DTD SVG 1.1//EN" "http://www.w3.org/Graphics/SVG/1.1/DTD/svg11.dtd">
<svg version="1.1" id="Layer_1" xmlns="http://www.w3.org/2000/svg" xmlns:xlink="http://www.w3.org/1999/xlink" x="0px" y="0px"
	 viewBox="0 262.5 612 262.5" enable-background="new 0 262.5 612 262.5" xml:space="preserve">
<path fill="#00DCCD" d="M26.6,462.3c-2.6-3.9-8.4-3.9-11,0L1.8,483c-1.2,1.7-1.8,3.8-1.8,5.9v17.9c0,5.8,4.7,10.6,10.6,10.6h21.1
	c5.8,0,10.6-4.7,10.6-10.6v-17.9c0-2.1-0.6-4.1-1.8-5.9L26.6,462.3z"/>
<path fill="#D8004E" d="M610.2,483l-13.8-20.7c-2.6-3.9-8.4-3.9-11,0L571.6,483c-1.2,1.7-1.8,3.8-1.8,5.9v17.9
	c0,5.8,4.7,10.6,10.6,10.6h21.1c5.8,0,10.6-4.7,10.6-10.6v-17.9C612,486.8,611.4,484.8,610.2,483z"/>
<path fill="#00DCCD" d="M31.7,274.7c-11.7,0-21.1,9.4-21.1,21.1v126.6c0,11.7,9.4,21.1,21.1,21.1h52.8V274.7H31.7z"/>
<path fill="#F90000" d="M601.4,422.4V295.8c0-11.7-9.4-21.1-21.1-21.1h-52.8v168.8h52.8C592,443.5,601.4,434,601.4,422.4z"/>
<rect x="84.4" y="274.7" fill="#17D2D0" width="73.9" height="168.8"/>
<rect x="158.3" y="274.7" fill="#24CCD2" width="73.9" height="168.8"/>
<rect x="232.1" y="274.7" fill="#32C5D4" width="73.9" height="168.8"/>
<rect x="379.9" y="274.7" fill="#D64CB5" width="73.9" height="168.8"/>
<rect x="306" y="274.7" fill="#3CC1D5" width="73.9" height="168.8"/>
<rect x="453.7" y="274.7" fill="#EF166F" width="73.9" height="168.8"/>
</svg>
