<?xml version="1.0" standalone="no"?>
<!DOCTYPE svg PUBLIC "-//W3C//DTD SVG 1.1//EN" "http://www.w3.org/Graphics/SVG/1.1/DTD/svg11.dtd" >
<svg xmlns="http://www.w3.org/2000/svg">
<metadata>Generated by IcoMoon</metadata>
<defs>
<font id="bee-icon" horiz-adv-x="1024">
<font-face units-per-em="1024" ascent="960" descent="-64" />
<missing-glyph horiz-adv-x="1024" />
<glyph unicode="&#x20;" horiz-adv-x="512" d="" />
<glyph unicode="&#xe900;" glyph-name="Asset-94mdpi" horiz-adv-x="1162" d="M830.27 517.189v442.811l332.108-221.405-332.108-221.405zM1107.027-64h-691.892c-229.273 0-415.135 185.862-415.135 415.135s185.862 415.135 415.135 415.135v0h442.811v-55.351h-442.811c-198.703 0-359.784-161.081-359.784-359.784s161.081-359.784 359.784-359.784v0h691.892z" />
<glyph unicode="&#xe901;" glyph-name="Asset-95mdpi" horiz-adv-x="1162" d="M332.108 517.189v442.811l-332.108-221.405 332.108-221.405zM747.243-64h-691.892v55.351h691.892c198.703 0 359.784 161.081 359.784 359.784s-161.081 359.784-359.784 359.784v0h-442.811v55.351h442.811c229.273 0 415.135-185.862 415.135-415.135s-185.862-415.135-415.135-415.135v0z" />
<glyph unicode="&#xe902;" glyph-name="Asset-139mdpi" d="M1024 491.886h-468.114v468.114h-87.771v-468.114h-468.114v-87.771h468.114v-468.114h87.771v468.114h468.114v87.771z" />
<glyph unicode="&#xe903;" glyph-name="Asset-135mdpi" d="M-0.121 904.158l55.892 55.892 968.324-968.324-55.892-55.892-968.324 968.324zM-0.121-8.554l968.324 968.324 55.892-55.892-968.324-968.324-55.892 55.892z" />
<glyph unicode="&#xe904;" glyph-name="arrow-downmdpi" horiz-adv-x="1859" d="M929.5 384.014l-116.164 116.164 11.806 11.806 104.357-104.357 104.357 104.357 11.806-11.806-116.164-116.164z" />
<glyph unicode="&#xe905;" glyph-name="arrow-upmdpi" horiz-adv-x="1859" d="M1764.595-64l-835.064 835.064-835.064-835.064-94.468 94.468 929.532 929.532 929.532-929.532-94.468-94.468z" />
<glyph unicode="&#xe906;" glyph-name="arrow-leftmdpi" horiz-adv-x="572" d="M512.142-64l-512.142 511.858 512.142 512.142 60.319-60.319-451.823-451.823 451.823-451.539-60.319-60.319z" />
<glyph unicode="&#xe907;" glyph-name="arrow-rightmdpi" horiz-adv-x="572" d="M60.319-64l-60.319 60.319 451.823 451.539-451.823 451.823 60.319 60.319 512.142-512.142-512.142-511.858z" />
<glyph unicode="&#xe908;" glyph-name="arrow-square-down-omdpi" horiz-adv-x="811" d="M254.452 445.545l-29.885-30.099 181.020-181.233 181.66 181.66-30.099 29.885-130.215-130.001v644.243h-42.693v-644.243zM512.32 746.533v-42.693h256.16v-725.787h-725.787v725.787h256.16v42.693h-298.853v-811.174h811.174v811.174z" />
<glyph unicode="&#xe909;" glyph-name="arrow-square-down_1mdpi" horiz-adv-x="811" d="M384.24 960h42.266v-213.253h-42.266v213.253zM426.507 746.96v-431.203l130.428 130.428 30.099-30.099-181.66-181.447-180.806 180.806 29.885 30.099 129.788-129.788v431.203h-384.24v-810.96h810.747v810.96h-384.24z" />
<glyph unicode="&#xe90a;" glyph-name="Asset-120mdpi" horiz-adv-x="1660" d="M828.376-31.502v959.642c0 0.046 0 0.1 0 0.154 0 17.596 14.264 31.861 31.861 31.861 6.524 0 12.59-1.961 17.64-5.325l-0.117 0.073 767.203-479.502c9.256-5.684 15.337-15.753 15.337-27.241s-6.080-21.556-15.199-27.162l-0.138-0.079-767.203-480.458c-4.941-3.304-11.019-5.274-17.556-5.274-17.596 0-31.861 14.264-31.861 31.861 0 0.51 0.012 1.017 0.036 1.522l-0.003-0.071zM0-31.502v959.642c0 0.046 0 0.1 0 0.154 0 17.596 14.264 31.861 31.861 31.861 6.524 0 12.59-1.961 17.64-5.325l-0.117 0.073 767.203-479.502c9.256-5.684 15.337-15.753 15.337-27.241s-6.080-21.556-15.199-27.162l-0.138-0.079-767.203-480.458c-4.941-3.304-11.019-5.274-17.556-5.274-17.596 0-31.861 14.264-31.861 31.861 0 0.51 0.012 1.017 0.036 1.522l-0.003-0.071z" />
<glyph unicode="&#xe90b;" glyph-name="Asset-119mdpi" horiz-adv-x="1660" d="M831.562-31.502v959.642c-0.030 17.573-14.283 31.808-31.861 31.808-6.39 0-12.341-1.881-17.328-5.12l0.124 0.075-767.203-479.502c-9.256-5.684-15.337-15.753-15.337-27.241s6.080-21.556 15.199-27.162l0.138-0.079 767.203-480.458c4.869-3.173 10.829-5.060 17.229-5.060 17.596 0 31.861 14.264 31.861 31.861 0 0.435-0.009 0.868-0.026 1.299l0.002-0.062zM1659.938-31.502v959.642c-0.030 17.573-14.283 31.808-31.861 31.808-6.39 0-12.341-1.881-17.328-5.12l0.124 0.075-767.203-479.502c-9.256-5.684-15.337-15.753-15.337-27.241s6.080-21.556 15.199-27.162l0.138-0.079 767.203-480.458c4.869-3.173 10.829-5.060 17.229-5.060 17.596 0 31.861 14.264 31.861 31.861 0 0.435-0.009 0.868-0.026 1.299l0.002-0.062z" />
<glyph unicode="&#xe90c;" glyph-name="Asset-121mdpi" horiz-adv-x="877" d="M0-41.791v979.317c0.048 12.375 10.091 22.389 22.473 22.389 4.191 0 8.114-1.147 11.473-3.145l-0.103 0.057 832.578-502.35c6.61-3.993 10.961-11.139 10.961-19.301s-4.351-15.308-10.861-19.244l-0.1-0.056-832.314-475.91c-3.371-2.17-7.486-3.459-11.904-3.459-12.088 0-21.92 9.657-22.203 21.676v0.026z" />
<glyph unicode="&#xe90d;" glyph-name="Asset-122mdpi" horiz-adv-x="877" d="M0-41.791v979.317c0.048 12.375 10.091 22.389 22.473 22.389 4.191 0 8.114-1.147 11.473-3.145l-0.103 0.057 832.578-502.35c6.61-3.993 10.961-11.139 10.961-19.301s-4.351-15.308-10.861-19.244l-0.1-0.056-832.314-475.91c-3.371-2.17-7.486-3.459-11.904-3.459-12.088 0-21.92 9.657-22.203 21.676v0.026z" />
<glyph unicode="&#xe90e;" glyph-name="plus-sign-circlemdpi" d="M512 960c-282.77 0-512-229.23-512-512s229.23-512 512-512c282.77 0 512 229.23 512 512v0c0 282.77-229.23 512-512 512v0zM768 424.727h-232.727v-232.727h-46.545v232.727h-232.727v46.545h232.727v232.727h46.545v-232.727h232.727z" />
<glyph unicode="&#xe90f;" glyph-name="plus-sign-curcle-omdpi" d="M512.233-64.466c-282.898 0-512.233 229.334-512.233 512.233s229.334 512.233 512.233 512.233c282.898 0 512.233-229.334 512.233-512.233v0c0-282.898-229.334-512.233-512.233-512.233v0zM512.233 913.433c-257.18 0-465.666-208.486-465.666-465.666s208.486-465.666 465.666-465.666c257.18 0 465.666 208.486 465.666 465.666v0c0 257.18-208.486 465.666-465.666 465.666v0zM768.116 471.283h-232.833v232.833h-46.567v-232.833h-232.833v-46.567h232.833v-232.833h46.567v232.833h232.833v46.567z" />
<glyph unicode="&#xe910;" glyph-name="Asset-1mdpi" horiz-adv-x="942" d="M470.306-41.389c43.324 0.135 78.672 34.095 81.028 76.848l0.009 0.209h-162.798c2.369-43.049 37.854-77.059 81.283-77.059 0.168 0 0.336 0.001 0.503 0.002h-0.026zM233.344 946.795c-4.607 7.946-13.073 13.205-22.767 13.205-0.009 0-0.018 0-0.027 0h0.001c-0.062 0.001-0.136 0.001-0.21 0.001-4.802 0-9.289-1.346-13.105-3.681l0.11 0.063c-7.975-4.6-13.257-13.081-13.257-22.796 0-4.937 1.364-9.556 3.736-13.499l-0.066 0.118 560.749-971.543c4.635-7.864 13.062-13.058 22.701-13.058 14.504 0 26.262 11.758 26.262 26.262 0 4.865-1.323 9.42-3.628 13.327l0.067-0.122zM80.856 113.631c107.628 82.144 176.486 210.347 176.907 354.65v143.512c0.181 20.24 4.489 39.426 12.121 56.824l-0.364-0.93-30.751 53.181c-20.531-30.551-33.005-68.023-33.643-108.369l-0.002-0.163v-143.443c-0.587-139.458-73.209-261.826-182.561-331.883l-1.582-0.948c-12.528-7.1-20.844-20.343-20.844-35.528 0-3.638 0.477-7.165 1.373-10.521l-0.065 0.284c4.895-17.048 20.348-29.311 38.664-29.311 0.27 0 0.54 0.003 0.809 0.008l-0.040-0.001h578.838l-30.389 52.638zM920.714 136.061c-110.785 70.91-183.359 193.039-184.142 332.172l-0.001 0.117v143.443c0 114.14-103.829 206.392-210.552 231.173v57.16c-4.151 26.205-26.58 46.001-53.633 46.001s-49.482-19.796-53.593-45.693l-0.040-0.308v-56.437c-19.829-4.519-37.094-10.362-53.532-17.723l1.798 0.72 26.229-45.583c22.731 9.71 49.14 15.579 76.858 16.096l0.2 0.003c96.594 0 213.085-82.846 213.085-185.409v-143.443c0.514-144.506 69.662-272.755 176.528-353.916l1.103-0.803h-83.208l30.389-52.638h92.614c0.377-0.013 0.82-0.020 1.264-0.020 18.287 0 33.706 12.279 38.462 29.042l0.068 0.282c0.821 3.047 1.293 6.545 1.293 10.153 0 15.294-8.473 28.608-20.981 35.506l-0.209 0.106z" />
<glyph unicode="&#xe911;" glyph-name="Asset-2mdpi" horiz-adv-x="942" d="M470.306-41.389c43.324 0.135 78.672 34.095 81.028 76.848l0.009 0.209h-162.798c2.369-43.049 37.854-77.059 81.283-77.059 0.168 0 0.336 0.001 0.503 0.002h-0.026zM233.344 946.795c-4.607 7.946-13.073 13.205-22.767 13.205-0.009 0-0.018 0-0.027 0h0.001c-0.062 0.001-0.136 0.001-0.21 0.001-4.802 0-9.289-1.346-13.105-3.681l0.11 0.063c-7.975-4.6-13.257-13.081-13.257-22.796 0-4.937 1.364-9.556 3.736-13.499l-0.066 0.118 560.749-971.543c4.635-7.864 13.062-13.058 22.701-13.058 14.504 0 26.262 11.758 26.262 26.262 0 4.865-1.323 9.42-3.628 13.327l0.067-0.122zM205.126 611.793v-143.443c-0.783-139.25-73.357-261.379-182.56-331.34l-1.583-0.949c-12.528-7.1-20.844-20.343-20.844-35.528 0-3.638 0.477-7.165 1.373-10.521l-0.065 0.284c4.895-17.048 20.348-29.311 38.664-29.311 0.27 0 0.54 0.003 0.809 0.008l-0.040-0.001h578.838l-380.948 659.875c-20.627-30.699-33.117-68.377-33.644-108.94l-0.001-0.135zM920.714 136.061c-110.785 70.91-183.359 193.039-184.142 332.172l-0.001 0.117v143.443c0 114.14-103.829 206.392-210.552 231.173v57.16c-4.151 26.205-26.58 46.001-53.633 46.001s-49.482-19.796-53.593-45.693l-0.040-0.308v-56.437c-19.829-4.519-37.094-10.362-53.532-17.723l1.798 0.72 441.906-765.694h91.89c0.377-0.013 0.82-0.020 1.264-0.020 18.287 0 33.706 12.279 38.462 29.042l0.068 0.282c0.821 3.047 1.293 6.545 1.293 10.153 0 15.294-8.473 28.608-20.981 35.506l-0.209 0.106z" />
<glyph unicode="&#xe912;" glyph-name="Asset-3mdpi" horiz-adv-x="1486" d="M574.953 613.711v150.561c0 0.024 0 0.051 0 0.079 0 10.35-6.098 19.275-14.898 23.38l-0.159 0.066c-3.121 1.606-6.784 2.627-10.664 2.821l-0.063 0.002c-6.502-0.035-12.432-2.453-16.968-6.425l0.030 0.026-96.359-84.314zM339.702 622.368h-178.226c-35.652 0-64.553-28.901-64.553-64.553v0-218.877c0-35.652 28.901-64.553 64.553-64.553v0h185.942l184.813-161.664c4.506-3.946 10.436-6.364 16.931-6.399h0.007c3.882 0.004 7.57 0.835 10.897 2.326l-0.169-0.068c8.953 4.117 15.057 13.008 15.057 23.325 0 0.070 0 0.141-0.001 0.211v-0.011 344.972zM1273.554 181.978l56.46-34.253c41.655 87.771 65.978 190.707 65.978 299.325 0 196.656-79.732 374.689-208.632 503.537l-0.002 0.002c-5.835 5.812-13.884 9.405-22.772 9.405-17.823 0-32.271-14.448-32.271-32.271 0-8.935 3.631-17.022 9.498-22.865l0.001-0.001c116.717-117.056 188.886-278.586 188.886-456.973 0-96.344-21.051-187.771-58.804-269.933l1.659 4.027zM1216.153 80.726c-23.366-33.386-48.104-62.664-75.231-89.535l-0.050-0.049c-5.868-5.845-9.499-13.931-9.499-22.866 0-17.823 14.448-32.271 32.271-32.271 8.888 0 16.937 3.593 22.773 9.406l-0.001-0.001c30.275 30.377 57.869 63.467 82.372 98.861l1.566 2.391zM1016.284 204.186c-19.985-32.15-42.174-60.024-67.192-85.071l0.004 0.004c-5.844-5.856-9.458-13.939-9.458-22.866s3.614-17.011 9.459-22.867l-0.001 0.001c5.825-5.833 13.877-9.442 22.772-9.442s16.947 3.609 22.772 9.442v0c28.542 28.352 53.888 59.86 75.487 93.974l1.299 2.196zM1085.353 447.906c0-0.063 0-0.138 0-0.213 0-48.802-7.43-95.869-21.221-140.13l0.895 3.333 56.46-35.005c18.107 51.283 28.58 110.422 28.607 172.004v0.012c0.001 0.347 0.001 0.758 0.001 1.168 0 145.975-59.355 278.087-155.246 373.519l-0.021 0.021c-5.835 5.812-13.884 9.405-22.772 9.405-17.823 0-32.271-14.448-32.271-32.271 0-8.935 3.631-17.022 9.498-22.865l0.001-0.001c84.059-83.771 136.071-199.653 136.071-327.684 0-0.454-0.001-0.908-0.002-1.361v0.070zM1453.662-30.124c-0.061 0-0.133-0.001-0.205-0.001-6.213 0-12 1.825-16.854 4.968l0.121-0.074-1421.48 878.709c-8.463 5.922-13.928 15.624-13.928 26.603 0 17.878 14.493 32.371 32.371 32.371 5.732 0 11.116-1.49 15.785-4.103l-0.164 0.084 1421.48-878.709c9.182-5.861 15.184-15.997 15.184-27.535 0-6.317-1.799-12.214-4.913-17.206l0.080 0.137c-5.769-9.21-15.862-15.244-27.364-15.244-0.040 0-0.079 0-0.119 0h0.006zM839.752 450.164l63.612-38.769c1.189 10.803 1.867 23.33 1.867 36.016 0 96.176-38.974 183.248-101.991 246.286l0.001-0.001c-5.828 5.828-13.879 9.433-22.772 9.433-17.786 0-32.205-14.419-32.205-32.205 0-8.893 3.605-16.944 9.433-22.772v0c50.334-50.884 81.578-120.741 82.055-197.895v-0.092zM813.78 329.528c-14.604-31.933-33.561-59.262-56.506-82.667l0.046 0.047c-5.833-5.825-9.442-13.877-9.442-22.772s3.609-16.947 9.442-22.772v0c5.782-5.926 13.848-9.601 22.772-9.601s16.99 3.675 22.766 9.595l0.006 0.006c26.779 26.717 49.195 57.793 66.096 92.074l0.903 2.026z" />
<glyph unicode="&#xe913;" glyph-name="Asset-4mdpi" horiz-adv-x="1298" d="M462.974 788.173c-3.277 1.545-7.119 2.447-11.171 2.447-0.042 0-0.085 0-0.127 0h0.007c-6.502-0.035-12.432-2.453-16.968-6.425l0.030 0.026-184.813-161.664h-185.378c0 0 0 0 0 0-35.652 0-64.553-28.901-64.553-64.553 0-0.066 0-0.132 0-0.199v0.010-218.877c0-35.652 28.901-64.553 64.553-64.553h185.942l184.813-161.664c4.506-3.946 10.436-6.364 16.931-6.399h0.007c3.882 0.004 7.57 0.835 10.897 2.326l-0.169-0.068c8.952 4.117 15.056 13.008 15.056 23.325 0 0.004 0 0.009 0 0.013v-0.001 632.731c0 0.024 0 0.051 0 0.079 0 10.35-6.098 19.275-14.898 23.38l-0.159 0.066zM1067.663-64c-17.777 0.132-32.138 14.574-32.138 32.37 0 8.881 3.577 16.927 9.368 22.776l-0.003-0.003c116.694 117.023 188.848 278.514 188.848 456.857s-72.154 339.834-188.863 456.872l0.015-0.015c-5.868 5.845-9.499 13.931-9.499 22.866 0 17.823 14.448 32.271 32.271 32.271 8.888 0 16.937-3.593 22.773-9.406l-0.001 0.001c128.472-128.693 207.919-306.364 207.919-502.59s-79.447-373.896-207.929-502.599l0.009 0.010c-5.822-5.814-13.861-9.41-22.74-9.41-0.011 0-0.022 0-0.034 0h0.002zM875.133 63.976c-0.102-0.001-0.223-0.002-0.344-0.002-8.781 0-16.721 3.601-22.424 9.407l-0.005 0.005c-5.844 5.856-9.458 13.939-9.458 22.866s3.614 17.011 9.459 22.867l-0.001-0.001c84.002 84.244 135.942 200.497 135.942 328.881s-51.94 244.637-135.953 328.892l0.011-0.011c-5.868 5.845-9.499 13.931-9.499 22.866 0 17.823 14.448 32.271 32.271 32.271 8.888 0 16.937-3.593 22.773-9.406l-0.001 0.001c95.781-95.913 155.014-228.346 155.014-374.613s-59.233-278.7-155.020-374.62l0.006 0.006c-5.707-5.811-13.647-9.412-22.429-9.412-0.121 0-0.242 0.001-0.362 0.002h0.018zM682.604 191.765c-0.024 0-0.053 0-0.082 0-8.898 0-16.937 3.675-22.682 9.591l-0.007 0.008c-5.833 5.825-9.442 13.877-9.442 22.772s3.609 16.947 9.442 22.772v0c51.377 51.504 83.146 122.588 83.146 201.092s-31.769 149.589-83.152 201.098l0.006-0.006c-5.828 5.828-9.433 13.879-9.433 22.772 0 17.786 14.419 32.205 32.205 32.205 8.893 0 16.944-3.605 22.772-9.433v0c63.135-63.113 102.186-150.315 102.186-246.637s-39.051-183.524-102.185-246.636l-0.001-0.001c-5.753-5.923-13.792-9.598-22.69-9.598-0.029 0-0.058 0-0.087 0h0.005z" />
<glyph unicode="&#xe914;" glyph-name="Asset-73mdpi" horiz-adv-x="1536" d="M768 185.173c-72.451 0.363-137.131 33.323-180.173 84.954l-0.307 0.379-71.253 85.333-352.853-419.84h1209.6l-353.28 416.853-70.827-85.333c-43.678-50.552-107.874-82.351-179.498-82.351-0.495 0-0.99 0.002-1.484 0.005h0.076zM160.853 960l518.827-612.693c21.423-25.162 53.126-41.019 88.533-41.019s67.11 15.856 88.397 40.855l0.136 0.164 518.827 612.693zM2.133 960h-2.133v-1024h4.693l432.64 510.293-435.2 513.707zM1536 960h-2.133l-434.773-513.707 432.213-510.293h4.693v1024z" />
<glyph unicode="&#xe915;" glyph-name="Asset-96mdpi" horiz-adv-x="908" d="M453.812-63.415c-250.31 0-453.227 202.917-453.227 453.227s202.917 453.227 453.227 453.227v0h16.082v-87.721h-16.082c-201.863 0-365.505-163.642-365.505-365.505s163.642-365.505 365.505-365.505v0c169.302 0 364.921 152.927 364.921 350.885h87.721c0-251.468-238.31-438.607-452.642-438.607zM761.128 784.557l-292.404-175.443v350.885l292.404-175.443z" />
<glyph unicode="&#xe916;" glyph-name="alarmmdpi" horiz-adv-x="1031" d="M515.713 858.301c-250.642 0-453.828-203.186-453.828-453.828 0-123.218 49.106-234.967 128.816-316.744l-0.094 0.097-122.74-122.74 29.293-29.086 123.771 123.771c78.808-67.719 182.083-108.948 294.988-108.948s216.18 41.23 295.591 109.454l-0.603-0.506 123.771-123.771 29.293 29.086-123.771 122.74c79.616 81.681 128.722 193.43 128.722 316.648 0 250.425-202.833 453.475-453.175 453.827h-0.034zM556.97 342.588h-247.542v41.257h206.285v330.056h41.257zM61.886 898.114c-38.321-38.335-62.023-91.288-62.023-149.776 0-43.56 13.147-84.050 35.689-117.717l-0.483 0.767 315.616 277.247c-36.949 32.161-85.565 51.766-138.76 51.766-58.619 0-111.678-23.808-150.034-62.282l-0.005-0.005zM969.541 898.114c-38.362 38.479-91.42 62.287-150.040 62.287-53.195 0-101.811-19.606-139.016-51.985l0.256 0.218 315.616-277.247c22.059 32.901 35.206 73.391 35.206 116.951 0 58.488-23.701 111.44-62.023 149.776l0.001-0.001z" />
<glyph unicode="&#xe917;" glyph-name="Asset-125mdpi" horiz-adv-x="1033" d="M557.644 321.188h-247.842v41.307h206.535v330.456h41.307v-371.763zM789.681 80.539l31.363 26.882 123.924-144.584-31.363-26.882-123.924 144.584zM516.337-50.575c-250.945 0-454.377 203.431-454.377 454.377s203.431 454.377 454.377 454.377c250.945 0 454.377-203.431 454.377-454.377v0c0-250.945-203.431-454.377-454.377-454.377v0zM516.337 816.871c-228.132 0-413.070-184.938-413.070-413.070s184.938-413.070 413.070-413.070c228.132 0 413.070 184.938 413.070 413.070v0c0 228.132-184.938 413.070-413.070 413.070v0zM87.582-37.15l123.924 144.584 31.363-26.882-123.924-144.584-31.363 26.882zM211.905 918.693c0.091 0 0.199 0 0.307 0 25.407 0 49.517-5.554 71.182-15.515l-1.061 0.437-233.591-206.535c-4.822 15.097-7.6 32.463-7.6 50.478 0 47.306 19.162 90.137 50.148 121.154l-0.001-0.001c30.748 30.876 73.294 49.982 120.303 49.982 0.11 0 0.22 0 0.331 0h-0.017zM211.905 960c-117.061-0.112-211.914-95.035-211.914-212.111 0-43.531 13.113-84 35.605-117.671l-0.485 0.772 315.998 277.583c-36.815 31.955-85.212 51.43-138.158 51.43-0.368 0-0.735-0.001-1.103-0.003h0.056zM820.77 918.693v0c0.093 0 0.203 0 0.313 0 47.009 0 89.555-19.106 120.297-49.976l0.006-0.006c30.869-30.996 49.953-73.749 49.953-120.959 0-17.782-2.708-34.932-7.733-51.060l0.326 1.214-233.591 206.535c20.11 9.014 43.587 14.264 68.289 14.264 0.752 0 1.503-0.005 2.253-0.015l-0.114 0.001zM820.77 960c-0.311 0.002-0.679 0.003-1.046 0.003-52.946 0-101.343-19.475-138.419-51.652l0.261 0.222 315.998-277.583c22.007 32.899 35.12 73.368 35.12 116.899 0 117.076-94.853 211.999-211.903 212.111h-0.011z" />
<glyph unicode="&#xe918;" glyph-name="add-newmdpi" horiz-adv-x="1021" d="M826.027 131.048h-826.027v828.952h826.027zM48.762 179.81h728.503v731.429h-728.503zM387.17 764.952h48.762v-438.857h-48.762v438.857zM192.122 569.905h438.857v-48.762h-438.857v48.762zM1021.074-64h-828.952v97.524h48.762v-48.762h731.429v731.429h-48.762v48.762h97.524v-828.952z" />
<glyph unicode="&#xe919;" glyph-name="albummdpi" horiz-adv-x="1170" d="M188.082 960h794.122v-41.796h-794.122v41.796zM104.49 876.408h961.306v-41.796h-961.306v41.796zM0 792.816h1170.286v-856.816h-1170.286v856.816z" />
<glyph unicode="&#xe91a;" glyph-name="album-omdpi" horiz-adv-x="1170" d="M188.082 960h794.122v-41.796h-794.122v41.796zM104.49 876.408h961.306v-41.796h-961.306v41.796zM1170.286-64h-1170.286v856.816h1170.286zM41.796-22.204h1086.694v773.224h-1086.694z" />
<glyph unicode="&#xe91b;" horiz-adv-x="832" d="M0 789.333h832v-853.333h-832v853.333z" />
<glyph unicode="&#xe91c;" horiz-adv-x="832" d="M610.133 610.133c0 0.022 0 0.049 0 0.075 0 5.773-4.68 10.453-10.453 10.453-1.144 0-2.244-0.184-3.274-0.523l0.074 0.021c-55.467-12.373-147.2-22.613-175.36-33.493-14.72-5.76-23.68-7.893-23.68-23.68s1.707-253.44 1.707-271.36c0-26.453-16.213-30.293-80.427-36.267-42.667-4.053-75.947-32.427-75.947-72.107s15.573-71.893 71.040-71.893c76.373 0 112.853 53.76 112.853 98.773v201.813c0 15.787 0 21.333 23.68 31.787 33.28 13.44 112.427 23.68 152.533 37.973 3.981 1.226 6.891 4.71 7.251 8.922l0.003 0.038z" />
<glyph unicode="&#xe91d;" horiz-adv-x="832" d="M42.667 874.667h746.667v-42.667h-746.667v42.667z" />
<glyph unicode="&#xe91e;" horiz-adv-x="832" d="M85.333 960h661.333v-42.667h-661.333v42.667z" />
<glyph unicode="&#xe91f;" glyph-name="Asset-103mdpi" d="M1024 413.867h-1024v546.133h1024zM68.267 482.133h887.467v409.6h-887.467zM0 243.2h1024v-68.267h-1024v68.267zM0 4.267h1024v-68.267h-1024v68.267z" />
<glyph unicode="&#xe920;" glyph-name="Asset-110mdpi" d="M459.636 404.945c-26.298 26.298-203.636 299.055-203.636 299.055s272.756-177.338 299.287-203.636c12.19-12.219 19.728-29.084 19.728-47.709 0-37.309-30.245-67.553-67.553-67.553-18.683 0-35.595 7.585-47.824 19.843l-0.001 0.001zM512-64c-0.051 0-0.11 0-0.17 0-282.77 0-512 229.23-512 512 0 141.427 57.342 269.462 150.045 362.122l0.002 0.002 33.047-32.815c-84.582-84.289-136.918-200.89-136.918-329.714 0-257.063 208.391-465.455 465.455-465.455s465.455 208.391 465.455 465.455c0 240.48-182.372 438.365-416.356 462.896l-2.014 0.171v-229.935h-46.545v279.273l24.436-1.164c268.057-18.022 478.665-239.873 478.665-510.914 0-279.641-224.186-506.921-502.634-511.916l-0.468-0.007z" />
<glyph unicode="&#xe921;" glyph-name="Asset-111mdpi" horiz-adv-x="630" d="M627.528 524.931c-4.311 8.9-13.262 14.936-23.627 14.966h-277.272l143.623 383.081c1.493 3.030 2.366 6.597 2.366 10.367 0 0.14-0.001 0.279-0.004 0.419v-0.021c0 14.501-11.755 26.256-26.256 26.256v0 0c-4.612-0.192-8.851-1.635-12.432-3.995l0.092 0.057c-2.28-1.415-4.258-2.975-6.044-4.731l0.005 0.005-420.103-498.872c-3.896-4.553-6.266-10.511-6.266-17.023 0-3.917 0.858-7.633 2.395-10.972l-0.067 0.163c3.834-8.955 12.256-15.269 22.231-16.011l0.087-0.005h252.324l-145.986-437.957c-0.881-2.515-1.391-5.414-1.391-8.431 0-9.91 5.491-18.538 13.596-23.008l0.135-0.068c3.606-1.984 7.902-3.151 12.472-3.151 0.046 0 0.092 0 0.138 0h-0.007c0.027 0 0.058 0 0.089 0 8.209 0 15.539 3.767 20.353 9.668l0.037 0.047 446.359 551.385c3.59 4.453 5.763 10.18 5.763 16.414 0 4.153-0.964 8.081-2.681 11.572l0.069-0.154z" />
<glyph unicode="&#xe922;" glyph-name="Asset-112mdpi" horiz-adv-x="999" d="M959.624-64c-0.022 0-0.048 0-0.074 0-10.814 0-20.6 4.402-27.663 11.512l-920.372 920.372c-6.528 6.991-10.535 16.408-10.535 26.76 0 21.679 17.575 39.254 39.254 39.254 10.353 0 19.769-4.008 26.783-10.556l-0.023 0.021 920.37-920.108c7.032-7.13 11.375-16.929 11.375-27.741 0-21.683-17.464-39.287-39.093-39.513h-0.021zM273.206 550.452l-81.648-97.088c-3.78-4.506-6.076-10.368-6.076-16.765 0-3.981 0.889-7.755 2.48-11.134l-0.068 0.16c4.226-8.977 13.165-15.097 23.542-15.178h202.037zM691.128 354.707l116.453 143.93c3.78 4.506 6.076 10.368 6.076 16.765 0 3.981-0.889 7.755-2.48 11.134l0.068-0.16c-4.307 8.893-13.263 14.917-23.627 14.917-0.066 0-0.132 0-0.197-0.001h-276.337l143.145 381.808c1.421 3.155 2.28 6.832 2.355 10.702v0.027c0 14.453-11.716 26.169-26.169 26.169v0h-2.355c-4.591-0.282-8.797-1.706-12.407-3.989l0.107 0.063c-2.2-1.341-4.093-2.902-5.74-4.692l-0.017-0.019-235.261-279.225zM450.633 373.287l-133.201-399.342c-0.878-2.506-1.386-5.396-1.386-8.403 0-9.877 5.472-18.477 13.55-22.931l0.135-0.068c3.594-1.977 7.876-3.141 12.43-3.141 0.046 0 0.092 0 0.138 0h-0.007c0.026 0 0.058 0 0.089 0 8.182 0 15.487 3.755 20.286 9.636l0.037 0.047 228.98 282.889z" />
<glyph unicode="&#xe923;" glyph-name="Asset-113mdpi" horiz-adv-x="1329" d="M295.069 201.066v195.147h-226.715v-195.147h-68.354v441.168h68.354v-186.538h226.715v186.538h68.354v-441.168zM1062.873 201.066h-68.354v441.168h173.232c90.79 0 147.404-52.178 147.404-134.881 0.098-1.863 0.154-4.044 0.154-6.239 0-55.274-35.441-102.269-84.839-119.502l-0.888-0.27 99.139-180.276h-78.268l-89.747 169.58h-97.834zM1062.873 425.955h98.617c2.788-0.372 6.011-0.584 9.284-0.584 40.921 0 74.093 33.173 74.093 74.093 0 1.674-0.056 3.335-0.165 4.982l0.012-0.223c0 49.048-32.351 78.268-85.051 78.268h-96.791zM737.019 280.116c-21.855-12.508-48.038-19.883-75.943-19.883-1.46 0-2.915 0.020-4.365 0.060l0.213-0.005h-82.964v182.624l-68.354 68.354v-310.2h158.1c2.018-0.066 4.391-0.103 6.773-0.103 42.207 0 81.664 11.778 115.263 32.226l-0.981-0.555zM655.621 583.011h1.304c88.703 0 139.316-52.178 144.534-145.838l66.788-66.527c2.494 15.114 3.919 32.532 3.919 50.283 0 0.666-0.002 1.332-0.006 1.997v-0.102c0 139.055-78.268 219.932-208.713 219.932h-66.788zM1152.881-64c-10.797 0.040-20.564 4.418-27.656 11.481l-945.731 945.731c-6.508 6.97-10.503 16.357-10.503 26.678 0 21.613 17.521 39.134 39.134 39.134 10.321 0 19.709-3.995 26.701-10.524l-0.023 0.021 945.732-945.732c7.135-7.051 11.554-16.837 11.554-27.655s-4.419-20.604-11.55-27.651l-0.004-0.004c-7.090-7.061-16.857-11.439-27.647-11.479h-0.008z" />
<glyph unicode="&#xe924;" horiz-adv-x="1073" d="M1072.762 265.143c0-181.781-147.362-329.143-329.143-329.143s-329.143 147.362-329.143 329.143c0 181.781 147.362 329.143 329.143 329.143s329.143-147.362 329.143-329.143z" />
<glyph unicode="&#xe925;" horiz-adv-x="1073" d="M658.286 265.143c0-181.781-147.362-329.143-329.143-329.143s-329.143 147.362-329.143 329.143c0 181.781 147.362 329.143 329.143 329.143s329.143-147.362 329.143-329.143z" />
<glyph unicode="&#xe926;" horiz-adv-x="1073" d="M865.524 630.857c0-181.781-147.362-329.143-329.143-329.143s-329.143 147.362-329.143 329.143c0 181.781 147.362 329.143 329.143 329.143s329.143-147.362 329.143-329.143z" />
<glyph unicode="&#xe927;" glyph-name="Asset-115mdpi" horiz-adv-x="1653" d="M0 802.462h157.538v157.538h-157.538zM315.077 920.615v-78.769h1339.077v78.769zM0 369.231h157.538v157.538h-157.538zM315.077 408.615h1339.077v78.769h-1339.077zM0-64h157.538v157.538h-157.538zM315.077-24.615h1339.077v78.769h-1339.077z" />
<glyph unicode="&#xe928;" glyph-name="Asset-116mdpi" horiz-adv-x="1201" d="M1114.908-64h-1027.716c-46.982 0.941-84.821 38.78-85.761 85.673l-0.001 0.089v851.046c0.151 47.594 38.287 86.231 85.672 87.19l0.090 0.001h264.433c27.809-0.024 52.517-13.279 68.171-33.81l0.153-0.209 53.458-71.468c5.264-6.791 13.416-11.126 22.58-11.149h618.921c47.475-0.96 85.611-39.597 85.762-87.177v-732.995c-0.151-47.594-38.287-86.231-85.672-87.19l-0.090-0.001zM87.192 902.825c-15.788 0-28.587-12.799-28.587-28.587v0-851.046c0-15.788 12.799-28.587 28.587-28.587v0h1027.716c15.788 0 28.587 12.799 28.587 28.587v0 732.98c0 15.788-12.799 28.587-28.587 28.587v0h-618.917c-27.602 0.762-51.855 14.451-67.011 35.205l-0.169 0.243-53.744 71.468c-5.278 6.815-13.462 11.16-22.661 11.16-0.275 0-0.548-0.004-0.821-0.012l0.040 0.001zM1200.67 559.777h-57.175c0 31.577-25.598 57.175-57.175 57.175v0h-971.971c-31.577 0-57.175-25.598-57.175-57.175v0h-57.175c0 63.153 51.196 114.35 114.35 114.35v0h971.971c63.153 0 114.35-51.196 114.35-114.35v0z" />
<glyph unicode="&#xe929;" glyph-name="Asset-117mdpi" horiz-adv-x="1338" d="M591.131 856.015v-218.45h53.739c205.284 0 374.293-66.637 489.295-192.655 89.428-100.687 145.369-232.875 149.377-378.041l0.018-0.82c-125.212 206.090-330.765 302.82-638.69 302.82h-53.739v-218.45l-498.162 352.798 498.162 352.798zM644.87 960l-644.87-456.783 644.87-456.783v268.696c295.565 0 516.971-87.864 636.809-362.202 4.045-10.038 13.705-16.994 24.989-16.994 0.662 0 1.318 0.024 1.968 0.071l-0.087-0.005c0.048 0 0.106 0 0.163 0 13.799 0 25.168 10.401 26.695 23.791l0.011 0.124c34.93 382.086-206.896 731.39-690.548 731.39v268.696z" />
<glyph unicode="&#xe92a;" glyph-name="Asset-118mdpi" horiz-adv-x="845" d="M51.2-64h-51.2v988.672l14.080 6.912c43.618 18.227 94.298 28.815 147.452 28.815 6.214 0 12.394-0.145 18.538-0.431l-0.869 0.032c76.716-2.421 149.335-16.667 217.166-40.969l-4.942 1.545c58.438-21.382 125.939-34.872 196.242-37.344l1.134-0.032c142.592 0 215.552 46.592 216.32 47.104l39.68 25.6v-544l-7.424-7.68c-6.144-5.888-63.488-58.624-222.976-58.624-88.277 3.823-171.61 18.806-250.603 43.592l6.891-1.864c-56.367 18.361-121.682 30.883-189.274 34.965l-2.214 0.107c-5.92 0.327-12.849 0.514-19.821 0.514-38.562 0-75.79-5.707-110.887-16.322l2.708 0.704zM179.2 473.6c74.476-3.99 144.396-17.089 210.723-38.239l-5.923 1.631c68.063-21.756 146.788-36.162 228.258-40.109l2.142-0.083c107.52 0 160.768 25.6 179.2 38.4v432.64c-57.546-22.756-124.208-35.949-193.952-35.949-3.814 0-7.62 0.039-11.415 0.118l0.568-0.009c-76.716 2.421-149.335 16.667-217.166 40.969l4.942-1.545c-58.438 21.382-125.939 34.872-196.242 37.344l-1.134 0.032c-2.592 0.059-5.645 0.093-8.707 0.093-42.56 0-83.603-6.491-122.195-18.537l2.902 0.781v-430.336c34.352 8.251 73.792 12.983 114.337 12.983 4.804 0 9.593-0.066 14.366-0.198l-0.703 0.015z" />
<glyph unicode="&#xe92b;" glyph-name="apple-watchmdpi" horiz-adv-x="811" d="M604.16 620.587c-4.289 4.954-10.586 8.069-17.611 8.069-5.745 0-11.004-2.084-15.062-5.536l0.033 0.027-198.613-168.96-134.4 105.6c-3.802 2.817-8.584 4.51-13.762 4.51-12.842 0-23.253-10.411-23.253-23.253 0-7.093 3.176-13.444 8.183-17.709l0.033-0.027 164.267-129.707 227.84 193.92c4.994 4.253 8.141 10.546 8.141 17.575 0 5.873-2.197 11.233-5.815 15.302l0.020-0.023zM597.333 960h-448c-23.564 0-42.667-19.103-42.667-42.667v0h533.333c0 23.564-19.103 42.667-42.667 42.667v0zM149.333-64h448c23.564 0 42.667 19.103 42.667 42.667v0h-533.333c0-23.564 19.103-42.667 42.667-42.667v0zM746.667 661.333v85.333c0 70.692-57.308 128-128 128v0h-490.667c-70.692 0-128-57.308-128-128v0-597.333c0-70.692 57.308-128 128-128v0h490.667c70.692 0 128 57.308 128 128v0 320c35.346 0 64 28.654 64 64v0 64c0 35.346-28.654 64-64 64v0zM704 149.333c0-47.128-38.205-85.333-85.333-85.333v0h-490.667c-47.128 0-85.333 38.205-85.333 85.333v0 597.333c0 47.128 38.205 85.333 85.333 85.333v0h490.667c47.128 0 85.333-38.205 85.333-85.333v0z" />
<glyph unicode="&#xe92c;" glyph-name="apple-storemdpi" d="M446.259 468.48l-36.659-61.44h213.606l-37.478 61.44zM496.435 606.925c2.023 3.422 3.218 7.541 3.218 11.939 0 8.64-4.612 16.202-11.508 20.36l-0.107 0.060-20.48 12.288c-3.422 2.023-7.541 3.218-11.939 3.218-8.64 0-16.202-4.612-20.36-11.508l-0.060-0.107-20.48-35.635 61.44-36.045zM409.6 598.323l-145.203-263.987 61.44-36.045 145.203 263.782zM315.597 468.48h-110.797v-61.44h73.728zM226.918 208.179c-0.144-0.421-0.226-0.906-0.226-1.41 0-1.668 0.906-3.124 2.253-3.903l0.022-0.012c0.795-0.577 1.791-0.923 2.867-0.923s2.072 0.346 2.881 0.933l-0.014-0.010 83.558 81.92-61.44 36.045zM738.918 355.226c-9.83-5.53-24.371-14.131-32.973-19.251-15.974-9.421-3.686-37.478 0-43.622 20.48-34.816 40.96-30.106 58.368-54.477 4.167-7.080 7.482-15.283 9.509-23.981l0.117-0.595c0.57-1.015 1.64-1.69 2.867-1.69s2.297 0.675 2.859 1.674l0.009 0.016c10.169 17.164 16.179 37.832 16.179 59.904s-6.010 42.74-16.482 60.457l0.303-0.553c-9.626 12.493-24.781 31.539-41.165 22.118zM751.206 406.63h67.994v61.85h-105.267zM712.704 433.459l-59.802-35.021 34.611-59.597 60.006 34.816zM542.72 726.323c-4.218 7.003-11.78 11.615-20.419 11.615-4.398 0-8.517-1.195-12.050-3.278l0.111 0.060-19.046-11.264c-7.115-4.091-11.83-11.649-11.83-20.308 0-4.368 1.199-8.456 3.287-11.952l-0.059 0.107 163.84-281.395 60.006 34.816zM512 960c-282.77 0-512-229.23-512-512s229.23-512 512-512c282.77 0 512 229.23 512 512v0c0 282.77-229.23 512-512 512v0zM512-23.040c-260.148 0-471.040 210.892-471.040 471.040s210.892 471.040 471.040 471.040c260.148 0 471.040-210.892 471.040-471.040v0c0-260.148-210.892-471.040-471.040-471.040v0z" />
<glyph unicode="&#xe92d;" glyph-name="Asset-123mdpi" horiz-adv-x="658" d="M182.914 960h-146.437c-20.146 0-36.477-16.331-36.477-36.477v0-951.575c-0.001-0.079-0.001-0.171-0.001-0.264 0-20.146 16.331-36.477 36.477-36.477 0 0 0.001 0 0.001 0h146.437c0.005 0 0.010 0 0.015 0 20.146 0 36.477 16.331 36.477 36.477 0 0.372-0.006 0.742-0.017 1.111l0.001-0.054v951.575c-0.444 19.802-16.602 35.684-36.468 35.684-0.003 0-0.006 0-0.009 0h0.001zM621.695 960h-145.908c-0.157 0.002-0.343 0.004-0.529 0.004-20.146 0-36.477-16.331-36.477-36.477 0-0.001 0-0.003 0-0.004v0-951.575c0.296-19.919 16.512-35.952 36.473-35.952 0.187 0 0.374 0.001 0.561 0.004h146.409c0 0 0.001 0 0.001 0 20.146 0 36.477 16.331 36.477 36.477 0 0.093 0 0.186-0.001 0.279v-0.014 951.575c-0.442 19.803-16.6 35.688-36.468 35.688-0.189 0-0.377-0.001-0.566-0.004h0.028z" />
<glyph unicode="&#xe92e;" glyph-name="Asset-124mdpi" horiz-adv-x="381" d="M190.739 960c-105.342 0-190.739-85.397-190.739-190.739s85.397-190.739 190.739-190.739c105.342 0 190.739 85.397 190.739 190.739v0c0 105.342-85.397 190.739-190.739 190.739v0zM129.605 807.164c-16.882 0-30.567 13.685-30.567 30.567s13.685 30.567 30.567 30.567c16.882 0 30.567-13.685 30.567-30.567v0c0-16.882-13.685-30.567-30.567-30.567v0zM144.888 12.418c0-25.371 20.48-76.418 45.851-76.418s45.851 51.047 45.851 76.418v519.642h-91.701z" />
<glyph unicode="&#xe92f;" glyph-name="Asset-126mdpi" horiz-adv-x="1037" d="M677.676-64h-10.309c-237.837 14.236-649.941 533.108-667.367 555.689l38.535 30.435c4.173-5.154 415.785-524.027 631.778-536.79 2.563-0.28 5.535-0.44 8.545-0.44 23.28 0 44.328 9.561 59.43 24.971l0.014 0.014c87.87 87.87-84.924 294.535-199.302 430.267l-23.563 26.508c-109.223 130.823-167.394 232.437-96.706 303.126 66.27 66.27 206.911-24.545 280.054-98.178 47.536-49.693 98.609-95.085 153.145-136.123l3.204-2.309c43.198-30.435 100.633-60.871 128.123-33.381s-75.106 163.958-124.196 229.001l-24.545 33.381c-46.635 62.098-52.771 140.15-13.745 177.948 12.763 12.272 60.871 47.371 147.267-21.354l-31.417-38.29c-36.326 28.963-67.743 38.29-81.979 24.545-18.163-17.427-14.972-68.234 18.899-113.151l24.545-32.89c83.942-109.96 179.175-234.646 120.023-294.535-41.235-41.235-105.542-31.663-190.957 27.981-60.089 45.093-113.243 92.254-162.299 143.379l-0.432 0.453c-79.524 79.524-181.875 127.141-210.838 98.178s-34.608-75.597 99.651-236.855l23.072-27.49c133.277-159.049 316.134-376.759 196.357-496.537-23.416-23.242-55.673-37.606-91.285-37.606-1.302 0-2.6 0.019-3.892 0.057l0.19-0.004z" />
<glyph unicode="&#xe930;" glyph-name="Asset-127mdpi" d="M512-64c-282.77 0-512 229.23-512 512s229.23 512 512 512c282.77 0 512-229.23 512-512v0c0-282.77-229.23-512-512-512v0zM512 917.333c-259.206 0-469.333-210.128-469.333-469.333s210.128-469.333 469.333-469.333c259.206 0 469.333 210.128 469.333 469.333v0c0 259.206-210.128 469.333-469.333 469.333v0zM405.333 247.253l-164.48 164.267 30.293 30.293 134.187-134.4 326.187 326.4 30.293-30.293-356.48-356.267z" />
<glyph unicode="&#xe931;" glyph-name="Asset-128mdpi" horiz-adv-x="632" d="M120.471 899.765c0-33.267-26.968-60.235-60.235-60.235s-60.235 26.968-60.235 60.235c0 33.267 26.968 60.235 60.235 60.235s60.235-26.968 60.235-60.235zM632.471-3.765c0-33.267-26.968-60.235-60.235-60.235s-60.235 26.968-60.235 60.235c0 33.267 26.968 60.235 60.235 60.235s60.235-26.968 60.235-60.235zM572.235 176.941h-527.059v677.647h30.118v-647.529h496.941v-30.118zM587.294 41.412h-30.118v647.529h-496.941v30.118h527.059v-677.647z" />
<glyph unicode="&#xe932;" glyph-name="Asset-130mdpi" d="M512.197-64.394c-282.879 0-512.197 229.318-512.197 512.197s229.318 512.197 512.197 512.197c282.879 0 512.197-229.318 512.197-512.197v0c0-282.879-229.318-512.197-512.197-512.197v0zM512.197 920.6c-261.119 0-472.797-211.679-472.797-472.797s211.679-472.797 472.797-472.797c261.119 0 472.797 211.679 472.797 472.797v0c0 261.119-211.679 472.797-472.797 472.797v0zM354.401 605.599h315.198v-315.198h-315.198v315.198z" />
<glyph unicode="&#xe933;" glyph-name="Asset-131mdpi" d="M512.197-64.394c-282.879 0-512.197 229.318-512.197 512.197s229.318 512.197 512.197 512.197c282.879 0 512.197-229.318 512.197-512.197v0c0-282.879-229.318-512.197-512.197-512.197v0zM512.197 920.6c-261.119 0-472.797-211.679-472.797-472.797s211.679-472.797 472.797-472.797c261.119 0 472.797 211.679 472.797 472.797v0c0 261.119-211.679 472.797-472.797 472.797v0zM354.401 605.599h98.499v-315.198h-98.499v315.198zM531.7 605.599h98.499v-315.198h-98.499v315.198z" />
<glyph unicode="&#xe934;" glyph-name="Asset-132mdpi" horiz-adv-x="734" d="M734.050-64h-734.050v734.050h270.44v-38.634h-231.805v-656.782h656.782v656.782h-231.805v38.634h270.44v-734.050zM347.708 921.173h38.634v-637.465h-38.634v637.465zM504.37 768.181l-137.345 137.151-136.572-136.572-27.43 27.237 164.002 164.002 164.582-164.582-27.237-27.237z" />
<glyph unicode="&#xe935;" glyph-name="Asset-133mdpi" horiz-adv-x="1068" d="M533.333-64h-21.333v22.613c-8.96 21.333-73.173 126.72-192 126.72-112.64 0-189.653-52.053-251.733-93.867l-13.867-9.173c-6.21-5.499-14.427-8.857-23.428-8.857-5.601 0-10.899 1.3-15.607 3.616l0.208-0.092c-17.067 10.027-15.573 32.853-15.573 53.12 0 4.267 0 8.533 0 12.587v746.667c0 94.080 120.96 170.667 268.8 170.667 138.027 0 285.867-82.773 285.867-264.747v-731.093c0.125-0.833 0.197-1.795 0.197-2.773s-0.072-1.94-0.21-2.88l0.013 0.107v-21.333zM268.8 917.333c-122.24 0-226.133-58.667-226.133-128v-746.667c0-4.693 0-9.6 0-14.72v-2.56l2.347 1.493c64 42.667 149.333 101.12 275.627 101.12 77.197-1.137 145.89-36.587 191.663-91.742l0.337-0.418v659.413c-0.64 175.36-153.173 222.080-243.84 222.080zM554.667-64h-42.667v22.613c-0.083 0.831-0.131 1.797-0.131 2.773s0.048 1.942 0.14 2.894l-0.010-0.121v731.093c0 181.973 149.333 264.747 287.573 264.747 147.627 0 267.093-76.587 267.093-170.667v-746.667c0-4.053 0-8.32 0-12.587 0-20.267 1.92-42.667-16-53.12-4.511-2.166-9.807-3.431-15.399-3.431-9.054 0-17.333 3.318-23.688 8.804l0.047-0.039-13.653 9.173c-62.080 42.667-139.307 93.867-251.733 93.867-118.827 0-183.040-104.747-192-126.72zM746.667 128c125.44 0 213.333-58.453 275.413-101.12l2.347-1.493v2.56c0 5.12 0 10.027 0 14.72v746.667c0 69.333-103.253 128-225.28 128-90.24 0-244.48-46.72-244.48-222.080v-659.413c46.161 55.506 114.823 90.93 191.792 92.157l0.208 0.003z" />
<glyph unicode="&#xe936;" glyph-name="Asset-134mdpi" d="M794.122-64h-794.122v794.122h794.122zM41.796-22.204h710.531v710.531h-710.531zM1024 165.878h-188.082v41.796h146.286v710.531h-710.531v-146.286h-41.796v188.082h794.122v-794.122z" />
<glyph unicode="&#xe937;" glyph-name="Asset-136mdpi" horiz-adv-x="1077" d="M606.911-64v554.392h-606.911l1077.461 469.608zM224.206 536.081h429.336v-386.473l329.715 718.543z" />
<glyph unicode="&#xe938;" glyph-name="Asset-137mdpi" horiz-adv-x="1056" d="M853.333 269.206h-223.492v40.635h223.492c2.579-0.146 5.597-0.229 8.635-0.229 89.895 0 162.769 72.874 162.769 162.769 0 86.857-68.033 157.825-153.717 162.521l-0.417 0.018-20.317 2.032 3.048 18.286c0 6.502 0 13.003 0 20.317 0 0.177 0.001 0.387 0.001 0.597 0 134.652-109.157 243.81-243.81 243.81-102.388 0-190.036-63.114-226.159-152.56l-0.584-1.637-9.346-23.365-20.317 14.019c-19.25 13.312-43.092 21.264-68.791 21.264-65.444 0-118.843-51.569-121.778-116.288l-0.010-0.264v-13.003l-12.19-4.673c-64.478-26.086-109.136-88.185-109.136-160.714 0-95.145 76.851-172.34 171.864-172.899h213.59v-40.635h-213.537c-117.646 0.083-212.984 95.473-212.984 213.13 0 85.060 49.828 158.481 121.888 192.667l1.293 0.552c10.503 80.541 78.687 142.097 161.249 142.097 25.509 0 49.646-5.876 71.13-16.349l-0.963 0.424c47.607 94.376 143.767 157.972 254.781 157.972 156.989 0 284.273-127.179 284.444-284.127v-4.283c93.018-19.871 161.763-101.362 161.763-198.909 0-111.937-90.522-202.731-202.355-203.173h-0.042zM507.937 594.489h40.229v-609.524h-40.229v609.524zM528.051-64l-176.762 176.965 28.444 28.444 148.317-148.317 148.317 148.317 28.444-28.444-176.762-176.965z" />
<glyph unicode="&#xe939;" glyph-name="Asset-138mdpi" horiz-adv-x="4608" d="M1024 448c0-282.77-229.23-512-512-512s-512 229.23-512 512c0 282.77 229.23 512 512 512s512-229.23 512-512zM2816 448c0-282.77-229.23-512-512-512s-512 229.23-512 512c0 282.77 229.23 512 512 512s512-229.23 512-512zM4608 448c0-282.77-229.23-512-512-512s-512 229.23-512 512c0 282.77 229.23 512 512 512s512-229.23 512-512z" />
<glyph unicode="&#xe93a;" glyph-name="attechmdpi" horiz-adv-x="962" d="M269.702-64c-0.026 0-0.057 0-0.087 0-69.661 0-132.722 28.252-178.352 73.924l-21.925 21.925c-42.297 42.455-68.448 101.021-68.448 165.696s26.151 123.241 68.455 165.703l-0.007-0.007 540.168 541.443c34.102 34.159 81.244 55.291 133.321 55.291s99.219-21.132 133.319-55.288l36.456-36.456c30.341-30.429 49.102-72.419 49.102-118.791s-18.761-88.362-49.106-118.795l-557.499-557.499c-25.632-25.55-60.999-41.347-100.055-41.347s-74.423 15.797-100.058 41.351l-15.546 15.546c-24.108 24.2-39.012 57.583-39.012 94.447s14.905 70.247 39.016 94.451l370.39 370.645 35.943-35.943-370.139-370.904c-14.992-14.916-24.271-35.562-24.271-58.376s9.278-43.46 24.267-58.372l15.298-15.298c16.377-16.161 38.888-26.142 63.729-26.142s47.352 9.981 63.739 26.152l-0.010-0.010 558.267 557.503c21.043 21.228 34.045 50.456 34.045 82.72s-13.003 61.492-34.054 82.729l0.008-0.008-35.433 36.453c-24.833 24.906-59.179 40.316-97.123 40.316s-72.29-15.41-97.12-40.313l-0.003-0.003-542.208-540.678c-33.226-33.293-53.772-79.251-53.772-130.007s20.546-96.715 53.775-130.011l22.175-22.175c36.535-36.531 87.005-59.126 142.753-59.126s106.218 22.595 142.754 59.126l350.51 350.51 35.943-35.943-350.51-350.51c-45.477-45.668-108.404-73.927-177.932-73.927-0.269 0-0.537 0-0.806 0.001h0.042z" />
<glyph unicode="&#xe93b;" glyph-name="bedmdpi" horiz-adv-x="1380" d="M1313.391-64c-36.883 0-66.783 29.9-66.783 66.783v0 66.783h-1113.043v-66.783c0-36.883-29.9-66.783-66.783-66.783s-66.783 29.9-66.783 66.783v0 534.261c0 36.883 29.9 66.783 66.783 66.783s66.783-29.9 66.783-66.783v0-22.261h1113.043v22.261c0 36.883 29.9 66.783 66.783 66.783s66.783-29.9 66.783-66.783v0-534.261c0-36.883-29.9-66.783-66.783-66.783v0zM1179.826 960h-979.478c-36.883 0-66.783-29.9-66.783-66.783v0-333.913h111.304v44.522c0 36.883 29.9 66.783 66.783 66.783v0h267.13c36.883 0 66.783-29.9 66.783-66.783v0-44.522h89.043v44.522c0 36.883 29.9 66.783 66.783 66.783v0h267.13c36.883 0 66.783-29.9 66.783-66.783v0-44.522h111.304v333.913c0 36.883-29.9 66.783-66.783 66.783v0z" />
<glyph unicode="&#xe93c;" glyph-name="bed-omdpi" horiz-adv-x="1380" d="M1313.391-64c-36.883 0-66.783 29.9-66.783 66.783v0 66.783h-1113.043v-66.783c0-36.883-29.9-66.783-66.783-66.783s-66.783 29.9-66.783 66.783v0 534.261c0 36.883 29.9 66.783 66.783 66.783s66.783-29.9 66.783-66.783v0-22.261h1113.043v22.261c0 36.883 29.9 66.783 66.783 66.783s66.783-29.9 66.783-66.783v0-534.261c0-36.883-29.9-66.783-66.783-66.783v0zM89.043 114.087h1202.087v-111.304c0-12.294 9.967-22.261 22.261-22.261s22.261 9.967 22.261 22.261v0 534.261c0 12.294-9.967 22.261-22.261 22.261s-22.261-9.967-22.261-22.261v0-66.783h-1202.087v66.783c0 12.294-9.967 22.261-22.261 22.261s-22.261-9.967-22.261-22.261v0-534.261c0-12.294 9.967-22.261 22.261-22.261s22.261 9.967 22.261 22.261v0zM1246.609 559.304h-44.522v333.913c0 12.294-9.967 22.261-22.261 22.261v0h-979.478c-12.294 0-22.261-9.967-22.261-22.261v0-333.913h-44.522v333.913c0 36.883 29.9 66.783 66.783 66.783v0h979.478c36.883 0 66.783-29.9 66.783-66.783v0zM667.826 559.304h-44.522v44.522c0 24.589-19.933 44.522-44.522 44.522v0h-267.13c-24.589 0-44.522-19.933-44.522-44.522v0-44.522h-44.522v44.522c0 49.177 39.866 89.043 89.043 89.043v0h267.13c49.177 0 89.043-39.866 89.043-89.043v0zM1157.565 559.304h-44.522v44.522c0 24.589-19.933 44.522-44.522 44.522v0h-267.13c-24.589 0-44.522-19.933-44.522-44.522v0-44.522h-44.522v44.522c0 49.177 39.866 89.043 89.043 89.043v0h267.13c49.177 0 89.043-39.866 89.043-89.043v0z" />
<glyph unicode="&#xe93d;" glyph-name="bellmdpi" horiz-adv-x="902" d="M889.875 142.17l-8.513 8.097c-29.71 25.532-54.989 55.105-75.274 88.079l-0.924 1.614c-29.483 51.698-42.77 132.464-42.77 261.398v101.943c0 164.023-133.294 271.157-269.911 289.427v25.745c0 22.933-18.591 41.525-41.525 41.525s-41.525-18.591-41.525-41.525v0-25.745c-136.616-18.271-269.911-124.574-269.911-289.427v-102.151c0-128.934-13.080-209.7-42.77-261.398-21.025-34.579-46.252-64.101-75.488-89.067l-0.503-0.419-8.305-7.89c-7.506-6.721-12.208-16.442-12.208-27.261 0-4.524 0.822-8.856 2.325-12.855l-0.083 0.252c5.31-12.315 17.345-20.778 31.357-20.778 0.363 0 0.725 0.006 1.085 0.017l-0.053-0.001h831.74c0.308-0.010 0.669-0.016 1.032-0.016 14.012 0 26.047 8.464 31.272 20.557l0.085 0.221c1.517 3.863 2.396 8.336 2.396 13.014 0 10.496-4.426 19.959-11.513 26.624l-0.019 0.018zM866.621 103.137v20.762zM346.316 35.244c0-57.678 46.757-104.435 104.435-104.435s104.435 46.757 104.435 104.435v0 4.983h-208.869z" />
<glyph unicode="&#xe93e;" glyph-name="bell-omdpi" horiz-adv-x="902" d="M889.875 142.17l-8.513 8.097c-29.71 25.532-54.989 55.105-75.274 88.079l-0.924 1.614c-29.483 51.698-42.77 132.464-42.77 261.398v101.943c0 164.023-133.294 271.157-269.911 289.635v25.538c0 22.933-18.591 41.525-41.525 41.525s-41.525-18.591-41.525-41.525v0-25.538c-136.616-18.479-269.911-124.574-269.911-290.673v-101.113c0-128.934-13.080-209.7-42.77-261.398-21.025-34.579-46.252-64.101-75.488-89.067l-0.503-0.419-8.305-7.89c-7.506-6.721-12.208-16.442-12.208-27.261 0-4.524 0.822-8.856 2.325-12.855l-0.083 0.252c5.31-12.315 17.345-20.778 31.357-20.778 0.363 0 0.725 0.006 1.085 0.017l-0.053-0.001h831.74c0.308-0.010 0.669-0.016 1.032-0.016 14.012 0 26.047 8.464 31.272 20.557l0.085 0.221c1.517 3.863 2.396 8.336 2.396 13.014 0 10.496-4.426 19.959-11.513 26.624l-0.019 0.018zM53.567 124.107c30.7 27.107 56.876 58.371 77.897 93.105l1 1.779c33.635 59.173 48.376 143.676 48.376 282.161v102.151c0 154.887 140.146 250.809 269.911 250.809s269.911-95.922 269.911-250.809v-102.151c0-138.485 14.326-222.988 48.169-282.161 22.092-36.474 48.26-67.73 78.477-94.519l0.42-0.365zM866.621 103.345v20.762zM346.316 35.244c0-57.678 46.757-104.435 104.435-104.435s104.435 46.757 104.435 104.435v0 4.983h-208.869z" />
<glyph unicode="&#xe93f;" glyph-name="bookmdpi" horiz-adv-x="1250" d="M613.436-64c-49.174 114.626-161.063 193.456-291.364 193.456-0.623 0-1.245-0.002-1.867-0.005h0.096c-223.685 0-320.301-177.239-320.301-89.605v754.745c0 82.814 150.949 165.409 308.909 165.409 111.733 0 304.527-65.725 304.527-267.064zM636.659-64c49.239 114.633 161.169 193.456 291.509 193.456 0.572 0 1.143-0.002 1.714-0.005h-0.088c223.904 0 320.301-177.458 320.301-87.634v752.774c0 82.814-150.73 165.409-308.033 165.409-112.609 0-305.404-65.725-305.404-267.064z" />
<glyph unicode="&#xe940;" glyph-name="calendarmdpi" horiz-adv-x="1048" d="M976.372 960h-904.93c-39.456 0-71.442-31.986-71.442-71.442v0-881.116c0-39.456 31.986-71.442 71.442-71.442v0h904.93c39.456 0 71.442 31.986 71.442 71.442v0 881.116c0 39.456-31.986 71.442-71.442 71.442v0zM202.419 102.698c-19.728 0-35.721 15.993-35.721 35.721s15.993 35.721 35.721 35.721c19.728 0 35.721-15.993 35.721-35.721v0c0-19.728-15.993-35.721-35.721-35.721v0zM202.419 317.023c-19.728 0-35.721 15.993-35.721 35.721s15.993 35.721 35.721 35.721c19.728 0 35.721-15.993 35.721-35.721v0c0-19.728-15.993-35.721-35.721-35.721v0zM369.116 102.698c-19.728 0-35.721 15.993-35.721 35.721s15.993 35.721 35.721 35.721c19.728 0 35.721-15.993 35.721-35.721v0c0-19.728-15.993-35.721-35.721-35.721v0zM369.116 317.023c-19.728 0-35.721 15.993-35.721 35.721s15.993 35.721 35.721 35.721c19.728 0 35.721-15.993 35.721-35.721v0c0-19.728-15.993-35.721-35.721-35.721v0zM369.116 531.349c-19.728 0-35.721 15.993-35.721 35.721s15.993 35.721 35.721 35.721c19.728 0 35.721-15.993 35.721-35.721v0c0-19.728-15.993-35.721-35.721-35.721v0zM535.814 102.698c-19.728 0-35.721 15.993-35.721 35.721s15.993 35.721 35.721 35.721c19.728 0 35.721-15.993 35.721-35.721v0c0-19.728-15.993-35.721-35.721-35.721v0zM535.814 317.023c-19.728 0-35.721 15.993-35.721 35.721s15.993 35.721 35.721 35.721c19.728 0 35.721-15.993 35.721-35.721v0c0-19.728-15.993-35.721-35.721-35.721v0zM535.814 531.349c-19.728 0-35.721 15.993-35.721 35.721s15.993 35.721 35.721 35.721c19.728 0 35.721-15.993 35.721-35.721v0c0-19.728-15.993-35.721-35.721-35.721v0zM702.512 102.698c-19.728 0-35.721 15.993-35.721 35.721s15.993 35.721 35.721 35.721c19.728 0 35.721-15.993 35.721-35.721v0c0-19.728-15.993-35.721-35.721-35.721v0zM702.512 269.395c-46.032 0-83.349 37.317-83.349 83.349s37.317 83.349 83.349 83.349c46.032 0 83.349-37.317 83.349-83.349v0c0-46.032-37.317-83.349-83.349-83.349v0zM666.791 567.070c0 19.728 15.993 35.721 35.721 35.721s35.721-15.993 35.721-35.721c0-19.728-15.993-35.721-35.721-35.721v0c-19.728 0-35.721 15.993-35.721 35.721v0zM869.209 317.023c-19.728 0-35.721 15.993-35.721 35.721s15.993 35.721 35.721 35.721c19.728 0 35.721-15.993 35.721-35.721v0c0-19.728-15.993-35.721-35.721-35.721v0zM869.209 531.349c-19.728 0-35.721 15.993-35.721 35.721s15.993 35.721 35.721 35.721c19.728 0 35.721-15.993 35.721-35.721v0c0-19.728-15.993-35.721-35.721-35.721v0zM1000.186 721.86h-952.558v166.698c0 13.152 10.662 23.814 23.814 23.814v0h904.93c13.152 0 23.814-10.662 23.814-23.814v0z" />
<glyph unicode="&#xe941;" glyph-name="calendar-o_1mdpi" d="M323.368 528.842h53.895v53.895h-53.895zM485.053 528.842h53.895v53.895h-53.895zM700.632 582.737h-53.895v-53.895h53.895zM808.421 528.842h53.895v53.895h-53.895zM323.368 313.263h53.895v53.895h-53.895zM485.053 313.263h53.895v53.895h-53.895zM808.421 313.263h53.895v53.895h-53.895zM323.368 97.684h53.895v53.895h-53.895zM161.684 313.263h53.895v53.895h-53.895zM161.684 97.684h53.895v53.895h-53.895zM485.053 97.684h53.895v53.895h-53.895zM646.737 97.684h53.895v53.895h-53.895zM673.684 421.053c-44.648 0-80.842-36.194-80.842-80.842s36.194-80.842 80.842-80.842c44.648 0 80.842 36.194 80.842 80.842v0c0 44.648-36.194 80.842-80.842 80.842v0zM943.158 960h-862.316c-44.648 0-80.842-36.194-80.842-80.842v0-862.316c0-44.648 36.194-80.842 80.842-80.842v0h862.316c44.648 0 80.842 36.194 80.842 80.842v0 862.316c0 44.648-36.194 80.842-80.842 80.842v0zM970.105 16.842c0-14.883-12.065-26.947-26.947-26.947v0h-862.316c-14.883 0-26.947 12.065-26.947 26.947v0 646.737c0 14.883 12.065 26.947 26.947 26.947v0h862.316c14.883 0 26.947-12.065 26.947-26.947v0z" />
<glyph unicode="&#xe942;" glyph-name="calendar-omdpi" horiz-adv-x="1048" d="M976.372 960h-904.93c-39.456 0-71.442-31.986-71.442-71.442v0-881.116c0-39.456 31.986-71.442 71.442-71.442v0h904.93c39.456 0 71.442 31.986 71.442 71.442v0 881.116c0 39.456-31.986 71.442-71.442 71.442v0zM1000.186 7.442c0-13.152-10.662-23.814-23.814-23.814v0h-904.93c-13.152 0-23.814 10.662-23.814 23.814v0 690.605c0 13.152 10.662 23.814 23.814 23.814v0h904.93c13.152 0 23.814-10.662 23.814-23.814v0zM785.86 352.744c0-46.032-37.317-83.349-83.349-83.349s-83.349 37.317-83.349 83.349c0 46.032 37.317 83.349 83.349 83.349v0c46.032 0 83.349-37.317 83.349-83.349v0zM404.837 567.070c0-19.728-15.993-35.721-35.721-35.721s-35.721 15.993-35.721 35.721c0 19.728 15.993 35.721 35.721 35.721v0c19.728 0 35.721-15.993 35.721-35.721v0zM571.535 567.070c0-19.728-15.993-35.721-35.721-35.721s-35.721 15.993-35.721 35.721c0 19.728 15.993 35.721 35.721 35.721v0c19.728 0 35.721-15.993 35.721-35.721v0zM404.837 352.744c0-19.728-15.993-35.721-35.721-35.721s-35.721 15.993-35.721 35.721c0 19.728 15.993 35.721 35.721 35.721v0c19.728 0 35.721-15.993 35.721-35.721v0zM238.14 352.744c0-19.728-15.993-35.721-35.721-35.721s-35.721 15.993-35.721 35.721c0 19.728 15.993 35.721 35.721 35.721v0c19.728 0 35.721-15.993 35.721-35.721v0zM571.535 352.744c0-19.728-15.993-35.721-35.721-35.721s-35.721 15.993-35.721 35.721c0 19.728 15.993 35.721 35.721 35.721v0c19.728 0 35.721-15.993 35.721-35.721v0zM404.837 138.419c0-19.728-15.993-35.721-35.721-35.721s-35.721 15.993-35.721 35.721c0 19.728 15.993 35.721 35.721 35.721v0c19.728 0 35.721-15.993 35.721-35.721v0zM238.14 138.419c0-19.728-15.993-35.721-35.721-35.721s-35.721 15.993-35.721 35.721c0 19.728 15.993 35.721 35.721 35.721v0c19.728 0 35.721-15.993 35.721-35.721v0zM571.535 138.419c0-19.728-15.993-35.721-35.721-35.721s-35.721 15.993-35.721 35.721c0 19.728 15.993 35.721 35.721 35.721v0c19.728 0 35.721-15.993 35.721-35.721v0zM738.233 138.419c0-19.728-15.993-35.721-35.721-35.721s-35.721 15.993-35.721 35.721c0 19.728 15.993 35.721 35.721 35.721v0c19.728 0 35.721-15.993 35.721-35.721v0zM738.233 567.070c0-19.728-15.993-35.721-35.721-35.721s-35.721 15.993-35.721 35.721c0 19.728 15.993 35.721 35.721 35.721v0c19.728 0 35.721-15.993 35.721-35.721v0zM904.93 567.070c0-19.728-15.993-35.721-35.721-35.721s-35.721 15.993-35.721 35.721c0 19.728 15.993 35.721 35.721 35.721v0c19.728 0 35.721-15.993 35.721-35.721v0zM904.93 352.744c0-19.728-15.993-35.721-35.721-35.721s-35.721 15.993-35.721 35.721c0 19.728 15.993 35.721 35.721 35.721v0c19.728 0 35.721-15.993 35.721-35.721v0z" />
<glyph unicode="&#xe943;" glyph-name="cameramdpi" horiz-adv-x="1334" d="M667.101 600.718c-131.582 0-238.25-106.668-238.25-238.25s106.668-238.25 238.25-238.25c131.582 0 238.25 106.668 238.25 238.25v0c0 131.582-106.668 238.25-238.25 238.25v0zM1191.252 793.225h-170.826c-6.627 0.028-12.611 2.758-16.912 7.144l-141.048 141.048c-11.579 11.486-27.525 18.584-45.13 18.584-0.049 0-0.097 0-0.146 0h-300.187c-18.271-0.080-34.739-7.736-46.435-19.988l-0.024-0.025-116.981-137.232c-4.401-5.257-10.966-8.577-18.307-8.577-0.014 0-0.027 0-0.041 0h-192.266c-78.949 0-142.95-64.001-142.95-142.95v0-572.754c0-78.949 64.001-142.95 142.95-142.95v0h1048.302c78.949 0 142.95 64.001 142.95 142.95v0 571.801c0 78.949-64.001 142.95-142.95 142.95v0zM667.101 52.743c-171.057 0-309.725 138.669-309.725 309.725s138.669 309.725 309.725 309.725c171.057 0 309.725-138.669 309.725-309.725v0c0-171.057-138.669-309.725-309.725-309.725v0zM1060.214 624.544c-19.737 0-35.738 16-35.738 35.738s16 35.738 35.738 35.738c19.737 0 35.738-16 35.738-35.738v0c0-19.737-16-35.738-35.738-35.738v0zM262.075 838.969s0 1.906 0 1.906c0 26.316-21.334 47.65-47.65 47.65v0h-47.65c-26.316 0-47.65-21.334-47.65-47.65v0s0 0 0-1.906z" />
<glyph unicode="&#xe944;" glyph-name="camera-omdpi" horiz-adv-x="1365" d="M682.667 106.667c-161.583 0-292.571 130.989-292.571 292.571s130.989 292.571 292.571 292.571c161.583 0 292.571-130.989 292.571-292.571v0c0-161.583-130.989-292.571-292.571-292.571v0zM682.667 643.048c-134.652 0-243.81-109.157-243.81-243.81s109.157-243.81 243.81-243.81c134.652 0 243.81 109.157 243.81 243.81v0c0 134.652-109.157 243.81-243.81 243.81v0zM1194.667 594.286c0-26.93-21.831-48.762-48.762-48.762s-48.762 21.831-48.762 48.762c0 26.93 21.831 48.762 48.762 48.762s48.762-21.831 48.762-48.762zM1219.048-64h-1072.762c-80.791 0-146.286 65.494-146.286 146.286v0 560.762c0 80.791 65.494 146.286 146.286 146.286v0h196.754c0.012 0 0.026 0 0.040 0 7.512 0 14.23 3.397 18.703 8.739l0.031 0.038 119.467 141.166c12.113 12.777 29.208 20.727 48.16 20.727 0.211 0 0.423-0.001 0.634-0.003h306.193c0.060 0 0.13 0 0.201 0 18.041 0 34.361-7.366 46.117-19.255l144.341-144.341c4.501-4.298 10.584-6.974 17.292-7.070h174.83c80.791 0 146.286-65.494 146.286-146.286v0-560.762c0-80.791-65.494-146.286-146.286-146.286v0zM146.286 740.571c-53.861 0-97.524-43.663-97.524-97.524v0-560.762c0-53.861 43.663-97.524 97.524-97.524v0h1072.762c53.861 0 97.524 43.663 97.524 97.524v0 560.762c0 53.861-43.663 97.524-97.524 97.524v0h-174.811c-20.19 0.018-38.463 8.215-51.687 21.454l-144.336 144.336c-3.002 3.013-7.156 4.877-11.745 4.877-0.071 0-0.142 0-0.213-0.001h-307.189c-0.060 0.001-0.131 0.001-0.202 0.001-4.589 0-8.742-1.864-11.744-4.877v0l-118.004-139.947c-13.502-15.854-33.48-25.844-55.792-25.844-0.1 0-0.2 0-0.3 0.001h0.016z" />
<glyph unicode="&#xe946;" glyph-name="categoriesmdpi" d="M0 737.391v-801.391h1024v801.391zM133.565 804.174h756.87v-44.522h44.522v89.043h-845.913v-89.043h44.522zM222.609 915.478h578.783v-44.522h44.522v89.043h-667.826v-89.043h44.522z" />
<glyph unicode="&#xe947;" glyph-name="categories-omdpi" d="M0 737.391v-801.391h1024v801.391zM979.478-19.478h-934.957v712.348h934.957zM133.565 804.174h756.87v-44.522h44.522v89.043h-845.913v-89.043h44.522zM222.609 915.478h578.783v-44.522h44.522v89.043h-667.826v-89.043h44.522z" />
<glyph unicode="&#xe949;" glyph-name="dial-pad-0mdpi" d="M138.667 682.667c-76.583 0-138.667 62.083-138.667 138.667s62.083 138.667 138.667 138.667c76.583 0 138.667-62.083 138.667-138.667v0c-0.121-76.535-62.132-138.545-138.655-138.667h-0.012zM138.667 917.333c-53.019 0-96-42.981-96-96s42.981-96 96-96c53.019 0 96 42.981 96 96v0c-0.121 52.971-43.029 95.879-95.988 96h-0.012zM512 682.667c-76.583 0-138.667 62.083-138.667 138.667s62.083 138.667 138.667 138.667c76.583 0 138.667-62.083 138.667-138.667v0c-0.121-76.535-62.132-138.545-138.655-138.667h-0.012zM512 917.333c-53.019 0-96-42.981-96-96s42.981-96 96-96c53.019 0 96 42.981 96 96v0c-0.121 52.971-43.029 95.879-95.988 96h-0.012zM885.333 682.667c-76.583 0-138.667 62.083-138.667 138.667s62.083 138.667 138.667 138.667c76.583 0 138.667-62.083 138.667-138.667v0c-0.121-76.535-62.132-138.545-138.655-138.667h-0.012zM885.333 917.333c-53.019 0-96-42.981-96-96s42.981-96 96-96c53.019 0 96 42.981 96 96v0c-0.121 52.971-43.029 95.879-95.988 96h-0.012zM138.667 309.333c-76.583 0-138.667 62.083-138.667 138.667s62.083 138.667 138.667 138.667c76.583 0 138.667-62.083 138.667-138.667v0c-0.121-76.535-62.132-138.545-138.655-138.667h-0.012zM138.667 544c-53.019 0-96-42.981-96-96s42.981-96 96-96c53.019 0 96 42.981 96 96v0c-0.121 52.971-43.029 95.879-95.988 96h-0.012zM512 309.333c-76.583 0-138.667 62.083-138.667 138.667s62.083 138.667 138.667 138.667c76.583 0 138.667-62.083 138.667-138.667v0c-0.121-76.535-62.132-138.545-138.655-138.667h-0.012zM512 544c-53.019 0-96-42.981-96-96s42.981-96 96-96c53.019 0 96 42.981 96 96v0c-0.121 52.971-43.029 95.879-95.988 96h-0.012zM885.333 309.333c-76.583 0-138.667 62.083-138.667 138.667s62.083 138.667 138.667 138.667c76.583 0 138.667-62.083 138.667-138.667v0c-0.121-76.535-62.132-138.545-138.655-138.667h-0.012zM885.333 544c-53.019 0-96-42.981-96-96s42.981-96 96-96c53.019 0 96 42.981 96 96v0c-0.121 52.971-43.029 95.879-95.988 96h-0.012zM138.667-64c-76.583 0-138.667 62.083-138.667 138.667s62.083 138.667 138.667 138.667c76.583 0 138.667-62.083 138.667-138.667v0c-0.121-76.535-62.132-138.545-138.655-138.667h-0.012zM138.667 170.667c-53.019 0-96-42.981-96-96s42.981-96 96-96c53.019 0 96 42.981 96 96v0c-0.121 52.971-43.029 95.879-95.988 96h-0.012zM512-64c-76.583 0-138.667 62.083-138.667 138.667s62.083 138.667 138.667 138.667c76.583 0 138.667-62.083 138.667-138.667v0c-0.121-76.535-62.132-138.545-138.655-138.667h-0.012zM512 170.667c-53.019 0-96-42.981-96-96s42.981-96 96-96c53.019 0 96 42.981 96 96v0c-0.121 52.971-43.029 95.879-95.988 96h-0.012zM885.333-64c-76.583 0-138.667 62.083-138.667 138.667s62.083 138.667 138.667 138.667c76.583 0 138.667-62.083 138.667-138.667v0c-0.121-76.535-62.132-138.545-138.655-138.667h-0.012zM885.333 170.667c-53.019 0-96-42.981-96-96s42.981-96 96-96c53.019 0 96 42.981 96 96v0c-0.121 52.971-43.029 95.879-95.988 96h-0.012z" />
<glyph unicode="&#xe94a;" glyph-name="dial-padmdpi" d="M138.667 682.667c-76.583 0-138.667 62.083-138.667 138.667s62.083 138.667 138.667 138.667c76.583 0 138.667-62.083 138.667-138.667v0c-0.121-76.535-62.132-138.545-138.655-138.667h-0.012zM512 682.667c-76.583 0-138.667 62.083-138.667 138.667s62.083 138.667 138.667 138.667c76.583 0 138.667-62.083 138.667-138.667v0c-0.121-76.535-62.132-138.545-138.655-138.667h-0.012zM885.333 682.667c-76.583 0-138.667 62.083-138.667 138.667s62.083 138.667 138.667 138.667c76.583 0 138.667-62.083 138.667-138.667v0c-0.121-76.535-62.132-138.545-138.655-138.667h-0.012zM138.667 309.333c-76.583 0-138.667 62.083-138.667 138.667s62.083 138.667 138.667 138.667c76.583 0 138.667-62.083 138.667-138.667v0c-0.121-76.535-62.132-138.545-138.655-138.667h-0.012zM512 309.333c-76.583 0-138.667 62.083-138.667 138.667s62.083 138.667 138.667 138.667c76.583 0 138.667-62.083 138.667-138.667v0c-0.121-76.535-62.132-138.545-138.655-138.667h-0.012zM885.333 309.333c-76.583 0-138.667 62.083-138.667 138.667s62.083 138.667 138.667 138.667c76.583 0 138.667-62.083 138.667-138.667v0c-0.121-76.535-62.132-138.545-138.655-138.667h-0.012zM138.667-64c-76.583 0-138.667 62.083-138.667 138.667s62.083 138.667 138.667 138.667c76.583 0 138.667-62.083 138.667-138.667v0c-0.121-76.535-62.132-138.545-138.655-138.667h-0.012zM512-64c-76.583 0-138.667 62.083-138.667 138.667s62.083 138.667 138.667 138.667c76.583 0 138.667-62.083 138.667-138.667v0c-0.121-76.535-62.132-138.545-138.655-138.667h-0.012zM885.333-64c-76.583 0-138.667 62.083-138.667 138.667s62.083 138.667 138.667 138.667c76.583 0 138.667-62.083 138.667-138.667v0c-0.121-76.535-62.132-138.545-138.655-138.667h-0.012z" />
<glyph unicode="&#xe94b;" glyph-name="dotsmdpi" horiz-adv-x="4710" d="M1024 448c0-282.77-229.23-512-512-512s-512 229.23-512 512c0 282.77 229.23 512 512 512s512-229.23 512-512zM2867.2 448c0-282.77-229.23-512-512-512s-512 229.23-512 512c0 282.77 229.23 512 512 512s512-229.23 512-512zM4710.4 448c0-282.77-229.23-512-512-512s-512 229.23-512 512c0 282.77 229.23 512 512 512s512-229.23 512-512z" />
<glyph unicode="&#xe94c;" glyph-name="edit-squaremdpi" d="M802.613 565.159v-584.57h-758.023v758.023h584.57l44.59 44.59h-673.749v-847.202h847.202v673.749l-44.59-44.59zM1011.069 836.71l-38.124-38.347-111.474 110.359 39.239 38.347c8.071 8.080 19.225 13.078 31.547 13.078s23.476-4.998 31.547-13.077v0l47.265-47.265c8.080-8.071 13.078-19.225 13.078-31.547s-4.998-23.476-13.077-31.547v0zM477.332 381.896h-31.436v31.436l427.391 427.391-39.462 39.462-450.578-450.801-32.996-143.133 143.356 32.773 450.578 450.801-39.462 39.462-427.391-427.391z" />
<glyph unicode="&#xe94d;" glyph-name="file-omdpi" horiz-adv-x="757" d="M756.87-64h-756.87v1024h387.562l369.308-369.308zM44.522-19.478h667.826v591.917l-343.040 343.040h-324.786zM734.609 559.304h-378.435v378.435h44.522v-333.913h333.913v-44.522z" />
<glyph unicode="&#xe94e;" glyph-name="geniusmdpi" d="M415.539 338.842c1.638-16.794 3.891-32.563 6.349-47.718 14.541 5.53 29.491 11.674 44.442 18.227l-25.6 14.336c-8.602 4.915-16.998 10.035-25.19 15.155zM609.69 557.158c-1.843 16.794-4.096 32.563-6.554 47.923-14.336-5.53-29.082-11.469-44.646-18.432l25.805-14.336c9.626-4.915 16.998-10.035 25.395-15.155zM421.888 604.877c-2.458-15.155-4.71-30.925-6.349-47.718 8.192 5.12 16.589 10.24 25.19 15.155s16.998 9.626 25.6 14.336c-15.77 6.758-29.901 12.698-44.442 18.227zM331.366 448c12.083-9.83 24.781-20.48 38.093-29.286 0 9.83 0 19.456 0 29.286s0 19.456 0 29.286c-13.312-8.806-26.010-19.456-38.093-29.286zM724.992 474.829c72.499 66.355 102.4 122.88 89.088 147.251s-78.234 26.214-172.032-3.482c4.915-28.672 8.602-58.982 10.854-89.702 25.395-17.203 49.766-35.43 72.090-54.067zM603.136 291.123c2.458 15.155 4.71 30.925 6.554 47.718-8.397-5.12-16.794-10.24-25.395-15.155l-25.6-14.336c14.746-6.554 29.901-12.698 44.442-18.227zM614.4 506.368c-15.565 10.24-31.949 20.48-49.562 30.515s-34.202 19.046-51.2 27.648c-16.794-8.397-33.792-17.613-51.405-27.648s-33.587-20.48-49.562-30.515c-2.048-18.842-3.072-37.888-3.072-58.368s0-39.526 1.638-58.163c15.974-10.445 32.358-20.48 49.562-30.72s34.202-19.046 51.405-27.648c16.998 8.602 33.997 17.818 51.2 27.648s33.997 20.48 49.562 30.72c1.434 18.637 1.434 37.683 1.434 58.163s0 39.526 0 58.368zM595.558 645.632c-3.891 17.408-8.192 33.587-12.902 48.333-27.809 0.461-50.176 23.113-50.176 50.989 0 0.002 0 0.005 0 0.007v0c0.091 11.668 4.167 22.366 10.931 30.819l-0.077-0.099c-6.879 10.863-18.058 18.471-31.087 20.449l-0.247 0.031c-27.443 0-61.44-54.477-82.944-150.323 27.034-10.035 54.886-21.914 83.149-35.635 28.262 13.312 56.115 25.19 83.354 35.43zM430.080 250.163c20.48-95.642 55.091-150.323 81.92-150.323s61.44 54.682 81.92 150.323c-27.034 10.035-54.886 21.914-81.92 35.635-27.648-13.722-55.501-25.6-81.92-35.635zM693.862 448c-11.878 9.83-24.576 19.456-38.298 29.491q0-14.746 0-29.491t0-29.491c13.722 9.011 26.419 19.866 38.298 29.491zM299.827 420.966c-13.107-11.469-24.166-22.938-33.587-34.406 0.624-3.066 0.996-6.601 1.024-10.217v-0.023c0-0.039 0-0.086 0-0.133 0-26.98-20.868-49.086-47.344-51.057l-0.17-0.010c-13.107-24.371-14.95-40.96-8.806-51.2 8.806-15.155 43.622-26.214 115.302-11.469 22.892 4.716 41.918 9.876 60.49 16.030l-3.761-1.080c-4.915 28.672-8.602 58.778-10.854 89.498-27.499 18.489-51.063 36.261-73.645 55.168l1.351-1.1zM724.992 421.171c-22.323-18.637-46.694-36.864-72.090-54.067-2.253-30.72-5.939-61.44-10.854-89.702 14.812-5.075 33.838-10.234 53.254-14.336l3.476-0.615c0.92-0.086 1.991-0.135 3.072-0.135s2.152 0.049 3.208 0.145l-0.136-0.010c9.272 13.799 24.822 22.758 42.464 22.758 18.494 0 34.689-9.845 43.629-24.58l0.128-0.227c9.454 1.926 17.441 7.172 22.867 14.441l0.071 0.099c13.722 22.733-16.589 79.872-89.088 146.227zM512 960c-282.77 0-512-229.23-512-512s229.23-512 512-512c282.77 0 512 229.23 512 512v0c0 282.77-229.23 512-512 512v0zM849.51 253.44c-11.769-18.341-30.612-31.267-52.588-34.958l-0.455-0.063c-6.319-21.492-25.865-36.915-49.013-36.915-24.115 0-44.321 16.739-49.632 39.232l-0.069 0.346-7.168 1.638c-22.814 4.681-41.507 9.63-59.805 15.465l4.1-1.129c-23.962-102.4-64.922-178.176-122.88-178.176s-98.509 75.776-121.651 178.176c-14.453-4.854-33.413-9.942-52.729-14.067l-3.795-0.679c-20.194-4.659-43.477-7.478-67.367-7.78l-0.217-0.002c-45.056 0-75.981 13.107-90.931 38.912s-11.469 51.2 5.12 85.402c-11.165 9.417-18.209 23.415-18.209 39.058 0 28.164 22.831 50.995 50.995 50.995 10.266 0 19.824-3.034 27.825-8.253l-0.196 0.12c8.602 9.216 17.818 18.432 27.853 27.648-14.95 13.926-28.672 27.648-40.96 40.96-55.501 63.078-73.728 115.917-52.224 153.19s76.39 47.923 158.925 30.72c18.022-3.686 36.864-8.602 56.525-14.541 23.142 102.605 64.307 178.381 121.037 178.381 28.509-2.024 52.951-17.76 66.962-40.588l0.212-0.372h3.891c28.235-0.055 51.103-22.957 51.103-51.2 0-13.758-5.426-26.248-14.256-35.448l0.017 0.018c5.12-15.974 9.626-32.973 13.722-50.79 100.147 31.13 186.573 33.587 215.245-16.179s-16.589-122.88-93.798-194.56c77.824-71.27 123.085-144.794 94.413-194.56zM382.976 618.598c-14.79 5.121-33.807 10.348-53.215 14.522l-3.515 0.633c-17.902 3.986-38.575 6.431-59.763 6.755l-0.244 0.003c-32.358 0-49.971-8.192-55.91-18.432-8.602-15.155 0-50.79 47.718-105.472 13.099-14.495 26.465-27.862 40.476-40.529l0.484-0.431c22.118 18.432 46.285 36.659 72.294 54.272 3.072 29.901 6.758 60.006 11.674 88.678z" />
<glyph unicode="&#xe94f;" glyph-name="genius-omdpi" d="M512-64c-282.77 0-512 229.23-512 512s229.23 512 512 512c282.77 0 512-229.23 512-512v0c0-282.77-229.23-512-512-512v0zM512 919.040c-260.148 0-471.040-210.892-471.040-471.040s210.892-471.040 471.040-471.040c260.148 0 471.040 210.892 471.040 471.040v0c0 260.148-210.892 471.040-471.040 471.040v0zM512 58.88c-93.389 0-143.36 200.499-143.36 389.12s50.586 389.12 143.36 389.12 143.36-200.499 143.36-389.12-49.562-389.12-143.36-389.12zM512 796.16c-43.008 0-102.4-132.506-102.4-348.16s59.597-348.16 102.4-348.16 102.4 132.506 102.4 348.16-58.982 348.16-102.4 348.16zM757.76 214.528c-24.066 0.494-47.176 3.453-69.432 8.635l2.257-0.443c-94.621 22.896-177.955 58.114-253.652 104.566l3.796-2.166c-81.703 45.499-151.78 99.977-212.467 163.502l-0.32 0.338c-55.706 63.488-73.933 116.326-52.429 153.6s76.39 48.128 158.925 30.72c94.578-22.509 177.941-57.399 253.691-103.547l-3.835 2.171c163.84-94.208 311.91-238.182 265.216-318.874-14.95-25.395-45.875-38.502-91.75-38.502zM266.24 640.512c-32.358 0-49.971-8.192-55.91-18.432-8.602-15.155 0-50.79 47.718-105.472 57.952-61.522 124.682-113.895 198.38-155.337l4.167-2.154c68.378-41.835 147.625-75.091 231.89-95.504l5.678-1.162c71.68-14.746 106.496-3.686 115.302 11.469 20.48 37.069-63.488 155.034-250.266 262.963v0c-68.378 41.835-147.625 75.091-231.89 95.504l-5.678 1.162c-17.714 4.095-38.163 6.614-59.141 6.96l-0.251 0.003zM266.24 214.528c-45.056 0-75.981 13.107-90.931 38.912-21.504 37.274-3.277 90.317 52.429 153.19 60.969 64.581 131.052 119.657 208.392 163.397l4.395 2.286c71.983 43.816 155.422 78.572 244.126 99.77l5.935 1.197c81.92 16.998 137.421 6.144 158.925-31.13 46.694-80.691-102.4-225.28-265.216-318.874-71.898-44.327-155.237-79.549-243.904-101.173l-5.952-1.227c-19.477-4.049-41.859-6.366-64.783-6.366-1.201 0-2.4 0.006-3.597 0.019l0.182-0.002zM757.76 640.512c-21.229-0.35-41.679-2.868-61.385-7.344l1.993 0.381c-89.944-21.576-169.191-54.832-241.233-98.741l3.665 2.076c-77.866-43.596-144.595-95.969-202.157-157.073l-0.39-0.418c-48.128-54.272-55.91-90.317-47.309-105.472s43.622-26.214 115.302-11.469c89.944 21.576 169.191 54.832 241.233 98.741l-3.665-2.076c186.778 107.93 271.565 225.28 250.266 262.963-5.939 10.24-23.347 18.432-56.32 18.432zM266.24 376.32c0-28.277-22.923-51.2-51.2-51.2s-51.2 22.923-51.2 51.2c0 28.277 22.923 51.2 51.2 51.2s51.2-22.923 51.2-51.2zM634.88 744.96c0-28.277-22.923-51.2-51.2-51.2s-51.2 22.923-51.2 51.2c0 28.277 22.923 51.2 51.2 51.2s51.2-22.923 51.2-51.2zM798.72 232.96c0-28.277-22.923-51.2-51.2-51.2s-51.2 22.923-51.2 51.2c0 28.277 22.923 51.2 51.2 51.2s51.2-22.923 51.2-51.2z" />
<glyph unicode="&#xe951;" glyph-name="git-boxmdpi" horiz-adv-x="978" d="M17.112 757.162h943.914v-205.576h-943.914v205.576zM54.759 551.586h875.009v-598.474h-875.009v598.474zM492.378 757.162h-308.478c-51.287 0-92.863 41.576-92.863 92.863s41.576 92.863 92.863 92.863v0c197.362 0 308.478-185.725 308.478-185.725zM492.378 757.162h308.478c51.287 0 92.863 41.576 92.863 92.863s-41.576 92.863-92.863 92.863v0c-197.134 0-308.478-185.725-308.478-185.725zM492.378 757.162v-804.050" />
<glyph unicode="&#xe952;" glyph-name="heart-arrow-downmdpi" horiz-adv-x="1065" d="M552.96 666.112v293.888h-40.96v-293.888c6.126-1.948 13.172-3.070 20.48-3.070s14.354 1.123 20.975 3.205l-0.495-0.134zM778.24 756.838c-2.589 0.118-5.625 0.186-8.677 0.186-49.035 0-94.008-17.389-129.089-46.337l0.345 0.277c-25.268-18.081-54.339-33.264-85.441-44.117l-2.419-0.735v-332.595l133.734 133.734 28.877-28.877-183.091-183.091-183.091 183.091 28.877 28.877 133.734-133.734v332.595c-33.52 11.587-62.591 26.77-88.907 45.562l1.048-0.711c-34.736 28.672-79.71 46.061-128.744 46.061-3.052 0-6.087-0.067-9.106-0.201l0.43 0.015c-106.496 0-286.72-58.982-286.72-280.166 0-134.963 107.52-256.819 197.632-335.872 94.013-81.433 202.126-150.16 319.53-201.616l8.15-3.184c1.078-0.201 2.317-0.316 3.584-0.316s2.506 0.115 3.709 0.335l-0.125-0.019c2.751 0.064 5.346 0.66 7.71 1.69l-0.132-0.051c125.554 54.64 233.667 123.367 329.274 206.15l-1.594-1.35c89.702 77.414 197.222 199.27 197.222 334.234 0 221.184-180.224 280.166-286.72 280.166z" />
<glyph unicode="&#xe953;" glyph-name="heartmdpi" horiz-adv-x="1111" d="M816.175 960c-122.182 0-207.593-86.575-242.735-152.436-3.591-6.231-10.215-10.358-17.804-10.358s-14.213 4.127-17.751 10.259l-0.053 0.099c-35.142 65.862-120.553 152.436-242.735 152.436-2.118 0.056-4.612 0.088-7.113 0.088-159.122 0-288.116-128.994-288.116-288.116 0-3.059 0.048-6.107 0.142-9.142l-0.011 0.444c0-354.909 555.753-727.273 555.753-727.273s555.52 372.364 555.52 727.273c0.084 2.592 0.131 5.64 0.131 8.699 0 159.122-128.994 288.116-288.116 288.116-2.501 0-4.995-0.032-7.481-0.095l0.368 0.007z" />
<glyph unicode="&#xe954;" glyph-name="historymdpi" d="M512 960c-282.77 0-512-229.23-512-512s229.23-512 512-512c282.77 0 512 229.23 512 512v0c0 282.77-229.23 512-512 512v0zM532.48 386.56h-286.72v40.96h245.76v368.64h40.96z" />
<glyph unicode="&#xe955;" glyph-name="home_1mdpi" horiz-adv-x="1126" d="M1109.799 568.635l-118.915 90.315v158.696c0 11.876-9.627 21.504-21.504 21.504v0h-86.014c-11.876 0-21.504-9.627-21.504-21.504v0-58.705l-279.546 193.532c-5.721 4.171-12.89 6.673-20.643 6.673s-14.923-2.502-20.744-6.743l0.101 0.070-524.257-383.194c-10.222-7.56-16.777-19.572-16.777-33.115 0-22.683 18.388-41.072 41.072-41.072 0.001 0 0.003 0 0.004 0h89.67v-516.086c0-23.752 19.255-43.007 43.007-43.007v0h774.129c23.752 0 43.007 19.255 43.007 43.007v0 516.086h93.971c0.129-0.001 0.281-0.002 0.433-0.002 22.565 0 40.857 18.292 40.857 40.857 0 13.322-6.376 25.155-16.243 32.613l-0.103 0.074zM861.863 22.014h-172.029v344.057h172.029z" />
<glyph unicode="&#xe956;" glyph-name="homemdpi" horiz-adv-x="1126" d="M1109.799 568.635l-118.915 90.315v158.696c0 11.876-9.627 21.504-21.504 21.504v0h-86.014c-11.876 0-21.504-9.627-21.504-21.504v0-58.705l-279.546 193.532c-5.721 4.171-12.89 6.673-20.643 6.673s-14.923-2.502-20.744-6.743l0.101 0.070-524.257-383.194c-10.222-7.56-16.777-19.572-16.777-33.115 0-22.683 18.388-41.072 41.072-41.072 0.001 0 0.003 0 0.004 0h89.67v-516.086c0-23.752 19.255-43.007 43.007-43.007v0h774.129c23.752 0 43.007 19.255 43.007 43.007v0 516.086h93.971c0.129-0.001 0.281-0.002 0.433-0.002 22.565 0 40.857 18.292 40.857 40.857 0 13.322-6.376 25.155-16.243 32.613l-0.103 0.074zM861.863 22.014h-172.029v344.057h172.029z" />
<glyph unicode="&#xe957;" glyph-name="home-o_1mdpi" horiz-adv-x="1126" d="M561.458 915.273l343.412-238.69v119.56h43.007v-157.406l16.773-12.902 114.399-87.735h-131.172v-559.093h-774.129v559.093h-126.656l514.365 377.173zM561.458 960c-0.128 0.002-0.279 0.003-0.431 0.003-7.925 0-15.247-2.583-21.171-6.953l0.098 0.069-523.182-383.839c-10.222-7.56-16.777-19.572-16.777-33.115 0-22.683 18.388-41.072 41.072-41.072 0.001 0 0.003 0 0.004 0h89.67v-516.086c0-23.752 19.255-43.007 43.007-43.007v0h774.129c23.752 0 43.007 19.255 43.007 43.007v0 516.086h93.971c0.129-0.001 0.281-0.002 0.433-0.002 22.565 0 40.857 18.292 40.857 40.857 0 13.322-6.376 25.155-16.243 32.613l-0.103 0.074-118.915 90.315v158.696c0 11.876-9.627 21.504-21.504 21.504v0h-86.014c-11.876 0-21.504-9.627-21.504-21.504v0-58.705l-279.546 193.532c-5.611 4.034-12.621 6.451-20.195 6.451-0.006 0-0.013 0-0.019 0h0.001zM689.835 366.071h172.029v-344.057h-172.029v344.057z" />
<glyph unicode="&#xe958;" glyph-name="inboxmdpi" horiz-adv-x="1554" d="M1553.655-64h-1553.655v635.586h600.276v-35.31c0-97.507 79.045-176.552 176.552-176.552s176.552 79.045 176.552 176.552v0 35.31h600.276zM70.621 6.621h1412.414v494.345h-461.506c-17.681-120.686-120.492-212.304-244.701-212.304s-227.020 91.618-244.539 210.963l-0.162 1.342h-461.506zM1553.655 536.276h-70.621v24.364l-230.223 328.739h-951.967l-230.223-328.739v-24.364h-70.621v46.257l264.121 377.468h1025.412l264.121-377.468v-46.257z" />
<glyph unicode="&#xe959;" glyph-name="junkmdpi" horiz-adv-x="1517" d="M533.883 528.958l39.817 42.878 409.486-380.252-39.817-42.878-409.486 380.252zM533.82 191.38l409.353 380.395 39.832-42.864-409.353-380.395-39.832 42.864zM1433.6 696.686h-1349.339c-30.807 0.107-56.29 22.763-60.812 52.319l-0.043 0.343-23.406 161.207c-0.279 1.847-0.438 3.978-0.438 6.146 0 23.914 19.386 43.301 43.301 43.301 0.154 0 0.308-0.001 0.462-0.002h1430.651c23.851-0.084 43.154-19.438 43.154-43.3 0-2.168-0.159-4.298-0.467-6.38l0.029 0.236-23.113-161.207c-4.4-29.668-29.49-52.236-59.933-52.662h-0.044zM60.855 901.486l20.48-143.945c0.378-1.309 1.53-2.264 2.917-2.34h1349.347c1.275 0.195 2.292 1.114 2.628 2.318l0.005 0.023 19.895 143.945zM1203.346-64h-889.417c-0.188-0.001-0.411-0.002-0.634-0.002-45.065 0-82.378 33.188-88.832 76.456l-0.060 0.492-114.395 742.254h1296.969l-114.103-742.254c-6.514-43.76-43.828-76.949-88.892-76.949-0.223 0-0.446 0.001-0.669 0.002h0.034zM178.176 696.686l103.863-674.962c2.361-15.485 15.584-27.211 31.545-27.211 0.121 0 0.243 0.001 0.364 0.002h889.399c0.016 0 0.034 0 0.053 0 15.961 0 29.183 11.725 31.523 27.032l0.022 0.177 103.863 674.962z" />
<glyph unicode="&#xe95a;" glyph-name="listmdpi" horiz-adv-x="1653" d="M0 802.462h157.538v157.538h-157.538zM315.077 920.615v-78.769h1339.077v78.769zM0 369.231h157.538v157.538h-157.538zM315.077 408.615h1339.077v78.769h-1339.077zM0-64h157.538v157.538h-157.538zM315.077-24.615h1339.077v78.769h-1339.077z" />
<glyph unicode="&#xe95b;" d="M389.285 653.673l603.478-603.478c16.536-16.536 16.536-43.345 0-59.881l-22.994-22.994c-16.536-16.536-43.345-16.536-59.881 0l-603.478 603.478c-16.536 16.536-16.536 43.345 0 59.881l22.994 22.994c16.536 16.536 43.345 16.536 59.881 0z" />
<glyph unicode="&#xe95c;" d="M389.226 653.647l119.761-119.761c16.536-16.536 16.536-43.345 0-59.881l-22.994-22.994c-16.536-16.536-43.345-16.536-59.881 0l-119.761 119.761c-16.536 16.536-16.536 43.345 0 59.881l22.994 22.994c16.536 16.536 43.345 16.536 59.881 0z" />
<glyph unicode="&#xe95d;" d="mNaNclNaNNaNclNaNNaNNaNNaNclNaNNaNclNaNNaN" />
<glyph unicode="&#xe95e;" d="M345.511 351.968v-110.597" />
<glyph unicode="&#xe95f;" d="M599.563 854.822l-78.248-78.248" />
<glyph unicode="&#xe960;" d="M169.538 424.797l-78.079-78.248" />
<glyph unicode="&#xe961;" d="M91.459 854.822l78.079-78.248" />
<glyph unicode="&#xe962;" d="M718.629 586.882h-110.597" />
<glyph unicode="&#xe963;" d="M110.597 586.882lNaNNaNclNaNNaNclNaNNaN" />
<glyph unicode="&#xe964;" glyph-name="medicalmdpi" horiz-adv-x="972" d="M571.307 960v-364.16l315.52 181.973 85.333-147.627-315.52-182.187 315.52-182.187-85.333-147.627-315.52 181.973v-364.16h-170.667v364.16l-315.307-181.973-85.333 147.627 315.307 182.187-315.307 182.187 85.333 147.627 315.307-181.973v364.16h170.667z" />
<glyph unicode="&#xe965;" glyph-name="medical-omdpi" horiz-adv-x="989" d="M556.032 919.040v-364.544l315.802 182.272 61.44-106.496-315.802-182.272 315.802-182.272-61.44-106.496-315.802 182.272v-364.544h-122.88v364.544l-315.802-182.272-61.44 106.496 315.802 182.272-315.802 182.272 61.44 106.496 315.802-182.272v364.544h122.88zM596.992 960h-204.8v-334.643l-289.792 167.322-102.4-177.357 289.792-167.322-289.792-167.322 102.4-177.357 289.792 167.322v-334.643h204.8v334.643l289.792-167.322 102.4 177.357-289.792 167.322 289.792 167.322-102.4 177.357-289.792-167.322v334.643z" />
<glyph unicode="&#xe966;" glyph-name="menumdpi" d="M93.091 960h279.273c51.413 0 93.091-41.678 93.091-93.091v-279.273c0-51.413-41.678-93.091-93.091-93.091h-279.273c-51.413 0-93.091 41.678-93.091 93.091v279.273c0 51.413 41.678 93.091 93.091 93.091zM651.636 960h279.273c51.413 0 93.091-41.678 93.091-93.091v-279.273c0-51.413-41.678-93.091-93.091-93.091h-279.273c-51.413 0-93.091 41.678-93.091 93.091v279.273c0 51.413 41.678 93.091 93.091 93.091zM93.091 401.455h279.273c51.413 0 93.091-41.678 93.091-93.091v-279.273c0-51.413-41.678-93.091-93.091-93.091h-279.273c-51.413 0-93.091 41.678-93.091 93.091v279.273c0 51.413 41.678 93.091 93.091 93.091zM651.636 401.455h279.273c51.413 0 93.091-41.678 93.091-93.091v-279.273c0-51.413-41.678-93.091-93.091-93.091h-279.273c-51.413 0-93.091 41.678-93.091 93.091v279.273c0 51.413 41.678 93.091 93.091 93.091z" />
<glyph unicode="&#xe967;" glyph-name="menu-omdpi" d="M372.364 494.545h-279.273c-51.413 0-93.091 41.678-93.091 93.091v0 279.273c0 51.413 41.678 93.091 93.091 93.091v0h279.273c51.413 0 93.091-41.678 93.091-93.091v0-279.273c0-51.413-41.678-93.091-93.091-93.091v0zM93.091 913.455c-25.706 0-46.545-20.839-46.545-46.545v0-279.273c0-25.706 20.839-46.545 46.545-46.545v0h279.273c25.706 0 46.545 20.839 46.545 46.545v0 279.273c0 25.706-20.839 46.545-46.545 46.545v0zM930.909 494.545h-279.273c-51.413 0-93.091 41.678-93.091 93.091v0 279.273c0 51.413 41.678 93.091 93.091 93.091v0h279.273c51.413 0 93.091-41.678 93.091-93.091v0-279.273c0-51.413-41.678-93.091-93.091-93.091v0zM651.636 913.455c-25.706 0-46.545-20.839-46.545-46.545v0-279.273c0-25.706 20.839-46.545 46.545-46.545v0h279.273c25.706 0 46.545 20.839 46.545 46.545v0 279.273c0 25.706-20.839 46.545-46.545 46.545v0zM372.364-64h-279.273c-51.413 0-93.091 41.678-93.091 93.091v0 279.273c0 51.413 41.678 93.091 93.091 93.091v0h279.273c51.413 0 93.091-41.678 93.091-93.091v0-279.273c0-51.413-41.678-93.091-93.091-93.091v0zM93.091 354.909c-25.706 0-46.545-20.839-46.545-46.545v0-279.273c0-25.706 20.839-46.545 46.545-46.545v0h279.273c25.706 0 46.545 20.839 46.545 46.545v0 279.273c0 25.706-20.839 46.545-46.545 46.545v0zM930.909-64h-279.273c-51.413 0-93.091 41.678-93.091 93.091v0 279.273c0 51.413 41.678 93.091 93.091 93.091v0h279.273c51.413 0 93.091-41.678 93.091-93.091v0-279.273c0-51.413-41.678-93.091-93.091-93.091v0zM651.636 354.909c-25.706 0-46.545-20.839-46.545-46.545v0-279.273c0-25.706 20.839-46.545 46.545-46.545v0h279.273c25.706 0 46.545 20.839 46.545 46.545v0 279.273c0 25.706-20.839 46.545-46.545 46.545v0z" />
<glyph unicode="&#xe968;" glyph-name="micmdpi" horiz-adv-x="548" d="M273.86 126.512c-151.195 0.136-273.725 122.666-273.86 273.848v119.083c0 19.728 15.993 35.721 35.721 35.721s35.721-15.993 35.721-35.721v0-119.070c0-111.793 90.626-202.419 202.419-202.419s202.419 90.626 202.419 202.419v0 119.070c0 19.728 15.993 35.721 35.721 35.721s35.721-15.993 35.721-35.721v0-119.070c-0.136-151.195-122.666-273.725-273.848-273.86h-0.013zM273.86-64c-19.728 0-35.721 15.993-35.721 35.721v0 190.512c0 19.728 15.993 35.721 35.721 35.721s35.721-15.993 35.721-35.721v0-190.512c0-19.728-15.993-35.721-35.721-35.721v0zM440.558-64h-333.395c-19.728 0-35.721 15.993-35.721 35.721s15.993 35.721 35.721 35.721v0h333.395c19.728 0 35.721-15.993 35.721-35.721s-15.993-35.721-35.721-35.721v0zM252.19 960h43.341c73.52 0 133.12-59.6 133.12-133.12v-448.179c0-73.52-59.6-133.12-133.12-133.12h-43.341c-73.52 0-133.12 59.6-133.12 133.12v448.179c0 73.52 59.6 133.12 133.12 133.12z" />
<glyph unicode="&#xe969;" glyph-name="minus-sign-circlemdpi" d="M512 960c-282.77 0-512-229.23-512-512s229.23-512 512-512c282.77 0 512 229.23 512 512v0c0 282.77-229.23 512-512 512v0zM768 424.727h-512v46.545h512z" />
<glyph unicode="&#xe96a;" glyph-name="most-viewedmdpi" d="M0 960v-1024h1024v1024zM273.925 86.281l-59.935 44.396-60.157-44.396 22.198 70.59-60.157 44.396h75.030l22.198 70.59 22.198-70.59h75.474l-60.157-44.396zM251.061 427.245l22.198-70.59-59.935 44.396-60.157-44.396 24.418 70.59-60.157 44.396h73.476l22.198 70.59 22.198-70.59h75.474zM251.061 696.952l22.198-70.59-59.935 44.396-60.157-44.396 22.198 70.59-60.157 44.396h75.696l22.198 70.59 22.198-70.59h75.474zM889.257 157.981h-510.557v47.282h510.557zM889.257 424.359h-510.557v47.282h510.557zM889.257 690.737h-510.557v47.282h510.557z" />
<glyph unicode="&#xe96b;" glyph-name="musicmdpi" horiz-adv-x="786" d="M0 66.787c0 61.359 49.045 98.515 98.090 110.404 71.763 18.471 156.689 22.081 156.689 58.812v594.485c0 24.629 12.951 31.21 36.731 36.731 145.649 33.334 334.398 67.729 457.329 92.782 23.992 4.246 36.731-25.053 36.731-37.368v-720.176c0-73.249-63.695-156.902-148.621-156.902-101.912 0-148.621 45.436-148.621 106.158 0 84.926 55.414 114.651 106.158 127.39 84.926 21.232 148.621 14.437 148.621 63.695s2.335 316.988 2.335 341.616-11.040 32.272-49.045 24.629c-61.359-12.314-301.489-61.996-362.848-74.098-38.005-7.006-36.306-23.992-36.306-48.62v-492.148c0-69.852-55.414-158.175-173.887-158.175-86.625 0-123.356 68.578-123.356 130.787z" />
<glyph unicode="&#xe96c;" glyph-name="paper-plane-omdpi" horiz-adv-x="1012" d="M555.726-64l-184.722 381.936-371.005 173.567 1011.73 468.497zM105.746 491.503l298.499-139.21 149.696-309.654 368.774 826.785zM375.597 342.612l564.743 567.906 31.638-31.462-564.743-567.906-31.638 31.462z" />
<glyph unicode="&#xe96d;" glyph-name="phonemdpi" d="M993.29 160.25c-58.222 58.222-172.746 127.96-233.527 127.96-45.106 0-102.688-35.509-133.078-53.423-4.776-2.99-10.578-4.763-16.795-4.763s-12.019 1.773-16.929 4.842l0.135-0.078c-59.762 40.975-112.055 84.634-159.907 132.716l-0.043 0.043c-48.124 47.895-91.784 100.188-130.355 156.253l-2.404 3.697c-2.99 4.776-4.763 10.578-4.763 16.795s1.773 12.019 4.842 16.929l-0.078-0.135c15.675 31.99 51.504 89.572 51.504 134.678 0 60.781-69.738 175.305-127.96 232.247s-103.648 27.192-159.95-27.831c-37.493-32.368-61.728-79.207-63.967-131.741l-0.013-0.378c0-31.99 5.758-69.418 63.98-191.94 66.015-128.793 145.9-239.415 239.927-336.227l-0.321 0.332c96.561-93.847 207.29-173.839 328.519-236.32l7.696-3.605c122.842-57.902 159.95-63.98 191.94-63.98 53.151 2.065 100.25 26.339 132.559 63.744l0.199 0.236c54.703 55.983 86.693 101.728 28.791 159.95z" />
<glyph unicode="&#xe96e;" glyph-name="photosmdpi" horiz-adv-x="1291" d="M155.826 781.913h1135.304v-845.913h-1135.304v845.913zM111.304 826.435h1024v133.565h-1135.304v-845.913h111.304v712.348z" />
<glyph unicode="&#xe96f;" glyph-name="photos-omdpi" horiz-adv-x="1269" d="M1268.87-64h-1113.043v845.913h1113.043zM200.348-19.478h1024v756.87h-1024zM111.304 114.087h-111.304v845.913h1113.043v-133.565h-44.522v89.043h-1024v-756.87h66.783v-44.522z" />
<glyph unicode="&#xe970;" glyph-name="play-circlemdpi" d="M752.527 471.185l-372.995 176.284c-2.93 1.721-6.453 2.737-10.213 2.737s-7.284-1.016-10.31-2.789l0.096 0.052c-6.145-3.913-10.172-10.674-10.213-18.378v-361.358c0.667-11.419 10.091-20.427 21.618-20.427 0.012 0 0.024 0 0.037 0h-0.002c0.024 0 0.053 0 0.082 0 3.4 0 6.607 0.831 9.427 2.301l-0.113-0.054 372.586 175.263c8.756 4.114 14.709 12.859 14.709 22.995 0 0.102-0.001 0.205-0.002 0.307v-0.016c0.001 0.065 0.001 0.142 0.001 0.218 0 10.1-5.959 18.808-14.553 22.799l-0.155 0.065zM511.898 960c-282.826 0-512.102-229.276-512.102-512.102s229.276-512.102 512.102-512.102c282.826 0 512.102 229.276 512.102 512.102 0 0.072 0 0.143 0 0.215v-0.011c-0.349 282.645-229.441 511.666-512.080 511.898h-0.022zM511.898-20.491c-258.797 0-468.593 209.796-468.593 468.593s209.796 468.593 468.593 468.593c258.797 0 468.593-209.796 468.593-468.593v0c-0.695-258.517-210.077-467.898-468.527-468.593h-0.066z" />
<glyph unicode="&#xe971;" glyph-name="podcastsmdpi" horiz-adv-x="916" d="M458.298 374.387c-66.489 0-109.597-36.532-109.597-91.331l18.266-255.726c1.477-49.835 41.495-89.854 91.192-91.327l0.138-0.003c49.835 1.477 89.854 41.495 91.327 91.192l0.003 0.138 18.266 255.726c0 55.894-42.925 91.331-109.597 91.331zM458.298 630.113c-60.529 0-109.597-49.068-109.597-109.597s49.068-109.597 109.597-109.597c60.529 0 109.597 49.068 109.597 109.597v0c0 60.529-49.068 109.597-109.597 109.597v0zM458.298 774.964c0.073 0 0.158 0 0.244 0 153.138 0 277.28-124.143 277.28-277.28 0-90.574-43.427-171.005-110.596-221.606l-0.707-0.51v-46.213c3.836 2.557 7.854 4.749 11.508 7.489 84.050 57.686 138.468 153.246 138.468 261.515 0 174.625-141.562 316.187-316.187 316.187s-316.187-141.562-316.187-316.187c0-109.421 55.582-205.86 140.053-262.624l1.134-0.718 10.046-6.21v45.848c-68.375 51.119-112.163 131.87-112.163 222.848 0 152.92 123.709 276.947 276.509 277.461h0.049zM457.75 960c-252.67-0.316-457.377-205.218-457.377-457.932 0-197.69 125.269-366.122 300.76-430.247l3.181-1.017 7.854-2.557v41.099c-161.356 61.093-273.992 214.337-273.992 393.889 0 232.027 188.095 420.121 420.121 420.121s420.121-188.095 420.121-420.121c0-179.551-112.636-332.795-271.105-392.927l-2.887-0.962v-40.733l7.489 2.375c178.402 65.284 303.43 233.582 303.43 431.081 0 252.791-204.831 457.74-457.577 457.932h-0.019z" />
<glyph unicode="&#xe972;" d="M204.8 396.8h-153.6c-28.277 0-51.2 22.923-51.2 51.2s22.923 51.2 51.2 51.2v0h153.6c28.277 0 51.2-22.923 51.2-51.2s-22.923-51.2-51.2-51.2v0z" />
<glyph unicode="&#xe973;" d="M972.8 396.8h-153.6c-28.277 0-51.2 22.923-51.2 51.2s22.923 51.2 51.2 51.2v0h153.6c28.277 0 51.2-22.923 51.2-51.2s-22.923-51.2-51.2-51.2v0z" />
<glyph unicode="&#xe974;" d="M512 704c-28.277 0-51.2 22.923-51.2 51.2v0 153.6c0 28.277 22.923 51.2 51.2 51.2s51.2-22.923 51.2-51.2v0-153.6c0-28.277-22.923-51.2-51.2-51.2v0z" />
<glyph unicode="&#xe975;" d="M512-64c-28.277 0-51.2 22.923-51.2 51.2v0 153.6c0 28.277 22.923 51.2 51.2 51.2s51.2-22.923 51.2-51.2v0-153.6c0-28.277-22.923-51.2-51.2-51.2v0z" />
<glyph unicode="&#xe976;" d="M112.896 166.4c-28.238 0.052-51.109 22.955-51.109 51.2 0 18.815 10.148 35.259 25.27 44.158l0.24 0.13 133.12 76.8c7.776 5.013 17.274 7.992 27.468 7.992 28.277 0 51.2-22.923 51.2-51.2 0-19.601-11.014-36.629-27.191-45.233l-0.277-0.134-133.12-76.8c-7.34-4.33-16.168-6.895-25.595-6.912h-0.005z" />
<glyph unicode="&#xe977;" d="M777.984 550.4c-28.238 0.052-51.109 22.955-51.109 51.2 0 18.815 10.148 35.259 25.27 44.158l0.24 0.13 133.12 76.8c6.884 3.674 15.056 5.832 23.732 5.832 28.277 0 51.2-22.923 51.2-51.2 0-18.083-9.375-33.977-23.53-43.086l-0.203-0.122-133.12-76.8c-7.34-4.33-16.168-6.895-25.595-6.912h-0.005z" />
<glyph unicode="&#xe978;" d="M358.4 662.784c-18.831 0.020-35.279 10.203-44.157 25.358l-0.131 0.242-76.8 133.12c-3.674 6.884-5.832 15.056-5.832 23.732 0 28.277 22.923 51.2 51.2 51.2 18.083 0 33.977-9.375 43.086-23.53l0.122-0.203 76.8-133.12c4.313-7.344 6.86-16.174 6.86-25.6 0-28.259-22.893-51.17-51.145-51.2h-0.003z" />
<glyph unicode="&#xe979;" d="M742.4-2.304c-18.831 0.020-35.279 10.203-44.157 25.358l-0.131 0.242-76.8 133.12c-3.674 6.884-5.832 15.056-5.832 23.732 0 28.277 22.923 51.2 51.2 51.2 18.083 0 33.977-9.375 43.086-23.53l0.122-0.203 76.8-133.12c4.307-7.34 6.85-16.164 6.85-25.583 0-18.826-10.161-35.279-25.297-44.174l-0.24-0.131c-7.34-4.33-16.168-6.895-25.595-6.912h-0.005z" />
<glyph unicode="&#xe97a;" d="M281.6-2.304c-9.432 0.017-18.26 2.582-25.84 7.043l0.24-0.131c-15.377 9.026-25.538 25.479-25.538 44.305 0 9.419 2.543 18.244 6.981 25.825l-0.131-0.242 76.8 133.12c8.739 16.453 25.767 27.468 45.368 27.468 28.277 0 51.2-22.923 51.2-51.2 0-10.194-2.979-19.691-8.114-27.67l0.122 0.203-76.8-133.12c-9.009-15.397-25.457-25.58-44.285-25.6h-0.003z" />
<glyph unicode="&#xe97b;" d="M665.6 662.784c-28.254 0.030-51.148 22.941-51.148 51.2 0 9.426 2.547 18.256 6.99 25.842l-0.131-0.242 76.8 133.12c9.231 14.358 25.125 23.732 43.208 23.732 28.277 0 51.2-22.923 51.2-51.2 0-8.676-2.158-16.848-5.967-24.009l0.134 0.277-76.8-133.12c-9.009-15.397-25.457-25.58-44.285-25.6h-0.003z" />
<glyph unicode="&#xe97c;" d="M246.016 550.4c-9.432 0.017-18.26 2.582-25.84 7.043l0.24-0.131-133.12 76.8c-16.453 8.739-27.468 25.767-27.468 45.368 0 28.277 22.923 51.2 51.2 51.2 10.194 0 19.691-2.979 27.67-8.114l-0.203 0.122 133.12-76.8c15.361-9.029 25.509-25.474 25.509-44.288 0-28.245-22.871-51.148-51.104-51.2h-0.005z" />
<glyph unicode="&#xe97d;" d="M911.104 166.4c-9.432 0.017-18.26 2.582-25.84 7.043l0.24-0.131-133.12 76.8c-16.453 8.739-27.468 25.767-27.468 45.368 0 28.277 22.923 51.2 51.2 51.2 10.194 0 19.691-2.979 27.67-8.114l-0.203 0.122 133.12-76.8c15.361-9.029 25.509-25.474 25.509-44.288 0-28.245-22.871-51.148-51.104-51.2h-0.005z" />
<glyph unicode="&#xe97e;" d="M1024 448c0-282.77-229.23-512-512-512s-512 229.23-512 512c0 282.77 229.23 512 512 512s512-229.23 512-512z" />
<glyph unicode="&#xe97f;" d="M430.080 218.624v352.256h-40.96v-352.256l-104.653 104.653-28.672-28.672 153.805-153.805 153.19 152.986-28.262 28.877z" />
<glyph unicode="&#xe980;" d="M552.96 448h-61.44v40.96h61.44c67.865 0 122.88 55.015 122.88 122.88s-55.015 122.88-122.88 122.88c-67.865 0-122.88-55.015-122.88-122.88v0-40.96h-40.96v40.96c0 90.486 73.354 163.84 163.84 163.84s163.84-73.354 163.84-163.84c0-90.486-73.354-163.84-163.84-163.84v0z" />
<glyph unicode="&#xe981;" glyph-name="purchased-omdpi" d="M512-64c-282.77 0-512 229.23-512 512s229.23 512 512 512c282.77 0 512-229.23 512-512v0c0-282.77-229.23-512-512-512v0zM512 919.040c-260.148 0-471.040-210.892-471.040-471.040s210.892-471.040 471.040-471.040c260.148 0 471.040 210.892 471.040 471.040v0c0 260.148-210.892 471.040-471.040 471.040v0zM430.080 179.098h-40.96v432.742c0 90.486 73.354 163.84 163.84 163.84s163.84-73.354 163.84-163.84c0-90.486-73.354-163.84-163.84-163.84v0h-61.44v40.96h61.44c67.865 0 122.88 55.015 122.88 122.88s-55.015 122.88-122.88 122.88c-67.865 0-122.88-55.015-122.88-122.88v0zM410.010 131.174l-159.334 159.334 29.082 28.877 130.253-130.253 130.253 130.253 29.082-28.877-159.334-159.334z" />
<glyph unicode="&#xe982;" glyph-name="apple-watch-sidemdpi" horiz-adv-x="968" d="M155.826 548.174c0-30.736-24.916-55.652-55.652-55.652s-55.652 24.916-55.652 55.652c0 30.736 24.916 55.652 55.652 55.652s55.652-24.916 55.652-55.652zM189.663 748.077c-6.767-10.435-13.384-22.56-19.095-35.183l-0.717-1.77c-8.445-20.65-28.38-34.934-51.652-34.934-7.456 0-14.569 1.466-21.067 4.126l0.371-0.134c-20.547 8.492-34.742 28.376-34.742 51.575 0 7.485 1.478 14.625 4.157 21.144l-0.135-0.371c8.615 20.033 17.7 36.996 28.024 53.087l-0.866-1.442c-52.577-3.378-93.941-46.848-93.941-99.98 0-0.068 0-0.136 0-0.205v0.011-512c0-0.058 0-0.126 0-0.194 0-53.132 41.364-96.602 93.647-99.965l0.294-0.015c-9.503 14.728-18.591 31.768-26.271 49.558l-0.887 2.31c-2.459 6.053-3.886 13.075-3.886 20.43 0 30.736 24.916 55.652 55.652 55.652 7.835 0 15.293-1.619 22.055-4.541l-0.361 0.139c13.668-5.851 24.269-16.669 29.698-30.128l0.132-0.369c6.341-14.343 12.961-26.473 20.443-37.989l-0.631 1.036c6.724 12.951 10.673 28.274 10.685 44.518v512.004c-0.237 15.972-4.244 30.956-11.166 44.173l0.258-0.541zM100.174 470.261c-43.030 0-77.913 34.883-77.913 77.913s34.883 77.913 77.913 77.913c43.030 0 77.913-34.883 77.913-77.913v0c0-43.030-34.883-77.913-77.913-77.913v0zM763.77 136.348c-12.265 0.039-22.192 9.991-22.192 22.261 0 7.129 3.351 13.475 8.564 17.549l0.049 0.037c46.212 43.297 75.005 104.703 75.005 172.834 0 3.492-0.076 6.965-0.225 10.42l0.017-0.492c2.502 35.069 14.382 66.937 33.119 93.645l-0.395-0.595c21.793 31.698 35.381 70.548 36.942 112.474l0.011 0.389c0 167.179-165.398 350.609-315.882 350.609h-155.826c-204.355 0-280.932-184.097-284.049-191.889-3.359-8.301-11.354-14.050-20.691-14.050-2.971 0-5.805 0.582-8.397 1.638l0.149-0.054c-8.301 3.359-14.050 11.354-14.050 20.691 0 2.971 0.582 5.805 1.638 8.397l-0.054-0.149c0.89 2.226 90.379 219.937 325.454 219.937h155.826c175.193 0 360.403-203.019 360.403-395.13-1.451-50.453-17.294-96.932-43.541-135.808l0.577 0.907c-14.276-19.928-23.861-44.129-26.656-70.358l-0.057-0.654c0.121-3.072 0.19-6.679 0.19-10.301 0-82.236-35.447-156.193-91.894-207.425l-0.232-0.208c-3.728-2.916-8.483-4.675-13.649-4.675-0.054 0-0.107 0-0.161 0.001h0.008zM847.249 485.621c-12.294 0-22.261 9.967-22.261 22.261v0 29.162c0.115 2.768 0.181 6.016 0.181 9.279 0 68.328-28.771 129.936-74.858 173.372l-0.119 0.111c-5.267 4.111-8.622 10.461-8.622 17.594 0 5.131 1.736 9.857 4.653 13.622l-0.038-0.051c4.109 5.33 10.496 8.73 17.677 8.73 5.193 0 9.972-1.778 13.758-4.76l-0.048 0.036c56.68-51.441 92.127-125.397 92.127-207.633 0-3.623-0.069-7.229-0.205-10.819l0.016 0.518v-29.162c0-12.294-9.967-22.261-22.261-22.261v0zM578.783-64h-155.826c-235.075 0-324.563 217.711-325.454 219.937-0.999 2.439-1.578 5.27-1.578 8.237 0 12.305 9.975 22.281 22.281 22.281 9.339 0 17.336-5.746 20.649-13.895l0.054-0.149c3.117-7.791 79.694-191.889 284.049-191.889h155.826c150.483 0 315.882 183.43 315.882 350.609v47.193c0 12.294 9.967 22.261 22.261 22.261s22.261-9.967 22.261-22.261v0-47.193c0-192.111-185.21-395.13-360.403-395.13zM934.957 158.609c-0.736-0.16-1.582-0.252-2.449-0.252s-1.713 0.092-2.528 0.266l0.079-0.014c-3.702 1.921-6.187 5.725-6.187 10.11 0 1.744 0.393 3.397 1.096 4.874l-0.029-0.069 22.261 44.522c1.855 3.733 5.642 6.253 10.017 6.253 6.158 0 11.15-4.992 11.15-11.15 0-1.783-0.418-3.468-1.162-4.962l0.029 0.065-22.261-44.522c-2.009-3.109-5.457-5.138-9.38-5.138-0.224 0-0.447 0.007-0.668 0.020l0.030-0.001z" />
<glyph unicode="&#xe983;" glyph-name="radiomdpi" horiz-adv-x="1254" d="M716.71 448.448c0-49.479-40.11-89.589-89.589-89.589s-89.589 40.11-89.589 89.589c0 49.479 40.11 89.589 89.589 89.589s89.589-40.11 89.589-89.589zM822.425 633.001c-6.48 7.407-15.951 12.060-26.509 12.060-5.42 0-10.553-1.226-15.138-3.416l0.212 0.091c-11.090-5.58-18.565-16.87-18.565-29.907 0-8.79 3.398-16.786 8.953-22.746l-0.018 0.020c35.696-36.008 57.754-85.587 57.754-140.318s-22.058-104.31-57.768-140.333l0.014 0.014c-5.873-5.876-9.505-13.993-9.505-22.957s3.632-17.081 9.505-22.957v0-1.344c6.006-6.045 14.325-9.787 23.517-9.787s17.511 3.742 23.515 9.785l0.002 0.002c47.019 48.348 76.012 114.438 76.012 187.3 0 71.495-27.916 136.471-73.443 184.62l0.119-0.127zM425.547 448.448c0.107 54.673 21.963 104.221 57.375 140.469l-0.038-0.039c5.538 5.972 8.935 13.997 8.935 22.815 0 12.899-7.269 24.1-17.935 29.73l-0.183 0.088c-4.469 2.171-9.72 3.439-15.268 3.439-10.568 0-20.062-4.604-26.584-11.915l-0.031-0.035c-45.512-47.692-73.52-112.433-73.52-183.717 0-73.091 29.446-139.305 77.123-187.425l-0.020 0.020c5.97-6.033 14.251-9.768 23.405-9.768s17.435 3.736 23.402 9.765l0.003 0.003c5.546 5.815 8.959 13.708 8.959 22.397s-3.413 16.582-8.971 22.41l0.012-0.013c-35.058 36.025-56.677 85.281-56.677 139.587 0 0.769 0.004 1.537 0.013 2.303l-0.001-0.117zM249.281 496.378c11.56 86.815 51.072 162.783 109.041 220.131l0.034 0.033c5.978 5.995 9.675 14.268 9.675 23.405s-3.697 17.41-9.676 23.406l0.001-0.001c-6.102 6.017-14.488 9.734-23.741 9.734s-17.639-3.716-23.745-9.738l0.004 0.004c-79.97-80.874-129.371-192.12-129.371-314.905s49.401-234.030 129.412-314.946l-0.041 0.041c6.162-6.706 14.975-10.894 24.765-10.894 18.554 0 33.596 15.041 33.596 33.596 0 9.567-3.999 18.201-10.417 24.319l-0.013 0.013c-69.399 68.746-112.369 164.068-112.369 269.426 0 16.346 1.034 32.45 3.041 48.251l-0.195-1.877zM1075.066 454.943c-2.285 120.527-51.827 229.055-130.807 308.193l0.007-0.007c-6.030 6.086-14.389 9.853-23.629 9.853-18.368 0-33.259-14.89-33.259-33.259 0-9.128 3.678-17.398 9.632-23.408l-0.003 0.003c68.321-68.535 110.565-163.102 110.565-267.535s-42.243-198.999-110.574-267.544l0.010 0.010c-6.431-6.131-10.431-14.765-10.431-24.332 0-18.554 15.041-33.596 33.596-33.596 9.79 0 18.602 4.188 24.743 10.87l0.022 0.024c80.431 80.585 130.169 191.83 130.169 314.692 0 2.122-0.015 4.241-0.044 6.356l0.004-0.32zM1252.675 493.018c-14.261 189.022-110.331 353.059-252.512 458.39l-1.696 1.201c-5.569 4.253-12.628 6.815-20.285 6.815-10.497 0-19.869-4.814-26.030-12.354l-0.048-0.060c-4.531-5.594-7.274-12.797-7.274-20.641 0-10.898 5.295-20.56 13.454-26.553l0.092-0.064c139.066-103.090 228.219-266.682 228.219-451.098 0-183.73-88.492-346.792-225.179-448.889l-1.472-1.052c-9.33-6.123-15.406-16.536-15.406-28.367 0-18.678 15.142-33.82 33.82-33.82 7.969 0 15.293 2.756 21.074 7.367l-0.068-0.053c155.341 115.488 254.891 298.471 254.891 504.704 0 15.65-0.573 31.167-1.7 46.53l0.121-2.054zM293.179-0.616c-137.422 103.193-225.377 265.822-225.377 448.994 0 184.446 89.183 348.062 226.779 450.080l1.51 1.069c8.223 6.013 13.504 15.626 13.504 26.472 0 7.92-2.816 15.182-7.5 20.84l0.044-0.055c-6.198 8.114-15.878 13.295-26.769 13.295-7.649 0-14.7-2.556-20.347-6.86l0.082 0.060c-155.389-115.485-254.974-298.495-254.974-504.765 0-207.149 100.436-390.839 255.268-505.032l1.722-1.213c5.162-4.079 11.763-6.543 18.941-6.543 10.811 0 20.315 5.591 25.781 14.038l0.073 0.12c3.703 5.66 5.906 12.593 5.906 20.040 0 11.986-5.706 22.64-14.551 29.392l-0.090 0.066z" />
<glyph unicode="&#xe984;" glyph-name="rotatemdpi" horiz-adv-x="887" d="M616.751-64h-616.751v616.751h616.751zM38.547-25.453h539.657v539.657h-539.657zM848.033 533.478c-0.054-34.681-6.7-67.795-18.75-98.177l0.633 1.809h41.053c9.792 28.768 15.444 61.908 15.444 96.367 0 170.252-137.969 308.28-308.199 308.376h-57.83v-38.547h57.82c149.022 0 269.829-120.806 269.829-269.829v0zM578.204 689.4v270.6l-217.598-135.3 217.598-135.3z" />
<glyph unicode="&#xe985;" glyph-name="search_1mdpi" d="M395.528 168.945c-218.444 0-395.528 177.084-395.528 395.528s177.084 395.528 395.528 395.528c218.444 0 395.528-177.084 395.528-395.528v0c0-218.444-177.084-395.528-395.528-395.528v0zM395.528 876.731c-172.456 0-312.259-139.803-312.259-312.259s139.803-312.259 312.259-312.259c172.456 0 312.259 139.803 312.259 312.259v0c0 172.456-139.803 312.259-312.259 312.259v0zM620.119 248.388l91.853 91.853 312.211-312.211-91.853-91.853-312.211 312.211z" />
<glyph unicode="&#xe987;" glyph-name="smile_1mdpi" d="M416.254 557.706c0-30.070-24.376-54.446-54.446-54.446s-54.446 24.376-54.446 54.446c0 30.070 24.376 54.446 54.446 54.446s54.446-24.376 54.446-54.446zM716.637 557.706c0-30.070-24.376-54.446-54.446-54.446s-54.446 24.376-54.446 54.446c0 30.070 24.376 54.446 54.446 54.446s54.446-24.376 54.446-54.446z" />
<glyph unicode="&#xe98c;" glyph-name="starmdpi" horiz-adv-x="1077" d="M870.96-64l-332.713 241.815-332.713-241.815 127.18 391.189-332.713 241.815h411.26l126.987 390.996 127.18-390.996h411.26l-332.713-241.815z" />
<glyph unicode="&#xe98d;" glyph-name="star-omdpi" horiz-adv-x="1077" d="M870.96-64l-332.713 241.815-332.713-241.815 127.18 391.189-332.713 241.815h411.26l126.987 390.996 127.18-390.996h411.26l-332.713-241.815zM538.247 228.571l254.746-185.077-97.266 298.94 254.553 185.077h-314.765l-96.495 299.326-96.495-299.326h-316.309l254.746-185.077-96.495-299.326z" />
<glyph unicode="&#xe98e;" glyph-name="stop-watch_1mdpi" horiz-adv-x="925" d="M461.804-64c-255.047 0-461.804 206.757-461.804 461.804s206.757 461.804 461.804 461.804c255.047 0 461.804-206.757 461.804-461.804v0c0-255.047-206.757-461.804-461.804-461.804v0zM461.804 819.451c-232.869 0-421.647-188.778-421.647-421.647s188.778-421.647 421.647-421.647c232.869 0 421.647 188.778 421.647 421.647v0c0 232.869-188.778 421.647-421.647 421.647v0zM441.725 739.137h40.157v-461.804h-40.157v461.804zM522.039 397.804c0-33.267-26.968-60.235-60.235-60.235s-60.235 26.968-60.235 60.235c0 33.267 26.968 60.235 60.235 60.235s60.235-26.968 60.235-60.235zM421.647 960h80.314v-120.471h-80.314v120.471zM840.28 858.848l85.186-85.186-52.815-52.815-85.186 85.186 52.815 52.815zM803.137 799.373h60.235v-60.235h-60.235v60.235z" />
<glyph unicode="&#xe98f;" glyph-name="stop-watchmdpi" horiz-adv-x="925" d="M501.961 857.801v102.199h-80.314v-102.199c-237.175-21.319-421.647-219.144-421.647-460.055 0-255.047 206.757-461.804 461.804-461.804s461.804 206.757 461.804 461.804c0 240.91-184.471 438.735-419.865 459.925l-1.782 0.129zM481.882 341.183v-63.849h-40.157v63.849c-23.346 8.65-39.685 30.728-39.685 56.621s16.338 47.971 39.268 56.486l0.417 0.136v284.712h40.157v-284.712c23.346-8.65 39.685-30.728 39.685-56.621s-16.338-47.971-39.268-56.486l-0.417-0.136zM803.137 739.137h51.401l18.271-18.071 52.605 52.605-85.133 85.333-52.806-52.806 15.661-15.661v-51.401z" />
<glyph unicode="&#xe990;" glyph-name="timermdpi" d="M512 960c-282.77 0-512-229.23-512-512s229.23-512 512-512c282.77 0 512 229.23 512 512v0c0 282.77-229.23 512-512 512v0zM512 17.92c-0.009 0-0.020 0-0.031 0-237.527 0-430.080 192.553-430.080 430.080 0 118.771 48.145 226.298 125.983 304.128v0l28.877-28.877c-70.166-70.375-113.55-167.485-113.55-274.729 0-214.905 174.215-389.12 389.12-389.12s389.12 174.215 389.12 389.12c0 207.813-162.906 377.578-367.982 388.556l-0.976 0.042v-184.32h-40.96v225.28h20.48c237.527 0 430.080-192.553 430.080-430.080s-192.553-430.080-430.080-430.080v0zM294.707 665.293s233.472-161.178 253.542-181.043c9.277-9.277 15.015-22.093 15.015-36.25 0-28.313-22.952-51.265-51.265-51.265-14.156 0-26.973 5.738-36.25 15.015v0c-19.866 20.070-181.043 253.542-181.043 253.542z" />
</font>
</defs>
</svg>
