<?xml version="1.0" encoding="utf-8"?>
<!-- Generator: Adobe Illustrator 19.0.0, SVG Export Plug-In . SVG Version: 6.00 Build 0)  -->
<svg version="1.1" id="_x39_c167f13-7fe2-4e7b-a8cb-8bb79342b68a"
	 xmlns="http://www.w3.org/2000/svg" xmlns:xlink="http://www.w3.org/1999/xlink" x="0px" y="0px" viewBox="170 91.8 951.8 610.2"
	 style="enable-background:new 170 91.8 951.8 610.2;" xml:space="preserve">
<style type="text/css">
	.st0{opacity:0.5;fill:url(#SVGID_1_);enable-background:new    ;}
	.st1{fill:#ECE8EB;}
	.st2{opacity:0.6;fill:#491A3C;enable-background:new    ;}
	.st3{opacity:0.6;fill:none;stroke:#535461;stroke-miterlimit:10;enable-background:new    ;}
	.st4{fill:url(#SVGID_2_);}
	.st5{fill:#FFFFFF;}
	.st6{fill:#EEEEEE;}
	.st7{fill:#FF5252;}
	.st8{fill:#FFFF00;}
	.st9{fill:#69F0AE;}
	.st10{opacity:0.5;fill:#491A3C;enable-background:new    ;}
	.st11{opacity:0.5;fill:url(#SVGID_3_);enable-background:new    ;}
	.st12{fill:#FDB797;}
	.st13{opacity:5.000000e-002;}
	.st14{fill:#F9CE43;}
	.st15{fill:#0D134D;}
	.st16{opacity:0.1;}
	.st17{fill:#E23553;}
	.st18{opacity:0.1;fill:none;stroke:#000000;stroke-miterlimit:10;enable-background:new    ;}
	.st19{fill:#491A3C;}
	.st20{fill:#F4F4F4;}
	.st21{fill:url(#SVGID_4_);}
	.st22{fill:#72351C;}
	.st23{fill:#333333;}
	.st24{fill:#4D8AF0;}
	.st25{fill:#F55F44;}
	.st26{opacity:0.1;enable-background:new    ;}
	.st27{fill:#F0E4E4;}
</style>
<title>website setup</title>
<linearGradient id="SVGID_1_" gradientUnits="userSpaceOnUse" x1="742.9163" y1="-51.2562" x2="742.9163" y2="178.5214" gradientTransform="matrix(1 0 0 -1 -124.06 650.7401)">
	<stop  offset="0" style="stop-color:#808080;stop-opacity:0.25"/>
	<stop  offset="0.54" style="stop-color:#808080;stop-opacity:0.12"/>
	<stop  offset="1" style="stop-color:#808080;stop-opacity:0.1"/>
</linearGradient>
<path class="st0" d="M1064.3,614.1c-1.7-7.1-7.4-12.5-11.5-18.5c-10.2-15.1-11.4-34.5-3.1-50.7c4-7.6,10.3-15.5,8-23.8
	c-1.5-5.6-6.6-9.4-11.5-12.4c-18.8-11.3-40.6-16.9-62.6-16.1c-26.9,1.1-53.8,11.9-80.2,6.5c-25.7-5.2-47.5-18.1-74.4-19.6
	c-20.1-1.1-40,0.1-60.2-2.1c-49.8-5.4-99.9-6.6-149.9-3.6c-50-3-100.1-1.8-149.9,3.6c-20.1,2.2-40,0.9-60.1,2.1
	c-27,1.5-48.8,14.4-74.5,19.6c-26.4,5.3-53.3-5.4-80.2-6.5c-22-0.9-43.7,4.7-62.6,16.1c-5,3-10,6.8-11.5,12.4
	c-2.3,8.3,4,16.2,8,23.8c8.3,16.2,7.1,35.6-3.1,50.7c-4.2,6-9.8,11.4-11.5,18.5c-3.5,14.3,10.4,26.9,24,32.5
	c37.1,15.5,82.1,8,116,29.6c15.2,9.7,28.5,25.2,46.5,25.8c12.2,0.4,23.2-6.4,33.9-12.3c15.9-8.9,32.5-16.5,49.7-22.6
	c15-5.3,30.9-9.6,46.7-7.8c24.2,2.7,128.7,53.1,175.8,23.3c32.3-20.5,57.4-20.6,81.7-23.3c15.8-1.8,31.7,2.5,46.7,7.8
	c17.2,6.1,33.8,13.7,49.7,22.6c10.6,6,21.7,12.7,33.9,12.3c18-0.6,31.3-16.1,46.5-25.8c33.9-21.6,78.9-14.1,116-29.6
	C1053.9,640.9,1067.8,628.4,1064.3,614.1z"/>
<path class="st1" d="M1059.4,613.8c-1.7-7-7.3-12.3-11.4-18.3c-10-14.9-11.2-34.1-3-50.2c4-7.5,10.2-15.3,7.9-23.5
	c-1.5-5.5-6.5-9.3-11.4-12.3c-18.6-11.2-40.1-16.8-61.9-15.9c-26.6,1.1-53.2,11.7-79.3,6.5c-25.5-5.1-47-17.9-73.7-19.4
	c-19.9-1.1-39.6,0.1-59.5-2c-49.2-5.3-98.8-6.5-148.3-3.5c-49.4-3-99-1.8-148.3,3.5c-19.9,2.2-39.6,0.9-59.5,2
	c-26.7,1.5-48.2,14.3-73.7,19.4c-26.1,5.3-52.7-5.4-79.3-6.5c-21.7-0.8-43.2,4.7-61.9,15.9c-4.9,3-9.9,6.8-11.4,12.3
	c-2.2,8.2,4,16,7.9,23.5c8.2,16,7,35.2-3,50.2c-4.1,5.9-9.7,11.2-11.4,18.3c-3.5,14.1,10.2,26.6,23.6,32.1
	c36.7,15.3,81.2,7.9,114.7,29.2c15,9.6,28.2,25,46,25.5c12,0.4,23-6.3,33.5-12.2c15.7-8.8,32.2-16.3,49.2-22.3
	c14.9-5.3,30.5-9.5,46.2-7.8c24,2.7,127.3,52.6,173.8,23.1c31.9-20.2,56.8-20.4,80.8-23.1c15.7-1.8,31.4,2.5,46.2,7.8
	c17,6,33.4,13.5,49.2,22.3c10.5,5.9,21.5,12.6,33.5,12.2c17.8-0.6,31-15.9,46-25.5c33.5-21.3,78.1-13.9,114.7-29.2
	C1049.1,640.4,1062.8,627.9,1059.4,613.8z"/>
<path class="st2" d="M204.9,311.1c2.9-1,5.9-2,8.9-1.4c5,0.9,8.5,5.6,10,10.5c1.5,4.9,1.4,10,2.4,15s3.2,10.2,7.7,12.6
	c4.5,2.4,9.8,1.5,14.7,0.9c6.5-0.8,13.1-0.8,19.6-0.2c5.5,0.5,11.9,2.4,13.5,7.7c1.3,4.3-1.3,8.7-3,12.8c-3.3,7.8-3.5,16.9,0.2,24.5
	c3.7,7.5,11.3,13.2,14.4,21.1c0.9,2,1.2,4.2,0.8,6.4c-0.5,1.5-1.2,2.9-2.3,4.1c-2.5,3.2-5.4,6-7.7,9.4c-4.7,7-6,15.7-6.5,24.1
	c-0.5,8.3-0.5,16.6,0.1,24.8c-6.1-2-12.9-0.2-19.3-1.5c-13.5-2.8-21.9-18.7-35.6-19.7c-6.5-0.5-13.5,2.6-19.3-0.4
	c-2.8-1.6-4.9-4.1-6.2-7c-2.4-5.2-3-11.1-1.6-16.7c1-3.9,3-7.6,2.6-11.6c-0.3-3.4-2.4-6.4-4.7-8.9c-6.7-7.1-16.4-11.4-21.1-19.9
	c-4.5-8.2-3.4-18.4,2.7-25.5c1.7-1.7,3.3-3.4,4.9-5.3c2.3-3.2,3-7.3,3.3-11.3c0.7-9.5-1-19.6,2.1-28.8
	C188.5,318.3,197.1,313.9,204.9,311.1z"/>
<path class="st3" d="M205.1,311.3c0,0,27.3,151.7,62.8,169.8"/>
<path class="st3" d="M281.1,353.3c0,0-29.3,4-58.5,34"/>
<path class="st3" d="M227.7,405c0,0-22.5-22-57.7-18.3"/>
<path class="st3" d="M293.9,414.6c0,0-41.1,3.5-56.3,19.3"/>
<path class="st3" d="M243.8,448.5c0,0-23-4-44.2,9.5"/>
<path class="st2" d="M1050.4,191.9c-4.6-1.6-9.5-3.1-14.3-2.3c-8,1.4-13.6,9-16,16.8c-2.4,7.8-2.3,16.1-3.8,24.1
	s-5.2,16.3-12.3,20.1s-15.7,2.3-23.6,1.4c-10.4-1.2-21-1.3-31.4-0.3c-8.8,0.9-19.1,3.8-21.7,12.3c-2.1,6.9,2.1,13.9,4.9,20.6
	c5.2,12.4,5.7,27.1-0.3,39.2c-6.1,12.3-18.1,21.1-23.2,33.9c-1.3,3.2-2.1,6.8-1.2,10.2c0.8,2.4,2,4.7,3.6,6.6c4,5.1,8.7,9.6,12.3,15
	c7.5,11.2,9.6,25.2,10.5,38.6c0.9,13.3,0.8,26.5-0.2,39.8c9.8-3.2,20.7-0.3,30.9-2.4c21.6-4.5,35.1-30,57.1-31.6
	c10.4-0.7,21.6,4.2,30.9-0.6c4.5-2.3,7.7-6.6,9.9-11.3c3.9-8.4,4.7-17.8,2.4-26.7c-1.6-6.2-4.8-12.2-4.2-18.6
	c0.5-5.5,3.8-10.3,7.6-14.2c10.7-11.4,26.2-18.3,33.9-31.9c7.2-12.7,5.4-29.9-4.3-40.9c-2.5-2.9-5.6-5.3-7.8-8.5
	c-3.7-5.2-4.9-11.8-5.3-18.1c-1.1-15.3,1.5-31.4-3.4-46.2C1076.7,203.5,1063,196.3,1050.4,191.9z"/>
<path class="st3" d="M1050.2,192.3c0,0-43.8,243.1-100.6,272.1"/>
<path class="st3" d="M928.4,259.6c0,0,46.9,6.4,93.7,54.6"/>
<path class="st3" d="M1013.9,342.4c0,0,36.1-35.3,92.5-29.3"/>
<path class="st3" d="M907.8,357.8c0,0,65.8,5.6,90.2,30.9"/>
<path class="st3" d="M988.1,412.2c0,0,36.9-6.5,70.9,15.3"/>
<linearGradient id="SVGID_2_" gradientUnits="userSpaceOnUse" x1="608.375" y1="208.63" x2="608.375" y2="703.83" gradientTransform="matrix(1 0 0 -1 0 795.66)">
	<stop  offset="0" style="stop-color:#808080;stop-opacity:0.25"/>
	<stop  offset="0.54" style="stop-color:#808080;stop-opacity:0.12"/>
	<stop  offset="1" style="stop-color:#808080;stop-opacity:0.1"/>
</linearGradient>
<polygon class="st4" points="244.9,91.8 244.9,116.8 244.9,587 971.8,587 971.8,116.8 971.8,91.8 "/>
<rect x="255.7" y="114.3" class="st5" width="708.5" height="463.8"/>
<rect x="255.7" y="92.2" class="st6" width="708.5" height="34.1"/>
<circle class="st7" cx="282.6" cy="108.8" r="8.3"/>
<circle class="st8" cx="305.4" cy="108.8" r="8.3"/>
<circle class="st9" cx="328.1" cy="108.8" r="8.3"/>
<rect x="282.8" y="181" class="st10" width="264" height="11"/>
<rect x="282.8" y="203" class="st10" width="264" height="11"/>
<rect x="282.8" y="225" class="st10" width="264" height="11"/>
<rect x="373.8" y="247" class="st10" width="173" height="11"/>
<rect x="282.8" y="269" class="st10" width="139" height="11"/>
<rect x="357.8" y="291" class="st10" width="107" height="11"/>
<rect x="581.8" y="258" class="st10" width="311" height="179"/>
<rect x="618.8" y="275" class="st6" width="311" height="179"/>
<linearGradient id="SVGID_3_" gradientUnits="userSpaceOnUse" x1="1146.1577" y1="-5.2372" x2="1146.1577" y2="398.6559" gradientTransform="matrix(1 0 0 -1 -124.06 650.7401)">
	<stop  offset="0" style="stop-color:#808080;stop-opacity:0.25"/>
	<stop  offset="0.54" style="stop-color:#808080;stop-opacity:0.12"/>
	<stop  offset="1" style="stop-color:#808080;stop-opacity:0.1"/>
</linearGradient>
<path class="st11" d="M1116.8,440.2c0.6-0.8,1-1.8,1-2.9c0,0,0-0.1,0-0.1c0,0,0.1-0.2,0.1-0.3v-0.1c0-0.1,0-0.2,0-0.3
	c0,0,0-0.1,0-0.1c0-0.1,0-0.2,0-0.4c-0.6-4-24.4-30.1-30.3-61.9c-0.7-3.5-1.6-6.9-2.9-10.1c0.2-1.6,0.1-3.3-0.3-4.9
	c-1-4.1-3-8.2-2-12.3c0.1-0.5,0.3-1,0.6-1.5c1.2-1.8,2.4-3.7,3.4-5.7c0.4-0.6,0.7-1.3,1-2c3.6-9.6-7.7-19.5-5.6-29.6
	c0.9-4.3,4.3-8.1,4.2-12.6c-0.1-5.1-4.8-9-9.6-10.9c-4.8-1.9-10.2-2.4-14.9-4.5c-10.4-4.6-16.1-15.7-25.6-21.9
	c-12.1-7.8-27.8-6.4-42.3-4.4c-1,0.1-1.8,0.8-2.2,1.6l0,0h-0.1c-0.1,0.3-0.2,0.6-0.4,0.9c-2,3.4-5.4,6-8.7,8.4
	c-4.1,2.9-8.4,5.7-10.9,9.9c-0.4,0.6-0.7,1.2-1,1.8c-5.4,9.6,1.1,13.8,9,16.1c-0.2,1.4-0.4,2.8-0.4,4.2c0,14,11.7,25.4,26.1,25.4
	c1.1,0,2.3-0.1,3.4-0.2l0.8,0.5h0.2c2.7,1.9,5,4.3,6,7.2l-8.4,6.4c0,0,0.3,0.9,0.8,2.3L975,353.5c-12.5,0.6-32.7-38.7-32.7-38.7
	s-3-22.5-13.7-26.6c-3.2-1.2-4.5,1.3-4.7,5.5c-4.8,5,3.2,33.1,3.2,33.1l25.5,45.1c2.4,4.6,3,7.5,14.3,9.3
	c9.3,1.4,38.2-8.8,48.2-12.6l0.5,4c-1.2,3-1.7,6.3-1.5,9.6c0,7.4,3.3,18.1,19.3,26.6c0,0,16.6,21.4,14.7,41.7c0,0,0.8,0.8,2.1,1.9
	c-0.2,5.7-1,12.7-3.9,15.5c-0.4,0.4-0.6,0.9-0.4,1.4c-0.1,0.6,0.2,1.2,0.7,1.5l-20.9,36.7c-0.8,1-1.6,2-2.4,3
	c-3.9,5-8.2,9.6-12.9,13.8c-3.5,3.1-7.1,6.5-7.8,7.8c-1.1,2-3.9,8.5-2.7,13.8c1.5,6.5,2.2,13.1,1.9,19.7l-2.7,47.4
	c-0.9,5.3-2.2,10.5-3.8,15.7h-0.4c0,0-10.1,12.1-26.1,15s-15.5,11-10.7,12.1s62.4-1.2,62.4-1.2s2.2-4.3,1.6-8.1
	c18.4-1.8,43.9-4.8,43.9-4.8s3.5-8.4-1.6-12c-1.9-1.5-3.3-3.5-4.1-5.8c-0.3-1.3-0.6-2.7-1-4.3c-0.1-0.8-0.1-1.2-0.1-1.2h-0.2
	c-0.9-4.5-1.6-9.3-1.2-11.8c1.5-6.7,5.4-45.1-4.2-56.1c-4.3-5-3.7-10.7-1.8-15.4c11.4-7.5,27.4-23.5,36.6-33.3
	c0.5,0.4,1,0.9,1.4,1.3l0.3,0.3c0,0,31.4-15.5,31.5-43C1121.8,453.3,1120.1,446.4,1116.8,440.2z M1016.2,633.8c-0.1-1,0-2,0.1-3
	l-1-0.1c0.6-4.4,2-9.2,5.2-12.6c5.5-9.9,9.3-20.6,11.4-31.7l5.8,21.8c0,0,0.6,4.5,0.7,9.3h-0.1
	C1038.4,617.5,1030.3,629,1016.2,633.8z"/>
<path class="st12" d="M1042.3,351.1c0,0-14.1,5.1-22,13.5c0,0-38.4,15.2-49.1,13.5s-11.3-4.5-13.5-9l-24.3-44c0,0-10.2-36.7,0-32.8
	s13,26,13,26s19.2,38.4,31,37.8l32.2-15.3c0,0,7.3-10.7,10.7-10.2S1042.3,351.1,1042.3,351.1z"/>
<g class="st13">
	<path d="M1042.3,351.1c0,0-14.1,5.1-22,13.5c0,0-38.4,15.2-49.1,13.5s-11.3-4.5-13.5-9l-24.3-44c0,0-10.2-36.7,0-32.8s13,26,13,26
		s19.2,38.4,31,37.8l32.2-15.3c0,0,7.3-10.7,10.7-10.2S1042.3,351.1,1042.3,351.1z"/>
</g>
<path class="st14" d="M1019.1,330.2l-11.3,8.8c0,0,5.6,14.7,4.2,19.9c-1.4,5.2,22.5-8.1,22.5-8.1l-9.8-22.1L1019.1,330.2z"/>
<g class="st13">
	<path d="M1019.1,330.2l-11.3,8.8c0,0,5.6,14.7,4.2,19.9c-1.4,5.2,22.5-8.1,22.5-8.1l-9.8-22.1L1019.1,330.2z"/>
</g>
<path class="st12" d="M999.7,320.4c0,0,25.1,8.2,13.5,22.6l36.1-17.5c0,0-15.2,1.1-24.8-22L999.7,320.4z"/>
<path class="st12" d="M1047.1,467.8l-31.1,55.9l20.9,81.3c0,0,2.3,18.1-1.1,19.8h23.7c0,0-4.6-16-3.4-21.5c1.4-6.5,5.1-44-4-54.8
	s4.5-24.8,4.5-24.8l27.1-42.9L1047.1,467.8z"/>
<g class="st13">
	<path d="M1047.1,467.8l-31.1,55.9l20.9,81.3c0,0,2.3,18.1-1.1,19.8h23.7c0,0-4.2-16.1-3.4-21.5s5.1-44-4-54.8s4.5-24.8,4.5-24.8
		l27.1-42.9L1047.1,467.8z"/>
</g>
<path class="st15" d="M1037.5,614c0,0-8.6,12.7-23.6,16.7c-15,4-13.8,11.9-9.2,12.6s59-5.8,59-5.8s3.3-8.2-1.5-11.8s-4.8-11-4.8-11
	L1037.5,614z"/>
<g class="st16">
	<path d="M1048.8,445.2c0,0,1.3,18.4-3.6,23.2c-0.6,0.6-0.6,1.5-0.1,2.1c0.1,0.1,0.2,0.2,0.4,0.3l14.5,7.8l13-24.8L1048.8,445.2z"/>
</g>
<path class="st17" d="M1048.8,444.6c0,0,1.3,18.4-3.6,23.2c-0.6,0.6-0.6,1.5-0.1,2.1c0.1,0.1,0.2,0.2,0.4,0.3l14.5,7.8l13-24.8
	L1048.8,444.6z"/>
<g class="st16">
	<path d="M1048.8,445.6c0,0,1.3,18.4-3.6,23.2c-0.6,0.6-0.6,1.5-0.1,2.1c0.1,0.1,0.2,0.2,0.4,0.3l14.5,7.8l13-24.8L1048.8,445.6z"/>
</g>
<path class="st12" d="M1049.3,480.7c0,0-8.4,5.6-26,28.7c-3.7,4.8-7.8,9.3-12.3,13.4c-3.3,3-6.8,6.4-7.5,7.6
	c-1.1,1.9-3.7,8.3-2.6,13.5c1.5,6.3,2,12.8,1.8,19.3l-2.6,46.3c0,0-3.4,20.9-7.9,23.2l23.2,4c0,0-1.7-14.7,5.1-22
	c0,0,15.8-27.1,11.9-57.6c0,0-1.7-13.5,13.6-20.9s46.3-42.9,46.3-42.9L1049.3,480.7z"/>
<path class="st15" d="M996.3,624.7c0,0-9.6,11.9-24.8,14.7s-14.7,10.7-10.2,11.9s59.3-1.1,59.3-1.1s4-7.9-0.6-11.9
	c-4.6-4-3.4-11.3-3.4-11.3L996.3,624.7z"/>
<g class="st16">
	<path d="M1063.5,450.8c0,0-6.9,23.1-15.6,29.9c-0.5,0.4-0.6,1.1-0.2,1.6c0.1,0.2,0.3,0.3,0.5,0.4c7.2,2.6,30.4,11.5,38.5,19.5
		l0.3,0.3c0,0,48.3-24.6,22.3-66.3L1063.5,450.8z"/>
</g>
<path class="st17" d="M1063.5,450.3c0,0-6.9,23.1-15.6,29.9c-0.5,0.4-0.6,1.1-0.2,1.6c0.1,0.2,0.3,0.3,0.5,0.4
	c7.2,2.6,30.4,11.5,38.5,19.5l0.3,0.3c0,0,48.3-24.6,22.3-66.3L1063.5,450.3z"/>
<g class="st16">
	<path d="M1023.8,335.5c-3.6,2.4-7.5,4.3-11.6,5.6l3.9,34.5c0,0-9.1,20.3,16.9,34.5c0,0,15.8,20.9,14,40.7c0,0,8.5,9.1,14.1,6.8
		c5.6-2.3,0.6,1.1,1.7,0.6s3.4,4.5,20.9,0c17.5-4.5,30-16.3,29.4-20.3c-0.6-4-23.1-29.4-28.6-60.5c-5.6-31.1-38.8-53.2-38.8-53.2
		s-1.1,0.6-3,1.4C1036.1,328.5,1029.8,331.8,1023.8,335.5z"/>
</g>
<g class="st16">
	<path d="M1047.4,480.9c0,0.5,0.3,1,0.7,1.1c6.2,2.3,24.3,9.2,34.3,16.2C1073.8,491.2,1055.3,483.9,1047.4,480.9z"/>
	<path d="M1109.2,435.6l-1,0.3c22.2,38.8-19.6,62.2-23.3,64.2c0.6,0.5,1.2,1,1.7,1.5l0.3,0.3
		C1086.9,501.9,1135.2,477.4,1109.2,435.6z"/>
</g>
<path class="st14" d="M1083.8,457c-17.5,4.5-19.8-0.6-20.9,0c-1.1,0.6,4-2.8-1.7-0.6s-14.1-6.8-14.1-6.8c0.1-1,0.1-1.9,0.1-2.9
	c0.1-18.9-14.3-37.8-14.3-37.8c-26-14.1-16.9-34.4-16.9-34.4l-1.1-9.3l-2.9-25.3c4.1-1.3,8-3.2,11.6-5.6c6-3.8,12.2-7.1,18.7-9.8
	c1.9-0.8,3-1.4,3-1.4s33.3,22,39,53.1s28.2,56.5,28.8,60.4S1101.3,452.5,1083.8,457z"/>
<g class="st16">
	<path d="M1025.1,304l-24.8,16.9c3.4,1.2,6.7,2.8,9.7,4.8c8.5-1.2,13.6-7.3,17.1-14.7C1025.7,308.9,1026.3,307,1025.1,304z"/>
</g>
<circle class="st12" cx="1005.9" cy="300.7" r="24.8"/>
<g class="st16">
	<path d="M1087.7,454.2c-17.5,4.5-19.8-0.6-20.9,0c-1.1,0.6,4-2.8-1.7-0.6s-14.1-6.8-14.1-6.8c0.1-1,0.1-1.9,0.1-2.9
		c0.1-18.9-14.2-37.8-14.2-37.8c-26-14.1-16.9-34.4-16.9-34.4l-1.1-9.3l-2.8-23.9c-1.3,0.6-2.7,1.1-4.1,1.5l2.9,25.3l1.1,9.3
		c0,0-9,20.3,16.9,34.4c0,0,14.3,18.9,14.2,37.8c0,1,0,1.9-0.1,2.9c0,0,8.5,9,14.1,6.8c5.6-2.2,0.6,1.1,1.7,0.6s3.4,4.5,20.9,0
		c7.9-2.1,15.4-5.7,21.9-10.7C1100.1,449.9,1094.1,452.6,1087.7,454.2z"/>
</g>
<path class="st12" d="M1040.9,356c0,0-14.1,5.1-22,13.5c0,0-38.4,15.2-49.1,13.5s-11.3-4.5-13.5-9l-24.3-44c0,0-10.2-36.7,0-32.8
	s13,26,13,26s19.2,38.4,31,37.8l32.2-15.3c0,0,7.3-10.7,10.7-10.2S1040.9,356,1040.9,356z"/>
<g class="st16">
	<path d="M1021.8,335.3c0,0-11.7-1.1-15.1,13.6s26,23.7,26,23.7l15.8-22L1021.8,335.3z"/>
</g>
<path class="st14" d="M1022.4,335.3c0,0-11.7-1.1-15.1,13.6s26,23.7,26,23.7l15.8-22L1022.4,335.3z"/>
<g class="st16">
	<path d="M1017.6,337.9c-1.8,0.9-3.6,1.6-5.5,2.1l0.1,0.8C1014,340,1015.9,339,1017.6,337.9z"/>
	<path d="M1113.1,436.7c-0.6-4-23.1-29.4-28.8-60.4c-5.6-31-39-53.1-39-53.1s-1.1,0.6-3,1.4c-5.1,2.2-10,4.7-14.8,7.5
		c3.2-1.7,6.4-3.2,9.7-4.6c1.9-0.8,3-1.4,3-1.4s33.3,22,39,53.1s28.2,56.5,28.8,60.4c0.4,2.5-4.4,8.1-12.4,13.1
		C1106.6,447.2,1113.6,439.7,1113.1,436.7z"/>
</g>
<path class="st18" d="M1029.1,335.5c0,0,14.6,7.2,17.3,21.1"/>
<g class="st16">
	<path d="M993.4,299.3c2.3,0.5,4.9,1.3,6.1,3.3c0.8,1.5,0.7,3.4,1.5,5c2.1,3.9,8.2,2.6,12,4.9c7,4.2,2.4,17.4,9.4,21.6
		c1.3,0.8,2.9,1.1,4.2,1.8c5.9,3.2,5.1,11.7,4,18.4s0.2,15.7,6.8,16.6c3.7,0.5,7.8-1.9,10.8,0.1c1.6,1.1,2.3,3,3.7,4.4
		c1.9,1.9,4.7,2.5,7.2,1.5c2.3-0.9,3.9-3.1,6.2-3.8c3.8-1.1,8,2,11.6,0.5c3.6-1.4,4.5-6.7,3.5-10.6c-0.9-4-2.9-8-1.9-12
		c0.8-3.3,3.5-5.8,4.7-9c3.5-9.4-7.3-19.1-5.3-28.9c0.9-4.3,4.1-8,4-12.3c-0.1-5-4.5-8.8-9.1-10.6c-4.6-1.8-9.7-2.4-14.2-4.4
		c-9.9-4.5-15.3-15.4-24.3-21.4c-4-2.6-8.6-4.4-13.4-5.1c-12.5-2-25.2,1.5-34.9,9.5c-0.9,0.7-1.8,1.4-2.7,2.1
		c-3.9,2.8-8,5.5-10.3,9.7C964.5,295.5,984.2,297.2,993.4,299.3z"/>
</g>
<path class="st19" d="M994.1,297.8c2.3,0.5,4.9,1.3,6.1,3.3c0.8,1.5,0.7,3.4,1.5,5c2.1,3.9,8.2,2.6,12,4.9c7,4.2,2.4,17.4,9.4,21.6
	c1.3,0.8,2.9,1.1,4.2,1.9c5.9,3.2,5.1,11.7,4,18.4s0.2,15.7,6.8,16.6c3.7,0.5,7.8-1.9,10.8,0.1c1.6,1.1,2.3,3,3.7,4.4
	c1.9,1.9,4.7,2.5,7.2,1.5c2.3-0.9,3.9-3.1,6.2-3.8c3.8-1.1,8,2,11.6,0.5c3.6-1.4,4.5-6.7,3.5-10.6c-0.9-4-2.9-8-1.9-12
	c0.8-3.3,3.5-5.8,4.7-9c3.5-9.4-7.3-19.1-5.3-28.9c0.9-4.3,4.1-8,4-12.3c-0.1-5-4.5-8.8-9.1-10.6c-4.6-1.8-9.7-2.4-14.2-4.4
	c-9.9-4.5-15.3-15.4-24.3-21.4c-3.7-2.4-7.8-4.1-12.1-4.9c-12.9-2.5-26.2,0.9-36.3,9.3c-0.9,0.7-1.8,1.4-2.7,2
	c-3.9,2.8-8,5.5-10.3,9.7C965.2,294.1,984.9,295.8,994.1,297.8z"/>
<path class="st19" d="M792.8,454h-174v-32.8C661.3,401.4,726.8,390.2,792.8,454z"/>
<g class="st16">
	<path d="M927.8,449.3v4.7h-217v-1C710.8,453,817.6,349,927.8,449.3z"/>
</g>
<path class="st19" d="M929.8,449.3v4.7h-217v-1C712.8,453,819.6,349,929.8,449.3z"/>
<circle class="st19" cx="654.8" cy="307" r="16"/>
<path class="st20" d="M791.1,294.9c-1.8,0-3.9,0-5.3,0.1c-0.6,0-1.2,0.2-1.8,0.4l-9.4,3.4c7.6,0.2,15.5,0.1,23.3,0.1l43.7-0.3
	c4.5,0,9.1-0.1,12.8-0.3c2.5-0.2,4.3-0.4,6.6-0.6c8.3-0.7,20.3-0.6,31.1-0.6c10.8,0,23.8-0.2,27.6-1.3h-23.1c-2.5,0-5.1,0-7.3-0.1
	c-2.6-0.2-4.1-0.4-6.4-0.6c-3.7-0.3-8.9-0.4-13.7-0.4C842.8,294.4,816.8,295,791.1,294.9z"/>
<path class="st20" d="M816.9,314.3c-0.4,0-0.8,0-1.1,0c-0.1,0-0.3,0-0.4,0.1l-2,0.7c1.7,0,3.4,0,5,0l9.5-0.1c1,0,2,0,2.8-0.1
	c0.5,0,0.9-0.1,1.4-0.1c1.8-0.2,4.4-0.1,6.7-0.1c2,0.1,4,0,6-0.3h-5c-0.5,0-1.1,0-1.6,0s-0.9-0.1-1.4-0.1c-0.8-0.1-1.9-0.1-3-0.1
	C828.2,314.2,822.5,314.3,816.9,314.3z"/>
<path class="st20" d="M749.9,342.3c-0.4,0-0.8,0-1.1,0c-0.1,0-0.3,0-0.4,0.1l-2,0.7c1.7,0,3.4,0,5,0l9.5-0.1c1,0,2,0,2.8-0.1
	c0.5,0,0.9-0.1,1.4-0.1c1.8-0.2,4.4-0.1,6.7-0.1c2,0.1,4,0,6-0.3h-5c-0.5,0-1.1,0-1.6,0s-0.9-0.1-1.4-0.1c-0.8-0.1-1.9-0.1-3-0.1
	C761.2,342.2,755.5,342.3,749.9,342.3z"/>
<path class="st19" d="M712.3,445.1h-7.5c0,0-2.3-82.2,7.5-107.6h1.9C714.2,337.5,707.7,430.6,712.3,445.1z"/>
<path class="st19" d="M707.2,333.3c0,0-6.1,16.9-3.3,24.4c0,0,4.2-15.5,9.2-17.9s10.1,17.9,10.1,17.9s2.8-12.7-2.3-23
	c0,0,10.3,5.6,15.5,16.5c0,0,0.9-7-11.3-21.6c0,0,10.8,2.8,17.9,9.4c0,0,2.3-5.2-12.2-13.6c0,0,1.9-6.1,13.2-3.3c0,0,0-8-17.9-6.6
	c0,0,0-5.2,11.8-4.2c0,0,0-6.6-13.6-4.2c0,0,2.8-4.2,4.7-5.2c-2.4-0.2-4.7,0.5-6.6,1.9c0,0,0.5-8.5-6.6-11.8l-0.9,11.8
	c0,0-7.9-9.3-6.1-7.5c0.5,0.5,1.9,6.1,1.4,8.9c0,0-8-6.6-17.9,0.5c0,0,12.2,0.9,14.1,5.2c0,0-10.3-1.9-12.7-0.5c0,0,8,2.8,7.5,4.7
	c0,0-14.1,0-16,5.2c0,0,14.6,1.9,15.5,3.3c0,0-16.9,12.2-17.9,15.5c0,0,17.4-10.3,20.2-10.3s-12.7,15-11.8,18.8
	C691.2,347.4,703.9,332.4,707.2,333.3z"/>
<path class="st19" d="M805.1,442.1h5.7c0,0,1.8-62.8-5.7-82.2h-1.4C803.7,359.8,808.7,430.9,805.1,442.1z"/>
<path class="st19" d="M809,356.6c0,0,4.7,12.9,2.5,18.7c0,0-3.2-11.8-7-13.6c-3.8-1.8-7.7,13.6-7.7,13.6s-2.2-9.7,1.8-17.6
	c-5.1,3-9.2,7.3-11.8,12.6c0,0-0.7-5.4,8.6-16.5c0,0-8.3,2.2-13.6,7.2c0,0-1.8-4,9.3-10.4c0,0-1.4-4.7-10-2.5c0,0,0-6.1,13.6-5
	c0,0,0-4-9-3.2c0,0,0-5,10.4-3.2c0,0-2.2-3.2-3.6-4c1.8-0.2,3.6,0.4,5,1.4c0,0-0.4-6.5,5-9l0.7,9c0,0,6-7.1,4.7-5.7
	c-0.9,2.2-1.2,4.5-1.1,6.8c0,0,6.1-5,13.6,0.4c0,0-9.3,0.7-10.8,4c0,0,7.9-1.4,9.7-0.4c0,0-6.1,2.1-5.7,3.6c0,0,10.8,0,12.2,4
	c0,0-11.1,1.4-11.8,2.5c0,0,12.9,9.3,13.6,11.9c0,0-13.3-7.9-15.4-7.9s9.7,11.5,9,14.4C821.3,367.4,811.6,355.9,809,356.6z"/>
<path class="st19" d="M873.8,429.8h3.6c0,0,1.1-38.9-3.6-50.9h-0.9C872.9,378.9,876,422.9,873.8,429.8z"/>
<path class="st19" d="M876.3,376.9c0,0,2.9,8,1.6,11.6c0,0-2-7.3-4.3-8.5c-2.3-1.1-4.8,8.5-4.8,8.5s-1.3-6,1.1-10.9
	c-3.1,1.9-5.7,4.5-7.3,7.8c0,0-0.4-3.3,5.3-10.2c-3.1,0.9-6,2.4-8.5,4.5c0,0-1.1-2.5,5.8-6.5c0,0-0.9-2.9-6.2-1.6c0,0,0-3.8,8.5-3.1
	c0,0,0-2.5-5.6-2c0,0,0-3.1,6.5-2c-0.6-0.9-1.3-1.8-2.2-2.5c1.1-0.1,2.2,0.2,3.1,0.9c0,0-0.2-4,3.1-5.6l0.4,5.6c0,0,3.7-4.4,2.9-3.6
	c-0.5,1.3-0.8,2.8-0.7,4.2c2.5-1.9,6-1.8,8.5,0.2c0,0-5.8,0.4-6.7,2.5c0,0,4.9-0.9,6-0.2c0,0-3.8,1.3-3.6,2.2c0,0,6.7,0,7.6,2.5
	c0,0-6.9,0.9-7.3,1.6c0,0,8,5.8,8.5,7.3c0,0-8.2-4.9-9.6-4.9s6,7.1,5.6,8.9C883.8,383.5,877.8,376.4,876.3,376.9z"/>
<linearGradient id="SVGID_4_" gradientUnits="userSpaceOnUse" x1="857.7618" y1="226.2867" x2="857.7618" y2="281.6266" gradientTransform="matrix(1 0 0 -1 -124.06 650.7401)">
	<stop  offset="0" style="stop-color:#808080;stop-opacity:0.25"/>
	<stop  offset="0.54" style="stop-color:#808080;stop-opacity:0.12"/>
	<stop  offset="1" style="stop-color:#808080;stop-opacity:0.1"/>
</linearGradient>
<path class="st21" d="M743.8,385.8L743.8,385.8l-0.8-4c0-0.6-0.2-1.2-0.7-1.6l-3.5-1.7l0,0c-0.3-0.3-0.5-0.6-0.6-1l0.1-0.1
	c0.2-0.2,0.3-0.5,0.4-0.8c0-0.1,0-0.2,0-0.2h0c0.7,0.1,1.3-0.3,1.4-1v-0.1c-0.1,0.6-0.6,1-1.2,1c1-0.7,1.6-1.8,1.6-2.9
	c0,0,0-0.1,0-0.1c0.3-0.2,0.5-0.5,0.6-0.9v-0.1c-0.1,0.3-0.3,0.6-0.6,0.8c0-0.3-0.1-0.7-0.2-1h0.1c0.7,0,1.3-0.6,1.3-1.3
	c0,0,0-0.1,0-0.1c0,0.7-0.6,1.2-1.3,1.2h-0.2v-0.1c0.8-0.2,1.4-0.9,1.5-1.7c0,0,0-0.1,0-0.1c0,0.3-0.1,0.5-0.3,0.7
	c0-0.7-0.5-1.3-1.2-1.4c-0.6,0-1.2,0.4-1.3,1l-0.2-0.1c0.1-0.5,0.6-0.9,1.2-0.9h-0.1c-0.6,0-1,0.3-1.2,0.9c-1.6-0.7-3.5-0.2-4.5,1.3
	c-0.3,0.2-0.6,0.5-0.6,0.7c-0.1,0.1-0.2,0.2-0.3,0.4c-0.4,0.8-0.5,1.8-0.4,2.7c0.1,0.9-0.2,1.8-0.9,2.5c0.3,0.1,0.6,0.1,0.9,0
	c0.3-0.1,0.6-0.3,0.8-0.5c0.2-0.1,0.4-0.3,0.6-0.6v0c0.2,0.1,0.3,0.2,0.5,0.3c0.1,0.6,0.1,1.3-0.2,1.5l0,0l0,0l0-0.1
	c-0.6,0.5-1.4,0.7-2.3,0.6c-1,0.1-1.9,0.6-2.3,1.5l-1.1,4.5l0,0v0.1l0,0v0.1l0,0c0,0.1,0.1,0.2,0.3,0.3l0.3,0.1
	c0.1,0.8,0,1.6-0.2,2.3c-0.2,1.1-0.4,2.3-0.4,3.4c0.1,0.6,0.2,3.5,0.3,5c-0.1,0.5-0.2,1-0.3,1.5l-1.6,9.7c0,0-1.2,7.7-1.1,10.1
	l-0.2,1.3c0,0-3.3,4.1-2.3,4.7c1,0.6,2.4,0.8,3.8-1.3c0.2-0.5,0.5-1,0.9-1.4c0.3-0.3,0.5-0.7,0.5-1.1l-0.1-1l0.2,0.1l0,0h0.1
	c0,0,1.6-5.3,1.4-9c0,0,3-10.6,5.3-12.3v-0.1l0.2-0.1l0.5,10.3l-0.5,11.3l-0.1,0.7c0,0-3.3,4.1-2.3,4.7c1,0.6,2.4,0.8,3.8-1.3
	c0.2-0.5,0.5-1,0.9-1.4c0.3-0.3,0.5-0.7,0.5-1.1l-0.2-1.5c0.6-1.9,2-7.4,1.4-10.6l1-6.8c1-1.1,0.9-4,0.9-4c0.8-1.6,1-8.1,1-8.1
	l0.2-3.2c0.1,0,0.3,0,0.5,0h0.1h0.1V386C743.7,385.9,743.8,385.9,743.8,385.8L743.8,385.8L743.8,385.8L743.8,385.8L743.8,385.8z
	 M741,392.3c-0.1-0.2-0.2-0.4-0.3-0.7h-0.1v-0.1c0,0,0-0.1,0-0.1v-0.1c0-0.1,0.1-0.2,0.1-0.3c0.1-0.2,0.2-0.4,0.2-0.7
	C741.1,391,741.1,391.6,741,392.3z M740.7,389.5l-0.2-2.1l0.1-0.2l0.3,2.7L740.7,389.5z M731.3,389.8c-0.1,0.2-0.2,0.4-0.2,0.6
	c0,0,0,0,0,0.1c0,0.2,0,0.4,0.1,0.6l-0.3,1.3v-2.6c0.2-0.3,0.4-0.6,0.5-0.9C731.4,389.3,731.4,389.6,731.3,389.8L731.3,389.8z"/>
<path class="st22" d="M733.3,373.3c-0.4,0.8-0.5,1.7-0.4,2.6c0.1,0.9-0.2,1.8-0.9,2.4c0.3,0.1,0.6,0.1,0.9,0
	c0.3-0.1,0.6-0.3,0.8-0.5c0.2-0.1,0.4-0.3,0.6-0.5c0.1-0.3,0.2-0.7,0.1-1.1c0-0.7,0.1-1.3,0.2-2c0.1-0.4,0.4-1.5,0-1.7
	S733.5,373,733.3,373.3z"/>
<path class="st23" d="M726.7,415.8l-0.3,2c0,0-3.2,4-2.2,4.5s2.3,0.8,3.7-1.3c0.2-0.5,0.5-0.9,0.9-1.3l0,0c0.3-0.3,0.5-0.7,0.4-1.1
	l-0.3-3L726.7,415.8z"/>
<path class="st23" d="M736.1,416.6l-0.3,2c0,0-3.2,4-2.2,4.5s2.3,0.8,3.7-1.3c0.2-0.5,0.5-0.9,0.9-1.3l0,0c0.3-0.3,0.5-0.7,0.4-1.1
	l-0.3-3L736.1,416.6z"/>
<path class="st24" d="M731.2,392.7c0,0-1.5,1.1-2,4.8l-1.5,9.3c0,0-1.3,8.4-1.1,10.1l2.6,0.9c0,0,1.5-5.1,1.4-8.6
	c0,0,3.2-11.2,5.4-12l0.5,9.9l-0.5,11.2l2.2,0.5c0,0,2.3-7.1,1.5-10.9l1.2-8c0,0,1.3-4.3-0.5-8L731.2,392.7z"/>
<g class="st16">
	<path d="M735.7,397.3v-0.2c-2.2,0.8-5.4,12-5.4,12c-0.1,2.9-0.5,5.8-1.3,8.6l0.3,0.1c0,0,1.5-5.1,1.4-8.6
		C730.7,409.1,733.6,398.9,735.7,397.3z"/>
	<path d="M740.5,391.8h-0.3c1.1,2.5,1.3,5.3,0.5,7.9l-1.2,8c0.7,3.6-1.3,10.1-1.5,10.8l0.3,0.1c0,0,2.3-7.1,1.5-10.9l1.2-8
		C741,399.7,742.3,395.5,740.5,391.8z"/>
</g>
<path class="st25" d="M729.2,385.4c0,0.2,0.1,0.3,0.3,0.3c0.7,0.2,1.4,0.5,2,1c1.1,0.9-1.2-1.7-1.2-1.7l-0.8,0.2L729.2,385.4
	L729.2,385.4z"/>
<path class="st26" d="M729.2,385.4c0,0.2,0.1,0.3,0.3,0.3c0.7,0.2,1.4,0.5,2,1c1.1,0.9-1.2-1.7-1.2-1.7l-0.8,0.2L729.2,385.4
	L729.2,385.4z"/>
<path class="st25" d="M740,387.7c0.9-0.7,2-1.1,3.1-1.2c0.2,0,0.3-0.1,0.3-0.3l0,0C743.4,386.2,740.8,385.1,740,387.7z"/>
<path class="st26" d="M743.5,386.2c0,0-2.6-1-3.4,1.5c0,0,1.9-1.5,3.3-1.2"/>
<circle class="st22" cx="737" cy="374.1" r="3.4"/>
<path class="st12" d="M734.7,376.5c0,0,0.5,2,0,2.4c-0.5,0.4-1.5,1.2-0.7,1.8c0.7,0.6,3.3,1.6,4.2,1.1s1.9-0.3,1.6-1.3
	s-2.1-0.8-2.2-5.8L734.7,376.5z"/>
<path class="st26" d="M729.8,384.8c0.1,1.1,0,2.2-0.2,3.2c-0.2,1.1-0.3,2.2-0.4,3.3c0.1,0.7,0.3,5.5,0.3,5.5s-0.4,4.2,1.7,3.8
	s-0.3-4.8-0.3-4.8l0.1-5.7c0.6-0.7,0.9-1.6,1-2.5C732.1,386.2,729.8,384.8,729.8,384.8z"/>
<path class="st12" d="M729.8,384.8c0.1,1.1,0,2.2-0.2,3.2c-0.2,1.1-0.3,2.2-0.4,3.3c0.1,0.7,0.3,5.5,0.3,5.5s-0.4,4.2,1.7,3.8
	s-0.3-4.8-0.3-4.8l0.1-5.7c0.6-0.7,0.9-1.6,1-2.5C732.1,386.2,729.8,384.8,729.8,384.8z"/>
<path class="st26" d="M742.8,385.1l-0.3,4.5c0,0-0.2,6.2-0.9,7.8c0,0,0.2,4.4-1.8,4.3c-2-0.1,0.3-4.8,0.3-4.8s1.1-4.9,0.5-6.4
	l-0.5-5.3H742.8z"/>
<path class="st12" d="M742.8,385.1l-0.3,4.5c0,0-0.2,6.2-0.9,7.8c0,0,0.2,4.4-1.8,4.3c-2-0.1,0.3-4.8,0.3-4.8s1.1-4.9,0.5-6.4
	l-0.5-5.3H742.8z"/>
<path class="st26" d="M736.2,380.8c0,0,1.7,0.8,2.5-1.5l3.3,1.6c0.4,0.4,0.7,0.9,0.7,1.5l0.7,3.9c0,0-2.5-0.8-3.2,1.5l0.2,2.2l0,0
	c0.2,0.5,0.1,1.1-0.1,1.6c0,0.1,0,0.2,0,0.3c0.2,0.6-0.1,1.2-0.7,1.3c-0.1,0-0.2,0-0.3,0c-0.9,0-1.8,0.1-2.7,0.2
	c-0.7,0.2-2.9-0.4-3.6,0c-0.7,0.4-2.2-0.3-2.2-0.3l0.4-1.8c0,0-0.3-0.9,0.1-1.2c0.4-0.3,0.1-3-0.2-3.8c0,0-1.2-1.2-2-1l1-4.5
	c0.4-0.8,1.3-1.4,2.2-1.5c0.8,0.1,1.5-0.2,2.2-0.6C734.5,378.9,733.8,380.6,736.2,380.8z"/>
<path class="st26" d="M736.4,380.7c0.5,0.1,1.7,0.3,2.4-1.6l3.3,1.6c0.4,0.4,0.7,0.9,0.7,1.5l0.7,3.9c0,0-2.5-0.8-3.2,1.5l0.2,2.2
	l0.1,0.4c0.1,0.4,0.1,0.8-0.2,1.1c-0.1,0.1-0.1,0.3-0.1,0.4c0.2,0.6-0.1,1.2-0.7,1.3c-0.1,0-0.2,0-0.3,0c-0.9,0-1.8,0.1-2.7,0.2
	c-0.7,0.2-2.9-0.4-3.6,0c-0.7,0.4-2.2-0.3-2.2-0.3l0.4-1.8c0,0-0.3-0.9,0.1-1.2c0.4-0.3,0.1-3-0.2-3.8c0,0-1.2-1.2-2-1l1-4.5
	c0.4-0.8,1.3-1.4,2.2-1.5c0.8,0.1,1.5-0.2,2.2-0.6c0,0-0.8,1.5,1.3,1.8L736.4,380.7z"/>
<path class="st25" d="M736.4,380.8c0.5,0.1,1.7,0.3,2.4-1.6l3.3,1.6c0.4,0.4,0.7,0.9,0.7,1.5l0.7,3.9c0,0-2.5-0.8-3.2,1.5l0.2,2.2
	l0,0c0.2,0.5,0.1,1.1-0.1,1.6c0,0.1,0,0.2,0,0.3c0.2,0.6-0.1,1.2-0.7,1.3c-0.1,0-0.2,0-0.3,0c-0.9,0-1.8,0.1-2.7,0.2
	c-0.7,0.2-2.9-0.4-3.6,0c-0.7,0.4-2.2-0.3-2.2-0.3l0.4-1.8c0,0-0.3-0.9,0.1-1.2c0.4-0.3,0.1-3-0.2-3.8c0,0-1.2-1.2-2-1l1-4.5
	c0.4-0.8,1.3-1.4,2.2-1.5c0.8,0.1,1.5-0.2,2.2-0.6c0,0-0.8,1.5,1.3,1.8L736.4,380.8z"/>
<path class="st26" d="M737.6,374.9l-2.9,1.8c0.1,0.3,0.1,0.7,0.2,1c0.3,0.1,0.7,0.2,1,0.2c0.7-0.1,1.4-0.4,1.9-0.9
	C737.7,376.3,737.6,375.6,737.6,374.9z"/>
<circle class="st12" cx="735.9" cy="374.8" r="2.8"/>
<circle class="st22" cx="740" cy="371.4" r="1.2"/>
<path class="st22" d="M740.3,372.7c-0.7,0-1.2-0.5-1.2-1.2c0,0,0,0.1,0,0.1c0,0.7,0.6,1.2,1.2,1.2c0.7,0,1.2-0.6,1.2-1.2
	c0,0,0,0,0,0c0,0,0-0.1,0-0.1C741.5,372.2,740.9,372.7,740.3,372.7z"/>
<path class="st22" d="M739.6,373.9c-0.6-0.1-1.1-0.7-1-1.4v0.1c-0.1,0.7,0.3,1.3,1,1.4s1.3-0.3,1.4-1l0,0V373
	C740.9,373.6,740.2,374,739.6,373.9z"/>
<path class="st22" d="M738.6,376.9c-0.6-0.1-1.1-0.7-1-1.4v0.1c-0.1,0.7,0.3,1.3,1,1.4s1.3-0.3,1.4-1V376
	C739.9,376.6,739.3,377,738.6,376.9z"/>
<path class="st22" d="M740.3,372.1c-0.7,0-1.2-0.5-1.2-1.2c0,0,0,0.1,0,0.1c0,0.7,0.6,1.2,1.2,1.2c0.7,0,1.2-0.6,1.2-1.2
	c0,0,0,0,0,0c0,0,0-0.1,0-0.1C741.5,371.6,740.9,372.1,740.3,372.1z"/>
<path class="st22" d="M738.5,371.4c0-0.7,0.5-1.2,1.2-1.2h-0.1c-0.7,0-1.2,0.6-1.2,1.2c0,0.7,0.6,1.2,1.2,1.2l0,0h0.1
	C739.1,372.6,738.5,372.1,738.5,371.4z"/>
<path class="st26" d="M739.8,383.1c0.1,0.6,0.1,1.2,0,1.9c0,0-0.2,1.6,0.1,1.9"/>
<path class="st26" d="M731.4,383.5c0.1,0.6,0.1,1.2,0,1.9c0,0-0.2,1.6,0.1,1.9"/>
<path class="st26" d="M731.3,390.1c0.3,0.1,0.6,0.1,0.8,0c0.3-0.1,0.7-0.1,1,0"/>
<path class="st26" d="M731.8,387.7c1,0,1.9-0.1,2.9-0.5c0,0,3.5,0.9,4.5,0.2"/>
<path class="st12" d="M729.9,402.6h0.8c0.4,0,0.7,0.3,0.7,0.7v0c0,0.4-0.3,0.7-0.7,0.7h-0.8c-0.4,0-0.7-0.3-0.7-0.7v0
	C729.2,402.9,729.5,402.6,729.9,402.6z"/>
<path class="st27" d="M729.2,402.9l1.2,0l1,0.2H731L729.2,402.9z"/>
<path class="st27" d="M737,397.3h1.2l1,0.1h-0.3L737,397.3z"/>
<path class="st27" d="M737,397.5h1.2l1,0.1h-0.3L737,397.5z"/>
<path class="st27" d="M737,397.8h1.2l1,0.1h-0.3L737,397.8z"/>
<path class="st27" d="M737,398h1.2l1,0.1h-0.3L737,398z"/>
<path class="st27" d="M729.2,403.8h1.2l1,0.1H731L729.2,403.8z"/>
<path class="st27" d="M729.2,403.7h1.2l1,0.1H731L729.2,403.7z"/>
<path class="st27" d="M729.2,403.6h1.2l1,0.1H731L729.2,403.6z"/>
<path class="st27" d="M729.2,403.5h1.2l1,0.1H731L729.2,403.5z"/>
<path class="st27" d="M729.2,402.7l1.2,0l1,0.2H731L729.2,402.7z"/>
<path class="st27" d="M729.2,402.5l1.2,0l1,0.2H731L729.2,402.5z"/>
<path class="st26" d="M736.3,373c-0.1,1.1,0,2.1,0.4,3.1c0.4,1,0.3,2.1-0.2,3c0.3,0.1,0.6,0,0.9-0.2c0.2-0.2,0.5-0.5,0.6-0.8
	c0.2-0.2,0.3-0.5,0.4-0.8c0-0.4,0-0.9-0.2-1.3c-0.2-0.8-0.3-1.5-0.4-2.3c-0.1-0.5,0-1.9-0.5-2S736.5,372.6,736.3,373z"/>
<path class="st22" d="M736.4,373c-0.1,1.1,0,2.1,0.4,3.1c0.4,1,0.3,2.1-0.2,3c0.3,0.1,0.6,0,0.9-0.2c0.2-0.2,0.5-0.5,0.6-0.8
	c0.2-0.2,0.3-0.5,0.4-0.8c0-0.4,0-0.9-0.2-1.3c-0.2-0.8-0.3-1.5-0.4-2.3c-0.1-0.5,0-1.9-0.5-2S736.5,372.6,736.4,373z"/>
<path class="st26" d="M735.2,373.7c0.2,0.3,0.3,0.6,0.5,0.9c0.4,0.4,0.9,0.6,1.4,0.6c0.1,0,0.3,0,0.4,0.1c0.2,0.1,0.2,0.5,0.4,0.7
	c0.3,0.3,0.8,0.3,1.1,0c0,0,0,0,0,0c0.3-0.3,0.4-0.8,0.5-1.2c0-0.5,0-1,0-1.5c0-0.6-0.2-1.1-0.6-1.5c-0.3-0.2-0.7-0.4-1.1-0.5
	c-0.5-0.2-1.1-0.2-1.7-0.1c-0.3,0.1-0.5,0.2-0.8,0.4c-0.3,0.2-0.7,0.4-1,0.7c-0.4,0.3-1.1,0.8-0.4,1.1
	C734.3,373.4,734.8,373.3,735.2,373.7z"/>
<path class="st22" d="M735.3,373.7c0.2,0.3,0.3,0.6,0.5,0.9c0.4,0.4,0.9,0.6,1.4,0.6c0.1,0,0.3,0,0.4,0.1c0.2,0.1,0.2,0.5,0.4,0.7
	c0.3,0.3,0.8,0.3,1.1,0c0,0,0,0,0,0c0.3-0.3,0.4-0.8,0.5-1.2c0-0.5,0-1,0-1.5c0-0.6-0.2-1.1-0.6-1.5c-0.3-0.2-0.7-0.4-1.1-0.5
	c-0.5-0.2-1.1-0.2-1.7-0.1c-0.3,0.1-0.5,0.2-0.8,0.4c-0.3,0.2-0.7,0.4-1,0.7c-0.4,0.3-1.1,0.8-0.4,1.1
	C734.4,373.4,734.9,373.3,735.3,373.7z"/>
<path class="st27" d="M737.1,397.3h1.2l1,0.1h-0.3L737.1,397.3z"/>
<path class="st27" d="M737.1,397.5h1.2l1,0.1h-0.3L737.1,397.5z"/>
<path class="st27" d="M737.1,397.8h1.2l1,0.1h-0.3L737.1,397.8z"/>
<path class="st27" d="M737.1,398h1.2l1,0.1h-0.3L737.1,398z"/>
<path class="st27" d="M736.6,411.3h1.2l1,0.1h-0.3L736.6,411.3z"/>
<path class="st27" d="M736.6,411.6h1.2l1,0.1h-0.3L736.6,411.6z"/>
<path class="st27" d="M736.6,411.8h1.2l1,0.1h-0.3L736.6,411.8z"/>
<path class="st27" d="M736.6,412h1.2l1,0.1h-0.3L736.6,412z"/>
</svg>
