<svg xmlns="http://www.w3.org/2000/svg" xmlns:xlink="http://www.w3.org/1999/xlink" width="644.38" height="566.58" viewBox="0 0 644.38 566.58">
  <defs>
    <linearGradient id="linear-gradient" x1="0.499" y1="1.007" x2="0.499" y2="0.007" gradientUnits="objectBoundingBox">
      <stop offset="0" stop-color="gray" stop-opacity="0.251"/>
      <stop offset="0.54" stop-color="gray" stop-opacity="0.122"/>
      <stop offset="1" stop-color="gray" stop-opacity="0.102"/>
    </linearGradient>
    <linearGradient id="linear-gradient-2" x1="0.5" y1="0.999" x2="0.5" y2="0.036" xlink:href="#linear-gradient"/>
  </defs>
  <g id="pc-device" transform="translate(-685.909 -128)">
    <path id="Path_17" data-name="Path 17" d="M765.64,538.41S781.71,648.5,875.73,685.08l-190.34.26-190.34.26c93.92-36.83,109.71-147,109.71-147Z" transform="translate(323.159 -14.28)" fill="#e0e0e0"/>
    <rect id="Rectangle_38" data-name="Rectangle 38" width="384.26" height="23.26" transform="translate(816.318 671.32) rotate(-0.08)" fill="url(#linear-gradient)"/>
    <rect id="Rectangle_39" data-name="Rectangle 39" width="380.67" height="17.94" transform="translate(818.229 671.317) rotate(-0.08)" fill="#f5f5f5"/>
    <path id="Path_18" data-name="Path 18" d="M994.22,142.28l-619.08.85c-6.85,0-12.4,5.83-12.39,13l.48,361.19v12c0,27.44,21.33,49.66,47.55,49.62l548.93-.76c26.23,0,47.46-22.31,47.42-49.75v-12l-.48-361.19C1006.64,148.07,1001.07,142.27,994.22,142.28Z" transform="translate(323.159 -14.28)" fill="url(#linear-gradient-2)"/>
    <path id="Path_19" data-name="Path 19" d="M381.51,153.13H988.35a10.75,10.75,0,0,1,10.75,10.75V509.16H370.75V163.88a10.75,10.75,0,0,1,10.75-10.75Z" transform="translate(322.699 -13.33)" fill="#fff"/>
    <path id="Path_20" data-name="Path 20" d="M958.26,567.51l-546,.75A41.15,41.15,0,0,1,371,527.17V509.6l628.35-.87v17.58a41.15,41.15,0,0,1-41.09,41.2Z" transform="translate(323.159 -14.28)" fill="#f5f5f5"/>
    <rect id="Rectangle_40" data-name="Rectangle 40" width="568.62" height="287.41" transform="translate(724.774 168.067) rotate(-0.08)" fill="#6c63ff"/>
  </g>
</svg>
